<?xml version="1.0" encoding="UTF-8" standalone="no"?>
<!-- Created with Inkscape (http://www.inkscape.org/) -->

<svg
   xmlns:dc="http://purl.org/dc/elements/1.1/"
   xmlns:cc="http://creativecommons.org/ns#"
   xmlns:rdf="http://www.w3.org/1999/02/22-rdf-syntax-ns#"
   xmlns:svg="http://www.w3.org/2000/svg"
   xmlns="http://www.w3.org/2000/svg"
   xmlns:xlink="http://www.w3.org/1999/xlink"
   xmlns:sodipodi="http://sodipodi.sourceforge.net/DTD/sodipodi-0.dtd"
   xmlns:inkscape="http://www.inkscape.org/namespaces/inkscape"
   width="64"
   height="64"
   viewBox="0 0 64.000001 64.000001"
   id="svg2"
   version="1.1"
   inkscape:version="0.91 r13725"
   sodipodi:docname="diagnostic.svg">
  <defs
     id="defs4">
    <linearGradient
       inkscape:collect="always"
       id="linearGradient4273">
      <stop
         style="stop-color:#0ddcb1;stop-opacity:1;"
         offset="0"
         id="stop4275" />
      <stop
         style="stop-color:#b6f3f2;stop-opacity:1"
         offset="1"
         id="stop4277" />
    </linearGradient>
    <linearGradient
       inkscape:collect="always"
       id="linearGradient4205">
      <stop
         style="stop-color:#0dc808;stop-opacity:1"
         offset="0"
         id="stop4207" />
      <stop
         style="stop-color:#5dfe00;stop-opacity:1"
         offset="1"
         id="stop4209" />
    </linearGradient>
    <linearGradient
       inkscape:collect="always"
       xlink:href="#linearGradient4273"
       id="linearGradient4279"
       x1="44"
       y1="1025.3622"
       x2="35"
       y2="993.36218"
       gradientUnits="userSpaceOnUse" />
    <linearGradient
       inkscape:collect="always"
       xlink:href="#linearGradient4205"
       id="linearGradient4287"
       x1="14"
       y1="1043.3622"
       x2="8"
       y2="1028.3622"
       gradientUnits="userSpaceOnUse" />
  </defs>
  <sodipodi:namedview
     id="base"
     pagecolor="#ffffff"
     bordercolor="#666666"
     borderopacity="1.0"
     inkscape:pageopacity="0.0"
     inkscape:pageshadow="2"
     inkscape:zoom="9.23"
     inkscape:cx="34.876543"
     inkscape:cy="40.282187"
     inkscape:document-units="px"
     inkscape:current-layer="layer1"
     showgrid="true"
     units="px"
     gridtolerance="10000"
     inkscape:window-width="1855"
     inkscape:window-height="1056"
     inkscape:window-x="65"
     inkscape:window-y="24"
     inkscape:window-maximized="1"
     guidetolerance="20">
    <inkscape:grid
       type="xygrid"
       id="grid4136"
       empspacing="2" />
  </sodipodi:namedview>
  <metadata
     id="metadata7">
    <rdf:RDF>
      <cc:Work
         rdf:about="">
        <dc:format>image/svg+xml</dc:format>
        <dc:type
           rdf:resource="http://purl.org/dc/dcmitype/StillImage" />
        <dc:title></dc:title>
      </cc:Work>
    </rdf:RDF>
  </metadata>
  <g
     inkscape:label="Layer 1"
     inkscape:groupmode="layer"
     id="layer1"
     transform="translate(0,-988.36216)">
    <path
       style="fill:url(#linearGradient4287);fill-rule:evenodd;stroke:#000000;stroke-width:1.5;stroke-linecap:butt;stroke-linejoin:round;stroke-opacity:1;stroke-miterlimit:4;stroke-dasharray:none;fill-opacity:1"
       d="m 11.700176,1044.5386 c 0.299824,1.8236 2.244747,3.5002 4,3.6472 2.317111,0.1941 4.299824,-1.8236 5.234568,-4 C 26,1044.3622 26,1044.3622 30,1044.3622 c 1.310773,-1.3523 0.993054,-4.0248 -0.176367,-5.6473 0,-2 -7.823633,-4.3527 -17.823633,-6.3527 4,-4 16,-12 16,-12 0,0 -4.357454,1.5814 -6.409171,2.6455 C 17.528879,1025.1143 10,1030.3622 10,1030.3622 c 0,0 -5,-6.6165 -8,-7.6165 -0.6008688,-0.2888 -2,-0.2167 -2,-0.2167 l 0,21.8332 c 0,0 8,0 11.700176,0.1764 z"
       id="path4267"
       inkscape:connector-curvature="0"
       sodipodi:nodetypes="cccccccsccccc" />
    <path
       style="fill:url(#linearGradient4279);fill-rule:evenodd;stroke:#000000;stroke-width:2;stroke-linecap:round;stroke-linejoin:round;stroke-opacity:1;stroke-miterlimit:4;stroke-dasharray:none;fill-opacity:1"
       d="m 15.716143,1025.4868 c 1.99996,2 41.183911,1.8921 43.276273,-0.4334 1.799567,-2 1.972398,-29.01518 0.09821,-31.95971 -1.298643,-2.04031 -41.298643,-2.04031 -43.314521,0.13606 -1.831274,1.97707 -2.059962,30.25705 -0.05996,32.25705 z"
       id="path4269"
       inkscape:connector-curvature="0"
       sodipodi:nodetypes="sssss" />
    <path
       style="fill:none;fill-rule:evenodd;stroke:#000000;stroke-width:1.5;stroke-linecap:butt;stroke-linejoin:miter;stroke-opacity:1;stroke-miterlimit:4;stroke-dasharray:none"
       d="m 16,1008.3622 11,0 6,-8 8,18 6,-10 11,0 -1,0"
       id="path4271"
       inkscape:connector-curvature="0" />
  </g>
</svg>
