%TF.GenerationSoftware,KiCad,Pcbnew,4.0.7*%
%TF.CreationDate,2018-07-11T12:57:16+02:00*%
%TF.ProjectId,Parkbrake_switch,5061726B6272616B655F737769746368,rev?*%
%TF.FileFunction,Legend,Bot*%
%FSLAX46Y46*%
G04 Gerber Fmt 4.6, Leading zero omitted, Abs format (unit mm)*
G04 Created by KiCad (PCBNEW 4.0.7) date Wednesday 11 July 2018 12:57:16*
%MOMM*%
%LPD*%
G01*
G04 APERTURE LIST*
%ADD10C,0.100000*%
%ADD11C,0.300000*%
%ADD12C,0.150000*%
%ADD13C,0.120000*%
G04 APERTURE END LIST*
D10*
D11*
X126126856Y-144093429D02*
X126269714Y-144022000D01*
X126341142Y-143950571D01*
X126412571Y-143807714D01*
X126412571Y-143736286D01*
X126341142Y-143593429D01*
X126269714Y-143522000D01*
X126126856Y-143450571D01*
X125841142Y-143450571D01*
X125698285Y-143522000D01*
X125626856Y-143593429D01*
X125555428Y-143736286D01*
X125555428Y-143807714D01*
X125626856Y-143950571D01*
X125698285Y-144022000D01*
X125841142Y-144093429D01*
X126126856Y-144093429D01*
X126269714Y-144164857D01*
X126341142Y-144236286D01*
X126412571Y-144379143D01*
X126412571Y-144664857D01*
X126341142Y-144807714D01*
X126269714Y-144879143D01*
X126126856Y-144950571D01*
X125841142Y-144950571D01*
X125698285Y-144879143D01*
X125626856Y-144807714D01*
X125555428Y-144664857D01*
X125555428Y-144379143D01*
X125626856Y-144236286D01*
X125698285Y-144164857D01*
X125841142Y-144093429D01*
X126483999Y-140910571D02*
X125483999Y-140910571D01*
X126126856Y-142410571D01*
X113458571Y-143593429D02*
X113387142Y-143522000D01*
X113244285Y-143450571D01*
X112887142Y-143450571D01*
X112744285Y-143522000D01*
X112672856Y-143593429D01*
X112601428Y-143736286D01*
X112601428Y-143879143D01*
X112672856Y-144093429D01*
X113529999Y-144950571D01*
X112601428Y-144950571D01*
X112601428Y-142156571D02*
X113458571Y-142156571D01*
X113029999Y-142156571D02*
X113029999Y-140656571D01*
X113172856Y-140870857D01*
X113315714Y-141013714D01*
X113458571Y-141085143D01*
D12*
X107000000Y-148000000D02*
X129200000Y-148000000D01*
X106800000Y-147700000D02*
X107000000Y-148000000D01*
X104400000Y-147700000D02*
X106800000Y-147700000D01*
X104200000Y-148000000D02*
X104400000Y-147700000D01*
X101000000Y-148000000D02*
X104200000Y-148000000D01*
X100000000Y-147000000D02*
X100000000Y-101000000D01*
X101000000Y-148000000D02*
X100000000Y-147000000D01*
X130200000Y-147000000D02*
X129200000Y-148000000D01*
X130200000Y-101000000D02*
X130200000Y-147000000D01*
X129200000Y-100000000D02*
X130200000Y-101000000D01*
X105600000Y-100000000D02*
X129200000Y-100000000D01*
X105600000Y-101500000D02*
X105600000Y-100000000D01*
X101000000Y-100000000D02*
X100000000Y-101000000D01*
X103100000Y-101500000D02*
G75*
G03X105600000Y-101500000I1250000J0D01*
G01*
X103100000Y-100000000D02*
X103100000Y-101500000D01*
X101000000Y-100000000D02*
X103100000Y-100000000D01*
D13*
X124750000Y-140370000D02*
X124750000Y-145570000D01*
X117070000Y-140370000D02*
X124750000Y-140370000D01*
X114470000Y-145570000D02*
X124750000Y-145570000D01*
X117070000Y-140370000D02*
X117070000Y-142970000D01*
X117070000Y-142970000D02*
X114470000Y-142970000D01*
X114470000Y-142970000D02*
X114470000Y-145570000D01*
X115800000Y-140370000D02*
X114470000Y-140370000D01*
X114470000Y-140370000D02*
X114470000Y-141700000D01*
D12*
X119967333Y-138644381D02*
X119967333Y-139358667D01*
X120014953Y-139501524D01*
X120110191Y-139596762D01*
X120253048Y-139644381D01*
X120348286Y-139644381D01*
X118967333Y-139644381D02*
X119538762Y-139644381D01*
X119253048Y-139644381D02*
X119253048Y-138644381D01*
X119348286Y-138787238D01*
X119443524Y-138882476D01*
X119538762Y-138930095D01*
M02*
