%TF.GenerationSoftware,KiCad,Pcbnew,4.0.7*%
%TF.CreationDate,2018-07-11T12:57:16+02:00*%
%TF.ProjectId,Parkbrake_switch,5061726B6272616B655F737769746368,rev?*%
%TF.FileFunction,Copper,L2,Bot,Signal*%
%FSLAX46Y46*%
G04 Gerber Fmt 4.6, Leading zero omitted, Abs format (unit mm)*
G04 Created by KiCad (PCBNEW 4.0.7) date Wednesday 11 July 2018 12:57:16*
%MOMM*%
%LPD*%
G01*
G04 APERTURE LIST*
%ADD10C,0.100000*%
%ADD11C,0.150000*%
%ADD12R,1.700000X1.700000*%
%ADD13O,1.700000X1.700000*%
%ADD14C,1.700000*%
%ADD15C,1.200000*%
%ADD16C,0.800000*%
%ADD17C,1.000000*%
%ADD18C,0.400000*%
%ADD19C,0.600000*%
G04 APERTURE END LIST*
D10*
D11*
X107000000Y-148000000D02*
X129200000Y-148000000D01*
X106800000Y-147700000D02*
X107000000Y-148000000D01*
X104400000Y-147700000D02*
X106800000Y-147700000D01*
X104200000Y-148000000D02*
X104400000Y-147700000D01*
X101000000Y-148000000D02*
X104200000Y-148000000D01*
X100000000Y-147000000D02*
X100000000Y-101000000D01*
X101000000Y-148000000D02*
X100000000Y-147000000D01*
X130200000Y-147000000D02*
X129200000Y-148000000D01*
X130200000Y-101000000D02*
X130200000Y-147000000D01*
X129200000Y-100000000D02*
X130200000Y-101000000D01*
X105600000Y-100000000D02*
X129200000Y-100000000D01*
X105600000Y-101500000D02*
X105600000Y-100000000D01*
X101000000Y-100000000D02*
X100000000Y-101000000D01*
X103100000Y-101500000D02*
G75*
G03X105600000Y-101500000I1250000J0D01*
G01*
X103100000Y-100000000D02*
X103100000Y-101500000D01*
X101000000Y-100000000D02*
X103100000Y-100000000D01*
D12*
X115800000Y-141700000D03*
D13*
X115800000Y-144240000D03*
X118340000Y-141700000D03*
X118340000Y-144240000D03*
X120880000Y-141700000D03*
X120880000Y-144240000D03*
X123420000Y-141700000D03*
X123420000Y-144240000D03*
D14*
X121300000Y-109500000D03*
X123800000Y-109500000D03*
X126300000Y-109500000D03*
X121300000Y-114900000D03*
X123800000Y-114900000D03*
X126300000Y-114900000D03*
D15*
X126800000Y-112200000D03*
D14*
X121300000Y-128500000D03*
X123800000Y-128500000D03*
X126300000Y-128500000D03*
X121300000Y-133900000D03*
X123800000Y-133900000D03*
X126300000Y-133900000D03*
D15*
X126800000Y-131200000D03*
D16*
X107950000Y-115316000D03*
X110998000Y-122682000D03*
X114300000Y-122682000D03*
D17*
X105664000Y-123952000D03*
X111252000Y-141986000D03*
D16*
X112268000Y-118110000D03*
X112522000Y-124460000D03*
D17*
X117348000Y-110744000D03*
X114808000Y-113284000D03*
X112776000Y-128778000D03*
D18*
X107950000Y-119634000D02*
X107950000Y-115316000D01*
X110998000Y-122682000D02*
X107950000Y-119634000D01*
D19*
X123420000Y-141700000D02*
X123420000Y-134280000D01*
X123420000Y-134280000D02*
X123800000Y-133900000D01*
X123800000Y-133900000D02*
X123800000Y-128500000D01*
D18*
X118340000Y-144240000D02*
X118340000Y-144296000D01*
X118340000Y-144296000D02*
X116586000Y-146050000D01*
X116586000Y-146050000D02*
X115062000Y-146050000D01*
X115062000Y-146050000D02*
X113792000Y-144780000D01*
X113792000Y-144780000D02*
X113792000Y-140716000D01*
X113792000Y-140716000D02*
X114300000Y-140208000D01*
X114300000Y-140208000D02*
X114300000Y-122682000D01*
D19*
X105664000Y-136398000D02*
X105664000Y-123952000D01*
X111252000Y-141986000D02*
X105664000Y-136398000D01*
D18*
X112522000Y-118110000D02*
X112268000Y-118110000D01*
X112522000Y-124460000D02*
X112522000Y-118110000D01*
D19*
X121300000Y-114900000D02*
X121300000Y-109500000D01*
D18*
X118340000Y-141700000D02*
X118340000Y-141248000D01*
X118340000Y-141248000D02*
X119380000Y-140208000D01*
X119380000Y-140208000D02*
X119380000Y-119126000D01*
X119380000Y-119126000D02*
X123606000Y-114900000D01*
X123606000Y-114900000D02*
X123800000Y-114900000D01*
X123800000Y-109500000D02*
X123800000Y-114900000D01*
D19*
X126300000Y-114900000D02*
X126300000Y-114870000D01*
X126300000Y-114870000D02*
X125222000Y-113792000D01*
X126300000Y-109920000D02*
X125222000Y-110998000D01*
X125222000Y-113792000D02*
X125222000Y-110998000D01*
X126300000Y-114900000D02*
X128524000Y-117124000D01*
X123308000Y-126492000D02*
X121300000Y-128500000D01*
X125730000Y-126492000D02*
X123308000Y-126492000D01*
X128524000Y-123698000D02*
X125730000Y-126492000D01*
X128524000Y-117124000D02*
X128524000Y-123698000D01*
X114808000Y-113284000D02*
X117348000Y-110744000D01*
X120880000Y-141700000D02*
X120880000Y-134320000D01*
X120880000Y-134320000D02*
X121300000Y-133900000D01*
X121300000Y-133900000D02*
X121300000Y-128500000D01*
X112776000Y-145034000D02*
X112776000Y-128778000D01*
X114808000Y-147066000D02*
X112776000Y-145034000D01*
X118110000Y-147066000D02*
X114808000Y-147066000D01*
X120880000Y-144296000D02*
X118110000Y-147066000D01*
X120880000Y-144240000D02*
X120880000Y-144296000D01*
M02*
