M48
;DRILL file {KiCad 4.0.7} date Wednesday 11 July 2018 12:57:25
;FORMAT={-:-/ absolute / inch / decimal}
FMAT,2
INCH,TZ
T1C0.024
T2C0.031
T3C0.035
T4C0.039
T5C0.047
%
G90
G05
M72
T1
X4.25Y-4.54
X4.37Y-4.83
X4.42Y-4.65
X4.43Y-4.9
X4.5Y-4.83
T2
X4.16Y-4.88
X4.38Y-5.59
X4.44Y-5.07
X4.52Y-4.46
X4.62Y-4.36
T3
X4.7756Y-4.311
X4.7756Y-4.5236
X4.7756Y-5.0591
X4.7756Y-5.2717
X4.874Y-4.311
X4.874Y-4.5236
X4.874Y-5.0591
X4.874Y-5.2717
X4.9724Y-4.311
X4.9724Y-4.5236
X4.9724Y-5.0591
X4.9724Y-5.2717
T4
X4.5591Y-5.5787
X4.5591Y-5.6787
X4.6591Y-5.5787
X4.6591Y-5.6787
X4.7591Y-5.5787
X4.7591Y-5.6787
X4.8591Y-5.5787
X4.8591Y-5.6787
T5
X4.9921Y-4.4173
X4.9921Y-5.1654
T0
M30
