%TF.GenerationSoftware,KiCad,Pcbnew,4.0.7*%
%TF.CreationDate,2018-07-11T12:57:16+02:00*%
%TF.ProjectId,Parkbrake_switch,5061726B6272616B655F737769746368,rev?*%
%TF.FileFunction,Copper,L1,Top,Signal*%
%FSLAX46Y46*%
G04 Gerber Fmt 4.6, Leading zero omitted, Abs format (unit mm)*
G04 Created by KiCad (PCBNEW 4.0.7) date Wednesday 11 July 2018 12:57:16*
%MOMM*%
%LPD*%
G01*
G04 APERTURE LIST*
%ADD10C,0.100000*%
%ADD11C,0.150000*%
%ADD12R,0.450000X0.590000*%
%ADD13R,0.797560X0.797560*%
%ADD14R,1.700000X1.700000*%
%ADD15O,1.700000X1.700000*%
%ADD16R,0.800000X0.900000*%
%ADD17R,0.900000X0.800000*%
%ADD18R,2.000000X3.800000*%
%ADD19R,2.000000X1.500000*%
%ADD20R,0.700000X1.300000*%
%ADD21R,1.300000X0.700000*%
%ADD22C,1.700000*%
%ADD23C,1.200000*%
%ADD24C,0.800000*%
%ADD25C,1.000000*%
%ADD26C,0.400000*%
%ADD27C,0.600000*%
G04 APERTURE END LIST*
D10*
D11*
X107000000Y-148000000D02*
X129200000Y-148000000D01*
X106800000Y-147700000D02*
X107000000Y-148000000D01*
X104400000Y-147700000D02*
X106800000Y-147700000D01*
X104200000Y-148000000D02*
X104400000Y-147700000D01*
X101000000Y-148000000D02*
X104200000Y-148000000D01*
X100000000Y-147000000D02*
X100000000Y-101000000D01*
X101000000Y-148000000D02*
X100000000Y-147000000D01*
X130200000Y-147000000D02*
X129200000Y-148000000D01*
X130200000Y-101000000D02*
X130200000Y-147000000D01*
X129200000Y-100000000D02*
X130200000Y-101000000D01*
X105600000Y-100000000D02*
X129200000Y-100000000D01*
X105600000Y-101500000D02*
X105600000Y-100000000D01*
X101000000Y-100000000D02*
X100000000Y-101000000D01*
X103100000Y-101500000D02*
G75*
G03X105600000Y-101500000I1250000J0D01*
G01*
X103100000Y-100000000D02*
X103100000Y-101500000D01*
X101000000Y-100000000D02*
X103100000Y-100000000D01*
D12*
X109220000Y-115863000D03*
X109220000Y-113753000D03*
D13*
X112050700Y-122800000D03*
X113549300Y-122800000D03*
D12*
X103632000Y-113753000D03*
X103632000Y-115863000D03*
D13*
X112050700Y-119300000D03*
X113549300Y-119300000D03*
D14*
X115800000Y-141700000D03*
D15*
X115800000Y-144240000D03*
X118340000Y-141700000D03*
X118340000Y-144240000D03*
X120880000Y-141700000D03*
X120880000Y-144240000D03*
X123420000Y-141700000D03*
X123420000Y-144240000D03*
D16*
X113604000Y-116824000D03*
X115504000Y-116824000D03*
X114554000Y-114824000D03*
D17*
X109458000Y-127188000D03*
X109458000Y-125288000D03*
X107458000Y-126238000D03*
X113554000Y-131130000D03*
X113554000Y-133030000D03*
X115554000Y-132080000D03*
D18*
X103784000Y-133858000D03*
D19*
X110084000Y-133858000D03*
X110084000Y-131558000D03*
X110084000Y-136158000D03*
D20*
X107630000Y-109728000D03*
X105730000Y-109728000D03*
X113350000Y-109728000D03*
X115250000Y-109728000D03*
D21*
X115570000Y-120716000D03*
X115570000Y-122616000D03*
X112268000Y-127442000D03*
X112268000Y-125542000D03*
X115316000Y-127442000D03*
X115316000Y-125542000D03*
D20*
X107508000Y-121920000D03*
X109408000Y-121920000D03*
X105090000Y-121920000D03*
X103190000Y-121920000D03*
D21*
X103632000Y-125288000D03*
X103632000Y-127188000D03*
D20*
X113604000Y-136906000D03*
X115504000Y-136906000D03*
D22*
X121300000Y-109500000D03*
X123800000Y-109500000D03*
X126300000Y-109500000D03*
X121300000Y-114900000D03*
X123800000Y-114900000D03*
X126300000Y-114900000D03*
D23*
X126800000Y-112200000D03*
D22*
X121300000Y-128500000D03*
X123800000Y-128500000D03*
X126300000Y-128500000D03*
X121300000Y-133900000D03*
X123800000Y-133900000D03*
X126300000Y-133900000D03*
D23*
X126800000Y-131200000D03*
D24*
X107950000Y-115316000D03*
X110998000Y-122682000D03*
X114300000Y-122682000D03*
D25*
X105664000Y-123952000D03*
X111252000Y-141986000D03*
D24*
X112268000Y-118110000D03*
X112522000Y-124460000D03*
D25*
X117348000Y-110744000D03*
X114808000Y-113284000D03*
X112776000Y-128778000D03*
D26*
X107950000Y-115316000D02*
X106934000Y-115316000D01*
X105371000Y-113753000D02*
X103632000Y-113753000D01*
X106934000Y-115316000D02*
X105371000Y-113753000D01*
X112050700Y-122800000D02*
X111116000Y-122800000D01*
X108497000Y-115863000D02*
X109220000Y-115863000D01*
X107950000Y-115316000D02*
X108497000Y-115863000D01*
X111116000Y-122800000D02*
X110998000Y-122682000D01*
D27*
X109220000Y-113753000D02*
X110275000Y-113753000D01*
X110275000Y-113753000D02*
X113350000Y-110678000D01*
X123800000Y-128500000D02*
X123800000Y-128118000D01*
X123800000Y-128118000D02*
X119126000Y-123444000D01*
X113350000Y-111064000D02*
X113350000Y-110678000D01*
X113350000Y-110678000D02*
X113350000Y-109728000D01*
X114046000Y-111760000D02*
X113350000Y-111064000D01*
X115316000Y-111760000D02*
X114046000Y-111760000D01*
X119126000Y-115570000D02*
X115316000Y-111760000D01*
X119126000Y-123444000D02*
X119126000Y-115570000D01*
D26*
X113549300Y-122800000D02*
X113549300Y-122185300D01*
X113030000Y-121666000D02*
X109662000Y-121666000D01*
X113549300Y-122185300D02*
X113030000Y-121666000D01*
X109662000Y-121666000D02*
X109408000Y-121920000D01*
X114300000Y-122682000D02*
X113667300Y-122682000D01*
X113667300Y-122682000D02*
X113549300Y-122800000D01*
X114300000Y-122682000D02*
X114366000Y-122616000D01*
X114366000Y-122616000D02*
X115570000Y-122616000D01*
D27*
X103190000Y-121920000D02*
X103190000Y-116305000D01*
X103190000Y-116305000D02*
X103632000Y-115863000D01*
X103190000Y-123698000D02*
X103190000Y-121920000D01*
X115800000Y-144240000D02*
X113506000Y-144240000D01*
X105410000Y-123698000D02*
X103190000Y-123698000D01*
X105664000Y-123952000D02*
X105410000Y-123698000D01*
X113506000Y-144240000D02*
X111252000Y-141986000D01*
X103190000Y-124846000D02*
X103632000Y-125288000D01*
X103190000Y-123698000D02*
X103190000Y-124846000D01*
D26*
X112268000Y-125542000D02*
X112268000Y-124714000D01*
X112050700Y-118327300D02*
X112050700Y-119300000D01*
X112268000Y-118110000D02*
X112050700Y-118327300D01*
X112268000Y-124714000D02*
X112522000Y-124460000D01*
X113604000Y-116824000D02*
X113604000Y-119245300D01*
X113604000Y-119245300D02*
X113549300Y-119300000D01*
D27*
X126300000Y-128500000D02*
X126300000Y-125414000D01*
X122174000Y-116586000D02*
X121300000Y-115712000D01*
X125730000Y-116586000D02*
X122174000Y-116586000D01*
X128016000Y-118872000D02*
X125730000Y-116586000D01*
X128016000Y-123698000D02*
X128016000Y-118872000D01*
X126300000Y-125414000D02*
X128016000Y-123698000D01*
X121300000Y-115712000D02*
X121300000Y-114900000D01*
X126300000Y-133900000D02*
X126300000Y-135066000D01*
X119070000Y-138430000D02*
X115800000Y-141700000D01*
X122936000Y-138430000D02*
X119070000Y-138430000D01*
X126300000Y-135066000D02*
X122936000Y-138430000D01*
X126300000Y-128500000D02*
X126300000Y-128970000D01*
X126300000Y-128970000D02*
X125222000Y-130048000D01*
X125222000Y-130048000D02*
X125222000Y-132334000D01*
X125222000Y-132334000D02*
X126300000Y-133412000D01*
X126300000Y-133412000D02*
X126300000Y-133900000D01*
D26*
X123800000Y-109500000D02*
X123800000Y-109068000D01*
X123800000Y-109068000D02*
X121920000Y-107188000D01*
X105730000Y-108392000D02*
X105730000Y-109728000D01*
X106934000Y-107188000D02*
X105730000Y-108392000D01*
X121920000Y-107188000D02*
X106934000Y-107188000D01*
D27*
X115554000Y-132080000D02*
X119480000Y-132080000D01*
X119480000Y-132080000D02*
X121300000Y-133900000D01*
X115504000Y-136906000D02*
X115504000Y-132130000D01*
X115504000Y-132130000D02*
X115554000Y-132080000D01*
X116586000Y-109728000D02*
X116586000Y-109220000D01*
X109154000Y-108204000D02*
X107630000Y-109728000D01*
X115570000Y-108204000D02*
X109154000Y-108204000D01*
X116586000Y-109220000D02*
X115570000Y-108204000D01*
X114554000Y-114824000D02*
X114554000Y-113538000D01*
X116586000Y-109982000D02*
X116586000Y-109728000D01*
X117348000Y-110744000D02*
X116586000Y-109982000D01*
X114554000Y-113538000D02*
X114808000Y-113284000D01*
X126300000Y-109500000D02*
X126300000Y-109920000D01*
X126300000Y-109920000D02*
X124714000Y-111506000D01*
X115250000Y-109728000D02*
X116586000Y-109728000D01*
X118364000Y-111506000D02*
X116586000Y-109728000D01*
X124714000Y-111506000D02*
X118364000Y-111506000D01*
X126300000Y-108774000D02*
X126300000Y-109500000D01*
X112268000Y-128270000D02*
X112268000Y-127442000D01*
X112776000Y-128778000D02*
X112268000Y-128270000D01*
X115316000Y-127442000D02*
X112268000Y-127442000D01*
X123420000Y-144240000D02*
X123420000Y-145312000D01*
X109220000Y-138938000D02*
X104140000Y-133858000D01*
X109220000Y-145542000D02*
X109220000Y-138938000D01*
X110998000Y-147320000D02*
X109220000Y-145542000D01*
X121412000Y-147320000D02*
X110998000Y-147320000D01*
X123420000Y-145312000D02*
X121412000Y-147320000D01*
X104140000Y-133858000D02*
X103784000Y-133858000D01*
X110084000Y-133858000D02*
X103784000Y-133858000D01*
D26*
X115570000Y-120716000D02*
X116144000Y-120716000D01*
X116144000Y-120716000D02*
X116840000Y-121412000D01*
X116840000Y-124460000D02*
X115758000Y-125542000D01*
X116840000Y-121412000D02*
X116840000Y-124460000D01*
X115758000Y-125542000D02*
X115316000Y-125542000D01*
X115504000Y-116824000D02*
X115504000Y-120650000D01*
X115504000Y-120650000D02*
X115570000Y-120716000D01*
X109458000Y-127188000D02*
X109458000Y-130932000D01*
X109458000Y-130932000D02*
X110084000Y-131558000D01*
X110084000Y-131558000D02*
X112282000Y-131558000D01*
X112282000Y-131558000D02*
X112710000Y-131130000D01*
X112710000Y-131130000D02*
X113554000Y-131130000D01*
X105090000Y-121920000D02*
X107508000Y-121920000D01*
X109458000Y-125288000D02*
X109458000Y-124952000D01*
X109458000Y-124952000D02*
X107508000Y-123002000D01*
X107508000Y-123002000D02*
X107508000Y-121920000D01*
X103632000Y-127188000D02*
X106508000Y-127188000D01*
X106508000Y-127188000D02*
X107458000Y-126238000D01*
D27*
X113554000Y-133030000D02*
X113554000Y-134858000D01*
X113554000Y-134858000D02*
X112254000Y-136158000D01*
X113604000Y-136906000D02*
X113030000Y-136906000D01*
X112282000Y-136158000D02*
X112254000Y-136158000D01*
X112254000Y-136158000D02*
X110084000Y-136158000D01*
X113030000Y-136906000D02*
X112282000Y-136158000D01*
M02*
