%TF.GenerationSoftware,KiCad,Pcbnew,4.0.7*%
%TF.CreationDate,2018-07-11T12:57:16+02:00*%
%TF.ProjectId,Parkbrake_switch,5061726B6272616B655F737769746368,rev?*%
%TF.FileFunction,Legend,Top*%
%FSLAX46Y46*%
G04 Gerber Fmt 4.6, Leading zero omitted, Abs format (unit mm)*
G04 Created by KiCad (PCBNEW 4.0.7) date Wednesday 11 July 2018 12:57:16*
%MOMM*%
%LPD*%
G01*
G04 APERTURE LIST*
%ADD10C,0.100000*%
%ADD11C,0.200000*%
%ADD12C,0.150000*%
%ADD13C,0.120000*%
%ADD14C,0.010000*%
G04 APERTURE END LIST*
D10*
D11*
X101482666Y-106719714D02*
X101482666Y-107529238D01*
X101435047Y-107624476D01*
X101387428Y-107672095D01*
X101292189Y-107719714D01*
X101149332Y-107719714D01*
X101054094Y-107672095D01*
X101482666Y-107338762D02*
X101387428Y-107386381D01*
X101196951Y-107386381D01*
X101101713Y-107338762D01*
X101054094Y-107291143D01*
X101006475Y-107195905D01*
X101006475Y-106910190D01*
X101054094Y-106814952D01*
X101101713Y-106767333D01*
X101196951Y-106719714D01*
X101387428Y-106719714D01*
X101482666Y-106767333D01*
X101958856Y-107386381D02*
X101958856Y-106719714D01*
X101958856Y-106386381D02*
X101911237Y-106434000D01*
X101958856Y-106481619D01*
X102006475Y-106434000D01*
X101958856Y-106386381D01*
X101958856Y-106481619D01*
X102292189Y-106719714D02*
X102673141Y-106719714D01*
X102435046Y-106386381D02*
X102435046Y-107243524D01*
X102482665Y-107338762D01*
X102577903Y-107386381D01*
X102673141Y-107386381D01*
X103006475Y-107386381D02*
X103006475Y-106386381D01*
X103435047Y-107386381D02*
X103435047Y-106862571D01*
X103387428Y-106767333D01*
X103292190Y-106719714D01*
X103149332Y-106719714D01*
X103054094Y-106767333D01*
X103006475Y-106814952D01*
X104339809Y-106719714D02*
X104339809Y-107386381D01*
X103911237Y-106719714D02*
X103911237Y-107243524D01*
X103958856Y-107338762D01*
X104054094Y-107386381D01*
X104196952Y-107386381D01*
X104292190Y-107338762D01*
X104339809Y-107291143D01*
X104815999Y-107386381D02*
X104815999Y-106386381D01*
X104815999Y-106767333D02*
X104911237Y-106719714D01*
X105101714Y-106719714D01*
X105196952Y-106767333D01*
X105244571Y-106814952D01*
X105292190Y-106910190D01*
X105292190Y-107195905D01*
X105244571Y-107291143D01*
X105196952Y-107338762D01*
X105101714Y-107386381D01*
X104911237Y-107386381D01*
X104815999Y-107338762D01*
X105720761Y-107291143D02*
X105768380Y-107338762D01*
X105720761Y-107386381D01*
X105673142Y-107338762D01*
X105720761Y-107291143D01*
X105720761Y-107386381D01*
X106625523Y-107338762D02*
X106530285Y-107386381D01*
X106339808Y-107386381D01*
X106244570Y-107338762D01*
X106196951Y-107291143D01*
X106149332Y-107195905D01*
X106149332Y-106910190D01*
X106196951Y-106814952D01*
X106244570Y-106767333D01*
X106339808Y-106719714D01*
X106530285Y-106719714D01*
X106625523Y-106767333D01*
X107196951Y-107386381D02*
X107101713Y-107338762D01*
X107054094Y-107291143D01*
X107006475Y-107195905D01*
X107006475Y-106910190D01*
X107054094Y-106814952D01*
X107101713Y-106767333D01*
X107196951Y-106719714D01*
X107339809Y-106719714D01*
X107435047Y-106767333D01*
X107482666Y-106814952D01*
X107530285Y-106910190D01*
X107530285Y-107195905D01*
X107482666Y-107291143D01*
X107435047Y-107338762D01*
X107339809Y-107386381D01*
X107196951Y-107386381D01*
X107958856Y-107386381D02*
X107958856Y-106719714D01*
X107958856Y-106814952D02*
X108006475Y-106767333D01*
X108101713Y-106719714D01*
X108244571Y-106719714D01*
X108339809Y-106767333D01*
X108387428Y-106862571D01*
X108387428Y-107386381D01*
X108387428Y-106862571D02*
X108435047Y-106767333D01*
X108530285Y-106719714D01*
X108673142Y-106719714D01*
X108768380Y-106767333D01*
X108815999Y-106862571D01*
X108815999Y-107386381D01*
X110006475Y-106338762D02*
X109149332Y-107624476D01*
X110339808Y-107386381D02*
X110339808Y-106719714D01*
X110339808Y-106814952D02*
X110387427Y-106767333D01*
X110482665Y-106719714D01*
X110625523Y-106719714D01*
X110720761Y-106767333D01*
X110768380Y-106862571D01*
X110768380Y-107386381D01*
X110768380Y-106862571D02*
X110815999Y-106767333D01*
X110911237Y-106719714D01*
X111054094Y-106719714D01*
X111149332Y-106767333D01*
X111196951Y-106862571D01*
X111196951Y-107386381D01*
X112101713Y-106719714D02*
X112101713Y-107386381D01*
X111673141Y-106719714D02*
X111673141Y-107243524D01*
X111720760Y-107338762D01*
X111815998Y-107386381D01*
X111958856Y-107386381D01*
X112054094Y-107338762D01*
X112101713Y-107291143D01*
X112577903Y-107386381D02*
X112577903Y-106719714D01*
X112577903Y-106814952D02*
X112625522Y-106767333D01*
X112720760Y-106719714D01*
X112863618Y-106719714D01*
X112958856Y-106767333D01*
X113006475Y-106862571D01*
X113006475Y-107386381D01*
X113006475Y-106862571D02*
X113054094Y-106767333D01*
X113149332Y-106719714D01*
X113292189Y-106719714D01*
X113387427Y-106767333D01*
X113435046Y-106862571D01*
X113435046Y-107386381D01*
X113911236Y-107386381D02*
X113911236Y-106719714D01*
X113911236Y-106814952D02*
X113958855Y-106767333D01*
X114054093Y-106719714D01*
X114196951Y-106719714D01*
X114292189Y-106767333D01*
X114339808Y-106862571D01*
X114339808Y-107386381D01*
X114339808Y-106862571D02*
X114387427Y-106767333D01*
X114482665Y-106719714D01*
X114625522Y-106719714D01*
X114720760Y-106767333D01*
X114768379Y-106862571D01*
X114768379Y-107386381D01*
X115625522Y-107338762D02*
X115530284Y-107386381D01*
X115339807Y-107386381D01*
X115244569Y-107338762D01*
X115196950Y-107243524D01*
X115196950Y-106862571D01*
X115244569Y-106767333D01*
X115339807Y-106719714D01*
X115530284Y-106719714D01*
X115625522Y-106767333D01*
X115673141Y-106862571D01*
X115673141Y-106957810D01*
X115196950Y-107053048D01*
X116006474Y-106386381D02*
X116673141Y-106386381D01*
X116244569Y-107386381D01*
X117482665Y-106719714D02*
X117482665Y-107386381D01*
X117244569Y-106338762D02*
X117006474Y-107053048D01*
X117625522Y-107053048D01*
X118720760Y-106338762D02*
X117863617Y-107624476D01*
X119625522Y-107291143D02*
X119577903Y-107338762D01*
X119435046Y-107386381D01*
X119339808Y-107386381D01*
X119196950Y-107338762D01*
X119101712Y-107243524D01*
X119054093Y-107148286D01*
X119006474Y-106957810D01*
X119006474Y-106814952D01*
X119054093Y-106624476D01*
X119101712Y-106529238D01*
X119196950Y-106434000D01*
X119339808Y-106386381D01*
X119435046Y-106386381D01*
X119577903Y-106434000D01*
X119625522Y-106481619D01*
X120482665Y-107386381D02*
X120482665Y-106862571D01*
X120435046Y-106767333D01*
X120339808Y-106719714D01*
X120149331Y-106719714D01*
X120054093Y-106767333D01*
X120482665Y-107338762D02*
X120387427Y-107386381D01*
X120149331Y-107386381D01*
X120054093Y-107338762D01*
X120006474Y-107243524D01*
X120006474Y-107148286D01*
X120054093Y-107053048D01*
X120149331Y-107005429D01*
X120387427Y-107005429D01*
X120482665Y-106957810D01*
X120958855Y-107386381D02*
X120958855Y-106719714D01*
X120958855Y-106910190D02*
X121006474Y-106814952D01*
X121054093Y-106767333D01*
X121149331Y-106719714D01*
X121244570Y-106719714D01*
X121435046Y-106386381D02*
X122006475Y-106386381D01*
X121720760Y-107386381D02*
X121720760Y-106386381D01*
X122339808Y-107386381D02*
X122339808Y-106719714D01*
X122339808Y-106910190D02*
X122387427Y-106814952D01*
X122435046Y-106767333D01*
X122530284Y-106719714D01*
X122625523Y-106719714D01*
X123387428Y-107386381D02*
X123387428Y-106862571D01*
X123339809Y-106767333D01*
X123244571Y-106719714D01*
X123054094Y-106719714D01*
X122958856Y-106767333D01*
X123387428Y-107338762D02*
X123292190Y-107386381D01*
X123054094Y-107386381D01*
X122958856Y-107338762D01*
X122911237Y-107243524D01*
X122911237Y-107148286D01*
X122958856Y-107053048D01*
X123054094Y-107005429D01*
X123292190Y-107005429D01*
X123387428Y-106957810D01*
X123863618Y-106719714D02*
X123863618Y-107386381D01*
X123863618Y-106814952D02*
X123911237Y-106767333D01*
X124006475Y-106719714D01*
X124149333Y-106719714D01*
X124244571Y-106767333D01*
X124292190Y-106862571D01*
X124292190Y-107386381D01*
X124720761Y-107338762D02*
X124815999Y-107386381D01*
X125006475Y-107386381D01*
X125101714Y-107338762D01*
X125149333Y-107243524D01*
X125149333Y-107195905D01*
X125101714Y-107100667D01*
X125006475Y-107053048D01*
X124863618Y-107053048D01*
X124768380Y-107005429D01*
X124720761Y-106910190D01*
X124720761Y-106862571D01*
X124768380Y-106767333D01*
X124863618Y-106719714D01*
X125006475Y-106719714D01*
X125101714Y-106767333D01*
X125577904Y-106719714D02*
X125577904Y-107719714D01*
X125577904Y-106767333D02*
X125673142Y-106719714D01*
X125863619Y-106719714D01*
X125958857Y-106767333D01*
X126006476Y-106814952D01*
X126054095Y-106910190D01*
X126054095Y-107195905D01*
X126006476Y-107291143D01*
X125958857Y-107338762D01*
X125863619Y-107386381D01*
X125673142Y-107386381D01*
X125577904Y-107338762D01*
X126625523Y-107386381D02*
X126530285Y-107338762D01*
X126482666Y-107291143D01*
X126435047Y-107195905D01*
X126435047Y-106910190D01*
X126482666Y-106814952D01*
X126530285Y-106767333D01*
X126625523Y-106719714D01*
X126768381Y-106719714D01*
X126863619Y-106767333D01*
X126911238Y-106814952D01*
X126958857Y-106910190D01*
X126958857Y-107195905D01*
X126911238Y-107291143D01*
X126863619Y-107338762D01*
X126768381Y-107386381D01*
X126625523Y-107386381D01*
X127387428Y-107386381D02*
X127387428Y-106719714D01*
X127387428Y-106910190D02*
X127435047Y-106814952D01*
X127482666Y-106767333D01*
X127577904Y-106719714D01*
X127673143Y-106719714D01*
X127863619Y-106719714D02*
X128244571Y-106719714D01*
X128006476Y-106386381D02*
X128006476Y-107243524D01*
X128054095Y-107338762D01*
X128149333Y-107386381D01*
X128244571Y-107386381D01*
X128958858Y-107338762D02*
X128863620Y-107386381D01*
X128673143Y-107386381D01*
X128577905Y-107338762D01*
X128530286Y-107243524D01*
X128530286Y-106862571D01*
X128577905Y-106767333D01*
X128673143Y-106719714D01*
X128863620Y-106719714D01*
X128958858Y-106767333D01*
X129006477Y-106862571D01*
X129006477Y-106957810D01*
X128530286Y-107053048D01*
X129435048Y-107386381D02*
X129435048Y-106719714D01*
X129435048Y-106910190D02*
X129482667Y-106814952D01*
X129530286Y-106767333D01*
X129625524Y-106719714D01*
X129720763Y-106719714D01*
D12*
X107000000Y-148000000D02*
X129200000Y-148000000D01*
X106800000Y-147700000D02*
X107000000Y-148000000D01*
X104400000Y-147700000D02*
X106800000Y-147700000D01*
X104200000Y-148000000D02*
X104400000Y-147700000D01*
X101000000Y-148000000D02*
X104200000Y-148000000D01*
X100000000Y-147000000D02*
X100000000Y-101000000D01*
X101000000Y-148000000D02*
X100000000Y-147000000D01*
X130200000Y-147000000D02*
X129200000Y-148000000D01*
X130200000Y-101000000D02*
X130200000Y-147000000D01*
X129200000Y-100000000D02*
X130200000Y-101000000D01*
X105600000Y-100000000D02*
X129200000Y-100000000D01*
X105600000Y-101500000D02*
X105600000Y-100000000D01*
X101000000Y-100000000D02*
X100000000Y-101000000D01*
X103100000Y-101500000D02*
G75*
G03X105600000Y-101500000I1250000J0D01*
G01*
X103100000Y-100000000D02*
X103100000Y-101500000D01*
X101000000Y-100000000D02*
X103100000Y-100000000D01*
X110020000Y-116108000D02*
X110020000Y-113708000D01*
X108420000Y-116108000D02*
X108420000Y-113708000D01*
X113900000Y-122250000D02*
X112000000Y-122250000D01*
X113900000Y-123350000D02*
X112000000Y-123350000D01*
X113000000Y-122800000D02*
X112550000Y-122800000D01*
X113050000Y-123050000D02*
X113050000Y-122550000D01*
X113050000Y-122800000D02*
X112800000Y-123050000D01*
X112800000Y-123050000D02*
X112800000Y-122550000D01*
X112800000Y-122550000D02*
X113050000Y-122800000D01*
X102832000Y-113508000D02*
X102832000Y-115908000D01*
X104432000Y-113508000D02*
X104432000Y-115908000D01*
X113900000Y-118750000D02*
X112000000Y-118750000D01*
X113900000Y-119850000D02*
X112000000Y-119850000D01*
X113000000Y-119300000D02*
X112550000Y-119300000D01*
X113050000Y-119550000D02*
X113050000Y-119050000D01*
X113050000Y-119300000D02*
X112800000Y-119550000D01*
X112800000Y-119550000D02*
X112800000Y-119050000D01*
X112800000Y-119050000D02*
X113050000Y-119300000D01*
D13*
X116134000Y-115064000D02*
X115204000Y-115064000D01*
X112974000Y-115064000D02*
X113904000Y-115064000D01*
X112974000Y-115064000D02*
X112974000Y-117224000D01*
X116134000Y-115064000D02*
X116134000Y-116524000D01*
X107698000Y-124658000D02*
X107698000Y-125588000D01*
X107698000Y-127818000D02*
X107698000Y-126888000D01*
X107698000Y-127818000D02*
X109858000Y-127818000D01*
X107698000Y-124658000D02*
X109158000Y-124658000D01*
X115314000Y-133660000D02*
X115314000Y-132730000D01*
X115314000Y-130500000D02*
X115314000Y-131430000D01*
X115314000Y-130500000D02*
X113154000Y-130500000D01*
X115314000Y-133660000D02*
X113854000Y-133660000D01*
X105024000Y-130448000D02*
X105024000Y-131708000D01*
X105024000Y-137268000D02*
X105024000Y-136008000D01*
X108784000Y-130448000D02*
X105024000Y-130448000D01*
X111034000Y-137268000D02*
X105024000Y-137268000D01*
D12*
X106080000Y-108853000D02*
X107280000Y-108853000D01*
X107280000Y-110603000D02*
X106080000Y-110603000D01*
X114900000Y-110603000D02*
X113700000Y-110603000D01*
X113700000Y-108853000D02*
X114900000Y-108853000D01*
X114695000Y-122266000D02*
X114695000Y-121066000D01*
X116445000Y-121066000D02*
X116445000Y-122266000D01*
X113143000Y-125892000D02*
X113143000Y-127092000D01*
X111393000Y-127092000D02*
X111393000Y-125892000D01*
X116191000Y-125892000D02*
X116191000Y-127092000D01*
X114441000Y-127092000D02*
X114441000Y-125892000D01*
X109058000Y-122795000D02*
X107858000Y-122795000D01*
X107858000Y-121045000D02*
X109058000Y-121045000D01*
X103540000Y-121045000D02*
X104740000Y-121045000D01*
X104740000Y-122795000D02*
X103540000Y-122795000D01*
X102757000Y-126838000D02*
X102757000Y-125638000D01*
X104507000Y-125638000D02*
X104507000Y-126838000D01*
X115154000Y-137781000D02*
X113954000Y-137781000D01*
X113954000Y-136031000D02*
X115154000Y-136031000D01*
X119550000Y-115450000D02*
X119550000Y-108950000D01*
X119550000Y-108950000D02*
X128050000Y-108950000D01*
X128050000Y-108950000D02*
X128050000Y-115450000D01*
X128050000Y-115450000D02*
X119550000Y-115450000D01*
X119550000Y-134450000D02*
X119550000Y-127950000D01*
X119550000Y-127950000D02*
X128050000Y-127950000D01*
X128050000Y-127950000D02*
X128050000Y-134450000D01*
X128050000Y-134450000D02*
X119550000Y-134450000D01*
D14*
G36*
X122313744Y-105043918D02*
X122369201Y-105071568D01*
X122418148Y-105122480D01*
X122431629Y-105141338D01*
X122446314Y-105166015D01*
X122455842Y-105192816D01*
X122461293Y-105228587D01*
X122463747Y-105280169D01*
X122464286Y-105348267D01*
X122461852Y-105441588D01*
X122453394Y-105511657D01*
X122437174Y-105563931D01*
X122411454Y-105603869D01*
X122374497Y-105636929D01*
X122371782Y-105638886D01*
X122335360Y-105658908D01*
X122291502Y-105668815D01*
X122235724Y-105671257D01*
X122145048Y-105671257D01*
X122145010Y-105759283D01*
X122144166Y-105808308D01*
X122139024Y-105837065D01*
X122125587Y-105854311D01*
X122099858Y-105868808D01*
X122093679Y-105871769D01*
X122064764Y-105885648D01*
X122042376Y-105894414D01*
X122025729Y-105895171D01*
X122014036Y-105885023D01*
X122006510Y-105861073D01*
X122002366Y-105820426D01*
X122000815Y-105760186D01*
X122001071Y-105677455D01*
X122002349Y-105569339D01*
X122002748Y-105537000D01*
X122004185Y-105425524D01*
X122005472Y-105352603D01*
X122144971Y-105352603D01*
X122145755Y-105414499D01*
X122149240Y-105454997D01*
X122157124Y-105481708D01*
X122171105Y-105502244D01*
X122180597Y-105512260D01*
X122219404Y-105541567D01*
X122253763Y-105543952D01*
X122289216Y-105519750D01*
X122290114Y-105518857D01*
X122304539Y-105500153D01*
X122313313Y-105474732D01*
X122317739Y-105435584D01*
X122319118Y-105375697D01*
X122319143Y-105362430D01*
X122315812Y-105279901D01*
X122304969Y-105222691D01*
X122285340Y-105187766D01*
X122255650Y-105172094D01*
X122238491Y-105170514D01*
X122197766Y-105177926D01*
X122169832Y-105202330D01*
X122153017Y-105246980D01*
X122145650Y-105315130D01*
X122144971Y-105352603D01*
X122005472Y-105352603D01*
X122005708Y-105339245D01*
X122007677Y-105274333D01*
X122010450Y-105226958D01*
X122014388Y-105193290D01*
X122019849Y-105169498D01*
X122027192Y-105151753D01*
X122036777Y-105136224D01*
X122040887Y-105130381D01*
X122095405Y-105075185D01*
X122164336Y-105043890D01*
X122244072Y-105035165D01*
X122313744Y-105043918D01*
X122313744Y-105043918D01*
G37*
X122313744Y-105043918D02*
X122369201Y-105071568D01*
X122418148Y-105122480D01*
X122431629Y-105141338D01*
X122446314Y-105166015D01*
X122455842Y-105192816D01*
X122461293Y-105228587D01*
X122463747Y-105280169D01*
X122464286Y-105348267D01*
X122461852Y-105441588D01*
X122453394Y-105511657D01*
X122437174Y-105563931D01*
X122411454Y-105603869D01*
X122374497Y-105636929D01*
X122371782Y-105638886D01*
X122335360Y-105658908D01*
X122291502Y-105668815D01*
X122235724Y-105671257D01*
X122145048Y-105671257D01*
X122145010Y-105759283D01*
X122144166Y-105808308D01*
X122139024Y-105837065D01*
X122125587Y-105854311D01*
X122099858Y-105868808D01*
X122093679Y-105871769D01*
X122064764Y-105885648D01*
X122042376Y-105894414D01*
X122025729Y-105895171D01*
X122014036Y-105885023D01*
X122006510Y-105861073D01*
X122002366Y-105820426D01*
X122000815Y-105760186D01*
X122001071Y-105677455D01*
X122002349Y-105569339D01*
X122002748Y-105537000D01*
X122004185Y-105425524D01*
X122005472Y-105352603D01*
X122144971Y-105352603D01*
X122145755Y-105414499D01*
X122149240Y-105454997D01*
X122157124Y-105481708D01*
X122171105Y-105502244D01*
X122180597Y-105512260D01*
X122219404Y-105541567D01*
X122253763Y-105543952D01*
X122289216Y-105519750D01*
X122290114Y-105518857D01*
X122304539Y-105500153D01*
X122313313Y-105474732D01*
X122317739Y-105435584D01*
X122319118Y-105375697D01*
X122319143Y-105362430D01*
X122315812Y-105279901D01*
X122304969Y-105222691D01*
X122285340Y-105187766D01*
X122255650Y-105172094D01*
X122238491Y-105170514D01*
X122197766Y-105177926D01*
X122169832Y-105202330D01*
X122153017Y-105246980D01*
X122145650Y-105315130D01*
X122144971Y-105352603D01*
X122005472Y-105352603D01*
X122005708Y-105339245D01*
X122007677Y-105274333D01*
X122010450Y-105226958D01*
X122014388Y-105193290D01*
X122019849Y-105169498D01*
X122027192Y-105151753D01*
X122036777Y-105136224D01*
X122040887Y-105130381D01*
X122095405Y-105075185D01*
X122164336Y-105043890D01*
X122244072Y-105035165D01*
X122313744Y-105043918D01*
G36*
X123430093Y-105051780D02*
X123476672Y-105078723D01*
X123509057Y-105105466D01*
X123532742Y-105133484D01*
X123549059Y-105167748D01*
X123559339Y-105213227D01*
X123564914Y-105274892D01*
X123567116Y-105357711D01*
X123567371Y-105417246D01*
X123567371Y-105636391D01*
X123505686Y-105664044D01*
X123444000Y-105691697D01*
X123436743Y-105451670D01*
X123433744Y-105362028D01*
X123430598Y-105296962D01*
X123426701Y-105252026D01*
X123421447Y-105222770D01*
X123414231Y-105204748D01*
X123404450Y-105193511D01*
X123401312Y-105191079D01*
X123353761Y-105172083D01*
X123305697Y-105179600D01*
X123277086Y-105199543D01*
X123265447Y-105213675D01*
X123257391Y-105232220D01*
X123252271Y-105260334D01*
X123249441Y-105303173D01*
X123248256Y-105365895D01*
X123248057Y-105431261D01*
X123248018Y-105513268D01*
X123246614Y-105571316D01*
X123241914Y-105610465D01*
X123231987Y-105635780D01*
X123214903Y-105652323D01*
X123188732Y-105665156D01*
X123153775Y-105678491D01*
X123115596Y-105693007D01*
X123120141Y-105435389D01*
X123121971Y-105342519D01*
X123124112Y-105273889D01*
X123127181Y-105224711D01*
X123131794Y-105190198D01*
X123138568Y-105165562D01*
X123148119Y-105146016D01*
X123159634Y-105128770D01*
X123215190Y-105073680D01*
X123282980Y-105041822D01*
X123356713Y-105034191D01*
X123430093Y-105051780D01*
X123430093Y-105051780D01*
G37*
X123430093Y-105051780D02*
X123476672Y-105078723D01*
X123509057Y-105105466D01*
X123532742Y-105133484D01*
X123549059Y-105167748D01*
X123559339Y-105213227D01*
X123564914Y-105274892D01*
X123567116Y-105357711D01*
X123567371Y-105417246D01*
X123567371Y-105636391D01*
X123505686Y-105664044D01*
X123444000Y-105691697D01*
X123436743Y-105451670D01*
X123433744Y-105362028D01*
X123430598Y-105296962D01*
X123426701Y-105252026D01*
X123421447Y-105222770D01*
X123414231Y-105204748D01*
X123404450Y-105193511D01*
X123401312Y-105191079D01*
X123353761Y-105172083D01*
X123305697Y-105179600D01*
X123277086Y-105199543D01*
X123265447Y-105213675D01*
X123257391Y-105232220D01*
X123252271Y-105260334D01*
X123249441Y-105303173D01*
X123248256Y-105365895D01*
X123248057Y-105431261D01*
X123248018Y-105513268D01*
X123246614Y-105571316D01*
X123241914Y-105610465D01*
X123231987Y-105635780D01*
X123214903Y-105652323D01*
X123188732Y-105665156D01*
X123153775Y-105678491D01*
X123115596Y-105693007D01*
X123120141Y-105435389D01*
X123121971Y-105342519D01*
X123124112Y-105273889D01*
X123127181Y-105224711D01*
X123131794Y-105190198D01*
X123138568Y-105165562D01*
X123148119Y-105146016D01*
X123159634Y-105128770D01*
X123215190Y-105073680D01*
X123282980Y-105041822D01*
X123356713Y-105034191D01*
X123430093Y-105051780D01*
G36*
X121755115Y-105045962D02*
X121823145Y-105081733D01*
X121873351Y-105139301D01*
X121891185Y-105176312D01*
X121905063Y-105231882D01*
X121912167Y-105302096D01*
X121912840Y-105378727D01*
X121907427Y-105453552D01*
X121896270Y-105518342D01*
X121879714Y-105564873D01*
X121874626Y-105572887D01*
X121814355Y-105632707D01*
X121742769Y-105668535D01*
X121665092Y-105679020D01*
X121586548Y-105662810D01*
X121564689Y-105653092D01*
X121522122Y-105623143D01*
X121484763Y-105583433D01*
X121481232Y-105578397D01*
X121466881Y-105554124D01*
X121457394Y-105528178D01*
X121451790Y-105494022D01*
X121449086Y-105445119D01*
X121448299Y-105374935D01*
X121448286Y-105359200D01*
X121448322Y-105354192D01*
X121593429Y-105354192D01*
X121594273Y-105420430D01*
X121597596Y-105464386D01*
X121604583Y-105492779D01*
X121616416Y-105512325D01*
X121622457Y-105518857D01*
X121657186Y-105543680D01*
X121690903Y-105542548D01*
X121724995Y-105521016D01*
X121745329Y-105498029D01*
X121757371Y-105464478D01*
X121764134Y-105411569D01*
X121764598Y-105405399D01*
X121765752Y-105309513D01*
X121753688Y-105238299D01*
X121728570Y-105192194D01*
X121690560Y-105171635D01*
X121676992Y-105170514D01*
X121641364Y-105176152D01*
X121616994Y-105195686D01*
X121602093Y-105233042D01*
X121594875Y-105292150D01*
X121593429Y-105354192D01*
X121448322Y-105354192D01*
X121448826Y-105284413D01*
X121451096Y-105232159D01*
X121456068Y-105195949D01*
X121464713Y-105169299D01*
X121478005Y-105145722D01*
X121480943Y-105141338D01*
X121530313Y-105082249D01*
X121584109Y-105047947D01*
X121649602Y-105034331D01*
X121671842Y-105033665D01*
X121755115Y-105045962D01*
X121755115Y-105045962D01*
G37*
X121755115Y-105045962D02*
X121823145Y-105081733D01*
X121873351Y-105139301D01*
X121891185Y-105176312D01*
X121905063Y-105231882D01*
X121912167Y-105302096D01*
X121912840Y-105378727D01*
X121907427Y-105453552D01*
X121896270Y-105518342D01*
X121879714Y-105564873D01*
X121874626Y-105572887D01*
X121814355Y-105632707D01*
X121742769Y-105668535D01*
X121665092Y-105679020D01*
X121586548Y-105662810D01*
X121564689Y-105653092D01*
X121522122Y-105623143D01*
X121484763Y-105583433D01*
X121481232Y-105578397D01*
X121466881Y-105554124D01*
X121457394Y-105528178D01*
X121451790Y-105494022D01*
X121449086Y-105445119D01*
X121448299Y-105374935D01*
X121448286Y-105359200D01*
X121448322Y-105354192D01*
X121593429Y-105354192D01*
X121594273Y-105420430D01*
X121597596Y-105464386D01*
X121604583Y-105492779D01*
X121616416Y-105512325D01*
X121622457Y-105518857D01*
X121657186Y-105543680D01*
X121690903Y-105542548D01*
X121724995Y-105521016D01*
X121745329Y-105498029D01*
X121757371Y-105464478D01*
X121764134Y-105411569D01*
X121764598Y-105405399D01*
X121765752Y-105309513D01*
X121753688Y-105238299D01*
X121728570Y-105192194D01*
X121690560Y-105171635D01*
X121676992Y-105170514D01*
X121641364Y-105176152D01*
X121616994Y-105195686D01*
X121602093Y-105233042D01*
X121594875Y-105292150D01*
X121593429Y-105354192D01*
X121448322Y-105354192D01*
X121448826Y-105284413D01*
X121451096Y-105232159D01*
X121456068Y-105195949D01*
X121464713Y-105169299D01*
X121478005Y-105145722D01*
X121480943Y-105141338D01*
X121530313Y-105082249D01*
X121584109Y-105047947D01*
X121649602Y-105034331D01*
X121671842Y-105033665D01*
X121755115Y-105045962D01*
G36*
X122882303Y-105055239D02*
X122939527Y-105093735D01*
X122983749Y-105149335D01*
X123010167Y-105220086D01*
X123015510Y-105272162D01*
X123014903Y-105293893D01*
X123009822Y-105310531D01*
X122995855Y-105325437D01*
X122968589Y-105341973D01*
X122923612Y-105363498D01*
X122856511Y-105393374D01*
X122856171Y-105393524D01*
X122794407Y-105421813D01*
X122743759Y-105446933D01*
X122709404Y-105466179D01*
X122696518Y-105476848D01*
X122696514Y-105476934D01*
X122707872Y-105500166D01*
X122734431Y-105525774D01*
X122764923Y-105544221D01*
X122780370Y-105547886D01*
X122822515Y-105535212D01*
X122858808Y-105503471D01*
X122876517Y-105468572D01*
X122893552Y-105442845D01*
X122926922Y-105413546D01*
X122966149Y-105388235D01*
X123000756Y-105374471D01*
X123007993Y-105373714D01*
X123016139Y-105386160D01*
X123016630Y-105417972D01*
X123010643Y-105460866D01*
X122999357Y-105506558D01*
X122983950Y-105546761D01*
X122983171Y-105548322D01*
X122936804Y-105613062D01*
X122876711Y-105657097D01*
X122808465Y-105678711D01*
X122737638Y-105676185D01*
X122669804Y-105647804D01*
X122666788Y-105645808D01*
X122613427Y-105597448D01*
X122578340Y-105534352D01*
X122558922Y-105451387D01*
X122556316Y-105428078D01*
X122551701Y-105318055D01*
X122557233Y-105266748D01*
X122696514Y-105266748D01*
X122698324Y-105298753D01*
X122708222Y-105308093D01*
X122732898Y-105301105D01*
X122771795Y-105284587D01*
X122815275Y-105263881D01*
X122816356Y-105263333D01*
X122853209Y-105243949D01*
X122868000Y-105231013D01*
X122864353Y-105217451D01*
X122848995Y-105199632D01*
X122809923Y-105173845D01*
X122767846Y-105171950D01*
X122730103Y-105190717D01*
X122704034Y-105226915D01*
X122696514Y-105266748D01*
X122557233Y-105266748D01*
X122561194Y-105230027D01*
X122585550Y-105160212D01*
X122619456Y-105111302D01*
X122680653Y-105061878D01*
X122748063Y-105037359D01*
X122816880Y-105035797D01*
X122882303Y-105055239D01*
X122882303Y-105055239D01*
G37*
X122882303Y-105055239D02*
X122939527Y-105093735D01*
X122983749Y-105149335D01*
X123010167Y-105220086D01*
X123015510Y-105272162D01*
X123014903Y-105293893D01*
X123009822Y-105310531D01*
X122995855Y-105325437D01*
X122968589Y-105341973D01*
X122923612Y-105363498D01*
X122856511Y-105393374D01*
X122856171Y-105393524D01*
X122794407Y-105421813D01*
X122743759Y-105446933D01*
X122709404Y-105466179D01*
X122696518Y-105476848D01*
X122696514Y-105476934D01*
X122707872Y-105500166D01*
X122734431Y-105525774D01*
X122764923Y-105544221D01*
X122780370Y-105547886D01*
X122822515Y-105535212D01*
X122858808Y-105503471D01*
X122876517Y-105468572D01*
X122893552Y-105442845D01*
X122926922Y-105413546D01*
X122966149Y-105388235D01*
X123000756Y-105374471D01*
X123007993Y-105373714D01*
X123016139Y-105386160D01*
X123016630Y-105417972D01*
X123010643Y-105460866D01*
X122999357Y-105506558D01*
X122983950Y-105546761D01*
X122983171Y-105548322D01*
X122936804Y-105613062D01*
X122876711Y-105657097D01*
X122808465Y-105678711D01*
X122737638Y-105676185D01*
X122669804Y-105647804D01*
X122666788Y-105645808D01*
X122613427Y-105597448D01*
X122578340Y-105534352D01*
X122558922Y-105451387D01*
X122556316Y-105428078D01*
X122551701Y-105318055D01*
X122557233Y-105266748D01*
X122696514Y-105266748D01*
X122698324Y-105298753D01*
X122708222Y-105308093D01*
X122732898Y-105301105D01*
X122771795Y-105284587D01*
X122815275Y-105263881D01*
X122816356Y-105263333D01*
X122853209Y-105243949D01*
X122868000Y-105231013D01*
X122864353Y-105217451D01*
X122848995Y-105199632D01*
X122809923Y-105173845D01*
X122767846Y-105171950D01*
X122730103Y-105190717D01*
X122704034Y-105226915D01*
X122696514Y-105266748D01*
X122557233Y-105266748D01*
X122561194Y-105230027D01*
X122585550Y-105160212D01*
X122619456Y-105111302D01*
X122680653Y-105061878D01*
X122748063Y-105037359D01*
X122816880Y-105035797D01*
X122882303Y-105055239D01*
G36*
X124089886Y-104975289D02*
X124094139Y-105034613D01*
X124099025Y-105069572D01*
X124105795Y-105084820D01*
X124115702Y-105085015D01*
X124118914Y-105083195D01*
X124161644Y-105070015D01*
X124217227Y-105070785D01*
X124273737Y-105084333D01*
X124309082Y-105101861D01*
X124345321Y-105129861D01*
X124371813Y-105161549D01*
X124389999Y-105201813D01*
X124401322Y-105255543D01*
X124407222Y-105327626D01*
X124409143Y-105422951D01*
X124409177Y-105441237D01*
X124409200Y-105646646D01*
X124363491Y-105662580D01*
X124331027Y-105673420D01*
X124313215Y-105678468D01*
X124312691Y-105678514D01*
X124310937Y-105664828D01*
X124309444Y-105627076D01*
X124308326Y-105570224D01*
X124307697Y-105499234D01*
X124307600Y-105456073D01*
X124307398Y-105370973D01*
X124306358Y-105309981D01*
X124303831Y-105268177D01*
X124299164Y-105240642D01*
X124291707Y-105222456D01*
X124280811Y-105208698D01*
X124274007Y-105202073D01*
X124227272Y-105175375D01*
X124176272Y-105173375D01*
X124130001Y-105195955D01*
X124121444Y-105204107D01*
X124108893Y-105219436D01*
X124100188Y-105237618D01*
X124094631Y-105263909D01*
X124091526Y-105303562D01*
X124090176Y-105361832D01*
X124089886Y-105442173D01*
X124089886Y-105646646D01*
X124044177Y-105662580D01*
X124011713Y-105673420D01*
X123993901Y-105678468D01*
X123993377Y-105678514D01*
X123992037Y-105664623D01*
X123990828Y-105625439D01*
X123989801Y-105564700D01*
X123989002Y-105486141D01*
X123988481Y-105393498D01*
X123988286Y-105290509D01*
X123988286Y-104893342D01*
X124035457Y-104873444D01*
X124082629Y-104853547D01*
X124089886Y-104975289D01*
X124089886Y-104975289D01*
G37*
X124089886Y-104975289D02*
X124094139Y-105034613D01*
X124099025Y-105069572D01*
X124105795Y-105084820D01*
X124115702Y-105085015D01*
X124118914Y-105083195D01*
X124161644Y-105070015D01*
X124217227Y-105070785D01*
X124273737Y-105084333D01*
X124309082Y-105101861D01*
X124345321Y-105129861D01*
X124371813Y-105161549D01*
X124389999Y-105201813D01*
X124401322Y-105255543D01*
X124407222Y-105327626D01*
X124409143Y-105422951D01*
X124409177Y-105441237D01*
X124409200Y-105646646D01*
X124363491Y-105662580D01*
X124331027Y-105673420D01*
X124313215Y-105678468D01*
X124312691Y-105678514D01*
X124310937Y-105664828D01*
X124309444Y-105627076D01*
X124308326Y-105570224D01*
X124307697Y-105499234D01*
X124307600Y-105456073D01*
X124307398Y-105370973D01*
X124306358Y-105309981D01*
X124303831Y-105268177D01*
X124299164Y-105240642D01*
X124291707Y-105222456D01*
X124280811Y-105208698D01*
X124274007Y-105202073D01*
X124227272Y-105175375D01*
X124176272Y-105173375D01*
X124130001Y-105195955D01*
X124121444Y-105204107D01*
X124108893Y-105219436D01*
X124100188Y-105237618D01*
X124094631Y-105263909D01*
X124091526Y-105303562D01*
X124090176Y-105361832D01*
X124089886Y-105442173D01*
X124089886Y-105646646D01*
X124044177Y-105662580D01*
X124011713Y-105673420D01*
X123993901Y-105678468D01*
X123993377Y-105678514D01*
X123992037Y-105664623D01*
X123990828Y-105625439D01*
X123989801Y-105564700D01*
X123989002Y-105486141D01*
X123988481Y-105393498D01*
X123988286Y-105290509D01*
X123988286Y-104893342D01*
X124035457Y-104873444D01*
X124082629Y-104853547D01*
X124089886Y-104975289D01*
G36*
X124753744Y-105074968D02*
X124810616Y-105096087D01*
X124811267Y-105096493D01*
X124846440Y-105122380D01*
X124872407Y-105152633D01*
X124890670Y-105192058D01*
X124902732Y-105245462D01*
X124910096Y-105317651D01*
X124914264Y-105413432D01*
X124914629Y-105427078D01*
X124919876Y-105632842D01*
X124875716Y-105655678D01*
X124843763Y-105671110D01*
X124824470Y-105678423D01*
X124823578Y-105678514D01*
X124820239Y-105665022D01*
X124817587Y-105628626D01*
X124815956Y-105575452D01*
X124815600Y-105532393D01*
X124815592Y-105462641D01*
X124812403Y-105418837D01*
X124801288Y-105397944D01*
X124777501Y-105396925D01*
X124736296Y-105412741D01*
X124674086Y-105441815D01*
X124628341Y-105465963D01*
X124604813Y-105486913D01*
X124597896Y-105509747D01*
X124597886Y-105510877D01*
X124609299Y-105550212D01*
X124643092Y-105571462D01*
X124694809Y-105574539D01*
X124732061Y-105574006D01*
X124751703Y-105584735D01*
X124763952Y-105610505D01*
X124771002Y-105643337D01*
X124760842Y-105661966D01*
X124757017Y-105664632D01*
X124721001Y-105675340D01*
X124670566Y-105676856D01*
X124618626Y-105669759D01*
X124581822Y-105656788D01*
X124530938Y-105613585D01*
X124502014Y-105553446D01*
X124496286Y-105506462D01*
X124500657Y-105464082D01*
X124516475Y-105429488D01*
X124547797Y-105398763D01*
X124598678Y-105367990D01*
X124673176Y-105333252D01*
X124677714Y-105331288D01*
X124744821Y-105300287D01*
X124786232Y-105274862D01*
X124803981Y-105252014D01*
X124800107Y-105228745D01*
X124776643Y-105202056D01*
X124769627Y-105195914D01*
X124722630Y-105172100D01*
X124673933Y-105173103D01*
X124631522Y-105196451D01*
X124603384Y-105239675D01*
X124600769Y-105248160D01*
X124575308Y-105289308D01*
X124543001Y-105309128D01*
X124496286Y-105328770D01*
X124496286Y-105277950D01*
X124510496Y-105204082D01*
X124552675Y-105136327D01*
X124574624Y-105113661D01*
X124624517Y-105084569D01*
X124687967Y-105071400D01*
X124753744Y-105074968D01*
X124753744Y-105074968D01*
G37*
X124753744Y-105074968D02*
X124810616Y-105096087D01*
X124811267Y-105096493D01*
X124846440Y-105122380D01*
X124872407Y-105152633D01*
X124890670Y-105192058D01*
X124902732Y-105245462D01*
X124910096Y-105317651D01*
X124914264Y-105413432D01*
X124914629Y-105427078D01*
X124919876Y-105632842D01*
X124875716Y-105655678D01*
X124843763Y-105671110D01*
X124824470Y-105678423D01*
X124823578Y-105678514D01*
X124820239Y-105665022D01*
X124817587Y-105628626D01*
X124815956Y-105575452D01*
X124815600Y-105532393D01*
X124815592Y-105462641D01*
X124812403Y-105418837D01*
X124801288Y-105397944D01*
X124777501Y-105396925D01*
X124736296Y-105412741D01*
X124674086Y-105441815D01*
X124628341Y-105465963D01*
X124604813Y-105486913D01*
X124597896Y-105509747D01*
X124597886Y-105510877D01*
X124609299Y-105550212D01*
X124643092Y-105571462D01*
X124694809Y-105574539D01*
X124732061Y-105574006D01*
X124751703Y-105584735D01*
X124763952Y-105610505D01*
X124771002Y-105643337D01*
X124760842Y-105661966D01*
X124757017Y-105664632D01*
X124721001Y-105675340D01*
X124670566Y-105676856D01*
X124618626Y-105669759D01*
X124581822Y-105656788D01*
X124530938Y-105613585D01*
X124502014Y-105553446D01*
X124496286Y-105506462D01*
X124500657Y-105464082D01*
X124516475Y-105429488D01*
X124547797Y-105398763D01*
X124598678Y-105367990D01*
X124673176Y-105333252D01*
X124677714Y-105331288D01*
X124744821Y-105300287D01*
X124786232Y-105274862D01*
X124803981Y-105252014D01*
X124800107Y-105228745D01*
X124776643Y-105202056D01*
X124769627Y-105195914D01*
X124722630Y-105172100D01*
X124673933Y-105173103D01*
X124631522Y-105196451D01*
X124603384Y-105239675D01*
X124600769Y-105248160D01*
X124575308Y-105289308D01*
X124543001Y-105309128D01*
X124496286Y-105328770D01*
X124496286Y-105277950D01*
X124510496Y-105204082D01*
X124552675Y-105136327D01*
X124574624Y-105113661D01*
X124624517Y-105084569D01*
X124687967Y-105071400D01*
X124753744Y-105074968D01*
G36*
X125243926Y-105073755D02*
X125309858Y-105098084D01*
X125363273Y-105141117D01*
X125384164Y-105171409D01*
X125406939Y-105226994D01*
X125406466Y-105267186D01*
X125382562Y-105294217D01*
X125373717Y-105298813D01*
X125335530Y-105313144D01*
X125316028Y-105309472D01*
X125309422Y-105285407D01*
X125309086Y-105272114D01*
X125296992Y-105223210D01*
X125265471Y-105188999D01*
X125221659Y-105172476D01*
X125172695Y-105176634D01*
X125132894Y-105198227D01*
X125119450Y-105210544D01*
X125109921Y-105225487D01*
X125103485Y-105248075D01*
X125099317Y-105283328D01*
X125096597Y-105336266D01*
X125094502Y-105411907D01*
X125093960Y-105435857D01*
X125091981Y-105517790D01*
X125089731Y-105575455D01*
X125086357Y-105613608D01*
X125081006Y-105637004D01*
X125072824Y-105650398D01*
X125060959Y-105658545D01*
X125053362Y-105662144D01*
X125021102Y-105674452D01*
X125002111Y-105678514D01*
X124995836Y-105664948D01*
X124992006Y-105623934D01*
X124990600Y-105554999D01*
X124991598Y-105457669D01*
X124991908Y-105442657D01*
X124994101Y-105353859D01*
X124996693Y-105289019D01*
X125000382Y-105243067D01*
X125005864Y-105210935D01*
X125013835Y-105187553D01*
X125024993Y-105167852D01*
X125030830Y-105159410D01*
X125064296Y-105122057D01*
X125101727Y-105093003D01*
X125106309Y-105090467D01*
X125173426Y-105070443D01*
X125243926Y-105073755D01*
X125243926Y-105073755D01*
G37*
X125243926Y-105073755D02*
X125309858Y-105098084D01*
X125363273Y-105141117D01*
X125384164Y-105171409D01*
X125406939Y-105226994D01*
X125406466Y-105267186D01*
X125382562Y-105294217D01*
X125373717Y-105298813D01*
X125335530Y-105313144D01*
X125316028Y-105309472D01*
X125309422Y-105285407D01*
X125309086Y-105272114D01*
X125296992Y-105223210D01*
X125265471Y-105188999D01*
X125221659Y-105172476D01*
X125172695Y-105176634D01*
X125132894Y-105198227D01*
X125119450Y-105210544D01*
X125109921Y-105225487D01*
X125103485Y-105248075D01*
X125099317Y-105283328D01*
X125096597Y-105336266D01*
X125094502Y-105411907D01*
X125093960Y-105435857D01*
X125091981Y-105517790D01*
X125089731Y-105575455D01*
X125086357Y-105613608D01*
X125081006Y-105637004D01*
X125072824Y-105650398D01*
X125060959Y-105658545D01*
X125053362Y-105662144D01*
X125021102Y-105674452D01*
X125002111Y-105678514D01*
X124995836Y-105664948D01*
X124992006Y-105623934D01*
X124990600Y-105554999D01*
X124991598Y-105457669D01*
X124991908Y-105442657D01*
X124994101Y-105353859D01*
X124996693Y-105289019D01*
X125000382Y-105243067D01*
X125005864Y-105210935D01*
X125013835Y-105187553D01*
X125024993Y-105167852D01*
X125030830Y-105159410D01*
X125064296Y-105122057D01*
X125101727Y-105093003D01*
X125106309Y-105090467D01*
X125173426Y-105070443D01*
X125243926Y-105073755D01*
G36*
X125904117Y-105189358D02*
X125903933Y-105297837D01*
X125903219Y-105381287D01*
X125901675Y-105443704D01*
X125899001Y-105489085D01*
X125894894Y-105521429D01*
X125889055Y-105544733D01*
X125881182Y-105562995D01*
X125875221Y-105573418D01*
X125825855Y-105629945D01*
X125763264Y-105665377D01*
X125694013Y-105678090D01*
X125624668Y-105666463D01*
X125583375Y-105645568D01*
X125540025Y-105609422D01*
X125510481Y-105565276D01*
X125492655Y-105507462D01*
X125484463Y-105430313D01*
X125483302Y-105373714D01*
X125483458Y-105369647D01*
X125584857Y-105369647D01*
X125585476Y-105434550D01*
X125588314Y-105477514D01*
X125594840Y-105505622D01*
X125606523Y-105525953D01*
X125620483Y-105541288D01*
X125667365Y-105570890D01*
X125717701Y-105573419D01*
X125765276Y-105548705D01*
X125768979Y-105545356D01*
X125784783Y-105527935D01*
X125794693Y-105507209D01*
X125800058Y-105476362D01*
X125802228Y-105428577D01*
X125802571Y-105375748D01*
X125801827Y-105309381D01*
X125798748Y-105265106D01*
X125792061Y-105236009D01*
X125780496Y-105215173D01*
X125771013Y-105204107D01*
X125726960Y-105176198D01*
X125676224Y-105172843D01*
X125627796Y-105194159D01*
X125618450Y-105202073D01*
X125602540Y-105219647D01*
X125592610Y-105240587D01*
X125587278Y-105271782D01*
X125585163Y-105320122D01*
X125584857Y-105369647D01*
X125483458Y-105369647D01*
X125486810Y-105282568D01*
X125498726Y-105214086D01*
X125521135Y-105162600D01*
X125556124Y-105122443D01*
X125583375Y-105101861D01*
X125632907Y-105079625D01*
X125690316Y-105069304D01*
X125743682Y-105072067D01*
X125773543Y-105083212D01*
X125785261Y-105086383D01*
X125793037Y-105074557D01*
X125798465Y-105042866D01*
X125802571Y-104994593D01*
X125807067Y-104940829D01*
X125813313Y-104908482D01*
X125824676Y-104889985D01*
X125844528Y-104877770D01*
X125857000Y-104872362D01*
X125904171Y-104852601D01*
X125904117Y-105189358D01*
X125904117Y-105189358D01*
G37*
X125904117Y-105189358D02*
X125903933Y-105297837D01*
X125903219Y-105381287D01*
X125901675Y-105443704D01*
X125899001Y-105489085D01*
X125894894Y-105521429D01*
X125889055Y-105544733D01*
X125881182Y-105562995D01*
X125875221Y-105573418D01*
X125825855Y-105629945D01*
X125763264Y-105665377D01*
X125694013Y-105678090D01*
X125624668Y-105666463D01*
X125583375Y-105645568D01*
X125540025Y-105609422D01*
X125510481Y-105565276D01*
X125492655Y-105507462D01*
X125484463Y-105430313D01*
X125483302Y-105373714D01*
X125483458Y-105369647D01*
X125584857Y-105369647D01*
X125585476Y-105434550D01*
X125588314Y-105477514D01*
X125594840Y-105505622D01*
X125606523Y-105525953D01*
X125620483Y-105541288D01*
X125667365Y-105570890D01*
X125717701Y-105573419D01*
X125765276Y-105548705D01*
X125768979Y-105545356D01*
X125784783Y-105527935D01*
X125794693Y-105507209D01*
X125800058Y-105476362D01*
X125802228Y-105428577D01*
X125802571Y-105375748D01*
X125801827Y-105309381D01*
X125798748Y-105265106D01*
X125792061Y-105236009D01*
X125780496Y-105215173D01*
X125771013Y-105204107D01*
X125726960Y-105176198D01*
X125676224Y-105172843D01*
X125627796Y-105194159D01*
X125618450Y-105202073D01*
X125602540Y-105219647D01*
X125592610Y-105240587D01*
X125587278Y-105271782D01*
X125585163Y-105320122D01*
X125584857Y-105369647D01*
X125483458Y-105369647D01*
X125486810Y-105282568D01*
X125498726Y-105214086D01*
X125521135Y-105162600D01*
X125556124Y-105122443D01*
X125583375Y-105101861D01*
X125632907Y-105079625D01*
X125690316Y-105069304D01*
X125743682Y-105072067D01*
X125773543Y-105083212D01*
X125785261Y-105086383D01*
X125793037Y-105074557D01*
X125798465Y-105042866D01*
X125802571Y-104994593D01*
X125807067Y-104940829D01*
X125813313Y-104908482D01*
X125824676Y-104889985D01*
X125844528Y-104877770D01*
X125857000Y-104872362D01*
X125904171Y-104852601D01*
X125904117Y-105189358D01*
G36*
X126493833Y-105082663D02*
X126496048Y-105120850D01*
X126497784Y-105178886D01*
X126498899Y-105252180D01*
X126499257Y-105329055D01*
X126499257Y-105589196D01*
X126453326Y-105635127D01*
X126421675Y-105663429D01*
X126393890Y-105674893D01*
X126355915Y-105674168D01*
X126340840Y-105672321D01*
X126293726Y-105666948D01*
X126254756Y-105663869D01*
X126245257Y-105663585D01*
X126213233Y-105665445D01*
X126167432Y-105670114D01*
X126149674Y-105672321D01*
X126106057Y-105675735D01*
X126076745Y-105668320D01*
X126047680Y-105645427D01*
X126037188Y-105635127D01*
X125991257Y-105589196D01*
X125991257Y-105102602D01*
X126028226Y-105085758D01*
X126060059Y-105073282D01*
X126078683Y-105068914D01*
X126083458Y-105082718D01*
X126087921Y-105121286D01*
X126091775Y-105180356D01*
X126094722Y-105255663D01*
X126096143Y-105319286D01*
X126100114Y-105569657D01*
X126134759Y-105574556D01*
X126166268Y-105571131D01*
X126181708Y-105560041D01*
X126186023Y-105539308D01*
X126189708Y-105495145D01*
X126192469Y-105433146D01*
X126194012Y-105358909D01*
X126194235Y-105320706D01*
X126194457Y-105100783D01*
X126240166Y-105084849D01*
X126272518Y-105074015D01*
X126290115Y-105068962D01*
X126290623Y-105068914D01*
X126292388Y-105082648D01*
X126294329Y-105120730D01*
X126296282Y-105178482D01*
X126298084Y-105251227D01*
X126299343Y-105319286D01*
X126303314Y-105569657D01*
X126390400Y-105569657D01*
X126394396Y-105341240D01*
X126398392Y-105112822D01*
X126440847Y-105090868D01*
X126472192Y-105075793D01*
X126490744Y-105068951D01*
X126491279Y-105068914D01*
X126493833Y-105082663D01*
X126493833Y-105082663D01*
G37*
X126493833Y-105082663D02*
X126496048Y-105120850D01*
X126497784Y-105178886D01*
X126498899Y-105252180D01*
X126499257Y-105329055D01*
X126499257Y-105589196D01*
X126453326Y-105635127D01*
X126421675Y-105663429D01*
X126393890Y-105674893D01*
X126355915Y-105674168D01*
X126340840Y-105672321D01*
X126293726Y-105666948D01*
X126254756Y-105663869D01*
X126245257Y-105663585D01*
X126213233Y-105665445D01*
X126167432Y-105670114D01*
X126149674Y-105672321D01*
X126106057Y-105675735D01*
X126076745Y-105668320D01*
X126047680Y-105645427D01*
X126037188Y-105635127D01*
X125991257Y-105589196D01*
X125991257Y-105102602D01*
X126028226Y-105085758D01*
X126060059Y-105073282D01*
X126078683Y-105068914D01*
X126083458Y-105082718D01*
X126087921Y-105121286D01*
X126091775Y-105180356D01*
X126094722Y-105255663D01*
X126096143Y-105319286D01*
X126100114Y-105569657D01*
X126134759Y-105574556D01*
X126166268Y-105571131D01*
X126181708Y-105560041D01*
X126186023Y-105539308D01*
X126189708Y-105495145D01*
X126192469Y-105433146D01*
X126194012Y-105358909D01*
X126194235Y-105320706D01*
X126194457Y-105100783D01*
X126240166Y-105084849D01*
X126272518Y-105074015D01*
X126290115Y-105068962D01*
X126290623Y-105068914D01*
X126292388Y-105082648D01*
X126294329Y-105120730D01*
X126296282Y-105178482D01*
X126298084Y-105251227D01*
X126299343Y-105319286D01*
X126303314Y-105569657D01*
X126390400Y-105569657D01*
X126394396Y-105341240D01*
X126398392Y-105112822D01*
X126440847Y-105090868D01*
X126472192Y-105075793D01*
X126490744Y-105068951D01*
X126491279Y-105068914D01*
X126493833Y-105082663D01*
G36*
X126858876Y-105080335D02*
X126900667Y-105099344D01*
X126933469Y-105122378D01*
X126957503Y-105148133D01*
X126974097Y-105181358D01*
X126984577Y-105226800D01*
X126990271Y-105289207D01*
X126992507Y-105373327D01*
X126992743Y-105428721D01*
X126992743Y-105644826D01*
X126955774Y-105661670D01*
X126926656Y-105673981D01*
X126912231Y-105678514D01*
X126909472Y-105665025D01*
X126907282Y-105628653D01*
X126905942Y-105575542D01*
X126905657Y-105533372D01*
X126904434Y-105472447D01*
X126901136Y-105424115D01*
X126896321Y-105394518D01*
X126892496Y-105388229D01*
X126866783Y-105394652D01*
X126826418Y-105411125D01*
X126779679Y-105433458D01*
X126734845Y-105457457D01*
X126700193Y-105478930D01*
X126684002Y-105493685D01*
X126683938Y-105493845D01*
X126685330Y-105521152D01*
X126697818Y-105547219D01*
X126719743Y-105568392D01*
X126751743Y-105575474D01*
X126779092Y-105574649D01*
X126817826Y-105574042D01*
X126838158Y-105583116D01*
X126850369Y-105607092D01*
X126851909Y-105611613D01*
X126857203Y-105645806D01*
X126843047Y-105666568D01*
X126806148Y-105676462D01*
X126766289Y-105678292D01*
X126694562Y-105664727D01*
X126657432Y-105645355D01*
X126611576Y-105599845D01*
X126587256Y-105543983D01*
X126585073Y-105484957D01*
X126605629Y-105429953D01*
X126636549Y-105395486D01*
X126667420Y-105376189D01*
X126715942Y-105351759D01*
X126772485Y-105326985D01*
X126781910Y-105323199D01*
X126844019Y-105295791D01*
X126879822Y-105271634D01*
X126891337Y-105247619D01*
X126880580Y-105220635D01*
X126862114Y-105199543D01*
X126818469Y-105173572D01*
X126770446Y-105171624D01*
X126726406Y-105191637D01*
X126694709Y-105231551D01*
X126690549Y-105241848D01*
X126666327Y-105279724D01*
X126630965Y-105307842D01*
X126586343Y-105330917D01*
X126586343Y-105265485D01*
X126588969Y-105225506D01*
X126600230Y-105193997D01*
X126625199Y-105160378D01*
X126649169Y-105134484D01*
X126686441Y-105097817D01*
X126715401Y-105078121D01*
X126746505Y-105070220D01*
X126781713Y-105068914D01*
X126858876Y-105080335D01*
X126858876Y-105080335D01*
G37*
X126858876Y-105080335D02*
X126900667Y-105099344D01*
X126933469Y-105122378D01*
X126957503Y-105148133D01*
X126974097Y-105181358D01*
X126984577Y-105226800D01*
X126990271Y-105289207D01*
X126992507Y-105373327D01*
X126992743Y-105428721D01*
X126992743Y-105644826D01*
X126955774Y-105661670D01*
X126926656Y-105673981D01*
X126912231Y-105678514D01*
X126909472Y-105665025D01*
X126907282Y-105628653D01*
X126905942Y-105575542D01*
X126905657Y-105533372D01*
X126904434Y-105472447D01*
X126901136Y-105424115D01*
X126896321Y-105394518D01*
X126892496Y-105388229D01*
X126866783Y-105394652D01*
X126826418Y-105411125D01*
X126779679Y-105433458D01*
X126734845Y-105457457D01*
X126700193Y-105478930D01*
X126684002Y-105493685D01*
X126683938Y-105493845D01*
X126685330Y-105521152D01*
X126697818Y-105547219D01*
X126719743Y-105568392D01*
X126751743Y-105575474D01*
X126779092Y-105574649D01*
X126817826Y-105574042D01*
X126838158Y-105583116D01*
X126850369Y-105607092D01*
X126851909Y-105611613D01*
X126857203Y-105645806D01*
X126843047Y-105666568D01*
X126806148Y-105676462D01*
X126766289Y-105678292D01*
X126694562Y-105664727D01*
X126657432Y-105645355D01*
X126611576Y-105599845D01*
X126587256Y-105543983D01*
X126585073Y-105484957D01*
X126605629Y-105429953D01*
X126636549Y-105395486D01*
X126667420Y-105376189D01*
X126715942Y-105351759D01*
X126772485Y-105326985D01*
X126781910Y-105323199D01*
X126844019Y-105295791D01*
X126879822Y-105271634D01*
X126891337Y-105247619D01*
X126880580Y-105220635D01*
X126862114Y-105199543D01*
X126818469Y-105173572D01*
X126770446Y-105171624D01*
X126726406Y-105191637D01*
X126694709Y-105231551D01*
X126690549Y-105241848D01*
X126666327Y-105279724D01*
X126630965Y-105307842D01*
X126586343Y-105330917D01*
X126586343Y-105265485D01*
X126588969Y-105225506D01*
X126600230Y-105193997D01*
X126625199Y-105160378D01*
X126649169Y-105134484D01*
X126686441Y-105097817D01*
X126715401Y-105078121D01*
X126746505Y-105070220D01*
X126781713Y-105068914D01*
X126858876Y-105080335D01*
G36*
X127366600Y-105082752D02*
X127383948Y-105090334D01*
X127425356Y-105123128D01*
X127460765Y-105170547D01*
X127482664Y-105221151D01*
X127486229Y-105246098D01*
X127474279Y-105280927D01*
X127448067Y-105299357D01*
X127419964Y-105310516D01*
X127407095Y-105312572D01*
X127400829Y-105297649D01*
X127388456Y-105265175D01*
X127383028Y-105250502D01*
X127352590Y-105199744D01*
X127308520Y-105174427D01*
X127252010Y-105175206D01*
X127247825Y-105176203D01*
X127217655Y-105190507D01*
X127195476Y-105218393D01*
X127180327Y-105263287D01*
X127171250Y-105328615D01*
X127167286Y-105417804D01*
X127166914Y-105465261D01*
X127166730Y-105540071D01*
X127165522Y-105591069D01*
X127162309Y-105623471D01*
X127156109Y-105642495D01*
X127145940Y-105653356D01*
X127130819Y-105661272D01*
X127129946Y-105661670D01*
X127100828Y-105673981D01*
X127086403Y-105678514D01*
X127084186Y-105664809D01*
X127082289Y-105626925D01*
X127080847Y-105569715D01*
X127079998Y-105498027D01*
X127079829Y-105445565D01*
X127080692Y-105344047D01*
X127084070Y-105267032D01*
X127091142Y-105210023D01*
X127103088Y-105168526D01*
X127121090Y-105138043D01*
X127146327Y-105114080D01*
X127171247Y-105097355D01*
X127231171Y-105075097D01*
X127300911Y-105070076D01*
X127366600Y-105082752D01*
X127366600Y-105082752D01*
G37*
X127366600Y-105082752D02*
X127383948Y-105090334D01*
X127425356Y-105123128D01*
X127460765Y-105170547D01*
X127482664Y-105221151D01*
X127486229Y-105246098D01*
X127474279Y-105280927D01*
X127448067Y-105299357D01*
X127419964Y-105310516D01*
X127407095Y-105312572D01*
X127400829Y-105297649D01*
X127388456Y-105265175D01*
X127383028Y-105250502D01*
X127352590Y-105199744D01*
X127308520Y-105174427D01*
X127252010Y-105175206D01*
X127247825Y-105176203D01*
X127217655Y-105190507D01*
X127195476Y-105218393D01*
X127180327Y-105263287D01*
X127171250Y-105328615D01*
X127167286Y-105417804D01*
X127166914Y-105465261D01*
X127166730Y-105540071D01*
X127165522Y-105591069D01*
X127162309Y-105623471D01*
X127156109Y-105642495D01*
X127145940Y-105653356D01*
X127130819Y-105661272D01*
X127129946Y-105661670D01*
X127100828Y-105673981D01*
X127086403Y-105678514D01*
X127084186Y-105664809D01*
X127082289Y-105626925D01*
X127080847Y-105569715D01*
X127079998Y-105498027D01*
X127079829Y-105445565D01*
X127080692Y-105344047D01*
X127084070Y-105267032D01*
X127091142Y-105210023D01*
X127103088Y-105168526D01*
X127121090Y-105138043D01*
X127146327Y-105114080D01*
X127171247Y-105097355D01*
X127231171Y-105075097D01*
X127300911Y-105070076D01*
X127366600Y-105082752D01*
G36*
X127867595Y-105090966D02*
X127925021Y-105128497D01*
X127952719Y-105162096D01*
X127974662Y-105223064D01*
X127976405Y-105271308D01*
X127972457Y-105335816D01*
X127823686Y-105400934D01*
X127751349Y-105434202D01*
X127704084Y-105460964D01*
X127679507Y-105484144D01*
X127675237Y-105506667D01*
X127688889Y-105531455D01*
X127703943Y-105547886D01*
X127747746Y-105574235D01*
X127795389Y-105576081D01*
X127839145Y-105555546D01*
X127871289Y-105514752D01*
X127877038Y-105500347D01*
X127904576Y-105455356D01*
X127936258Y-105436182D01*
X127979714Y-105419779D01*
X127979714Y-105481966D01*
X127975872Y-105524283D01*
X127960823Y-105559969D01*
X127929280Y-105600943D01*
X127924592Y-105606267D01*
X127889506Y-105642720D01*
X127859347Y-105662283D01*
X127821615Y-105671283D01*
X127790335Y-105674230D01*
X127734385Y-105674965D01*
X127694555Y-105665660D01*
X127669708Y-105651846D01*
X127630656Y-105621467D01*
X127603625Y-105588613D01*
X127586517Y-105547294D01*
X127577238Y-105491521D01*
X127573693Y-105415305D01*
X127573410Y-105376622D01*
X127574372Y-105330247D01*
X127662007Y-105330247D01*
X127663023Y-105355126D01*
X127665556Y-105359200D01*
X127682274Y-105353665D01*
X127718249Y-105339017D01*
X127766331Y-105318190D01*
X127776386Y-105313714D01*
X127837152Y-105282814D01*
X127870632Y-105255657D01*
X127877990Y-105230220D01*
X127860391Y-105204481D01*
X127845856Y-105193109D01*
X127793410Y-105170364D01*
X127744322Y-105174122D01*
X127703227Y-105201884D01*
X127674758Y-105251152D01*
X127665631Y-105290257D01*
X127662007Y-105330247D01*
X127574372Y-105330247D01*
X127575285Y-105286249D01*
X127582196Y-105219384D01*
X127595884Y-105170695D01*
X127618096Y-105134849D01*
X127650574Y-105106513D01*
X127664733Y-105097355D01*
X127729053Y-105073507D01*
X127799473Y-105072006D01*
X127867595Y-105090966D01*
X127867595Y-105090966D01*
G37*
X127867595Y-105090966D02*
X127925021Y-105128497D01*
X127952719Y-105162096D01*
X127974662Y-105223064D01*
X127976405Y-105271308D01*
X127972457Y-105335816D01*
X127823686Y-105400934D01*
X127751349Y-105434202D01*
X127704084Y-105460964D01*
X127679507Y-105484144D01*
X127675237Y-105506667D01*
X127688889Y-105531455D01*
X127703943Y-105547886D01*
X127747746Y-105574235D01*
X127795389Y-105576081D01*
X127839145Y-105555546D01*
X127871289Y-105514752D01*
X127877038Y-105500347D01*
X127904576Y-105455356D01*
X127936258Y-105436182D01*
X127979714Y-105419779D01*
X127979714Y-105481966D01*
X127975872Y-105524283D01*
X127960823Y-105559969D01*
X127929280Y-105600943D01*
X127924592Y-105606267D01*
X127889506Y-105642720D01*
X127859347Y-105662283D01*
X127821615Y-105671283D01*
X127790335Y-105674230D01*
X127734385Y-105674965D01*
X127694555Y-105665660D01*
X127669708Y-105651846D01*
X127630656Y-105621467D01*
X127603625Y-105588613D01*
X127586517Y-105547294D01*
X127577238Y-105491521D01*
X127573693Y-105415305D01*
X127573410Y-105376622D01*
X127574372Y-105330247D01*
X127662007Y-105330247D01*
X127663023Y-105355126D01*
X127665556Y-105359200D01*
X127682274Y-105353665D01*
X127718249Y-105339017D01*
X127766331Y-105318190D01*
X127776386Y-105313714D01*
X127837152Y-105282814D01*
X127870632Y-105255657D01*
X127877990Y-105230220D01*
X127860391Y-105204481D01*
X127845856Y-105193109D01*
X127793410Y-105170364D01*
X127744322Y-105174122D01*
X127703227Y-105201884D01*
X127674758Y-105251152D01*
X127665631Y-105290257D01*
X127662007Y-105330247D01*
X127574372Y-105330247D01*
X127575285Y-105286249D01*
X127582196Y-105219384D01*
X127595884Y-105170695D01*
X127618096Y-105134849D01*
X127650574Y-105106513D01*
X127664733Y-105097355D01*
X127729053Y-105073507D01*
X127799473Y-105072006D01*
X127867595Y-105090966D01*
G36*
X124817910Y-100366348D02*
X124896454Y-100366778D01*
X124953298Y-100367942D01*
X124992105Y-100370207D01*
X125016538Y-100373940D01*
X125030262Y-100379506D01*
X125036940Y-100387273D01*
X125040236Y-100397605D01*
X125040556Y-100398943D01*
X125045562Y-100423079D01*
X125054829Y-100470701D01*
X125067392Y-100536741D01*
X125082287Y-100616128D01*
X125098551Y-100703796D01*
X125099119Y-100706875D01*
X125115410Y-100792789D01*
X125130652Y-100868696D01*
X125143861Y-100930045D01*
X125154054Y-100972282D01*
X125160248Y-100990855D01*
X125160543Y-100991184D01*
X125178788Y-101000253D01*
X125216405Y-101015367D01*
X125265271Y-101033262D01*
X125265543Y-101033358D01*
X125327093Y-101056493D01*
X125399657Y-101085965D01*
X125468057Y-101115597D01*
X125471294Y-101117062D01*
X125582702Y-101167626D01*
X125829399Y-100999160D01*
X125905077Y-100947803D01*
X125973631Y-100901889D01*
X126031088Y-100864030D01*
X126073476Y-100836837D01*
X126096825Y-100822921D01*
X126099042Y-100821889D01*
X126116010Y-100826484D01*
X126147701Y-100848655D01*
X126195352Y-100889447D01*
X126260198Y-100949905D01*
X126326397Y-101014227D01*
X126390214Y-101077612D01*
X126447329Y-101135451D01*
X126494305Y-101184175D01*
X126527703Y-101220210D01*
X126544085Y-101239984D01*
X126544694Y-101241002D01*
X126546505Y-101254572D01*
X126539683Y-101276733D01*
X126522540Y-101310478D01*
X126493393Y-101358800D01*
X126450555Y-101424692D01*
X126393448Y-101509517D01*
X126342766Y-101584177D01*
X126297461Y-101651140D01*
X126260150Y-101706516D01*
X126233452Y-101746420D01*
X126219985Y-101766962D01*
X126219137Y-101768356D01*
X126220781Y-101788038D01*
X126233245Y-101826293D01*
X126254048Y-101875889D01*
X126261462Y-101891728D01*
X126293814Y-101962290D01*
X126328328Y-102042353D01*
X126356365Y-102111629D01*
X126376568Y-102163045D01*
X126392615Y-102202119D01*
X126401888Y-102222541D01*
X126403041Y-102224114D01*
X126420096Y-102226721D01*
X126460298Y-102233863D01*
X126518302Y-102244523D01*
X126588763Y-102257685D01*
X126666335Y-102272333D01*
X126745672Y-102287449D01*
X126821431Y-102302018D01*
X126888264Y-102315022D01*
X126940828Y-102325445D01*
X126973776Y-102332270D01*
X126981857Y-102334199D01*
X126990205Y-102338962D01*
X126996506Y-102349718D01*
X127001045Y-102370098D01*
X127004104Y-102403734D01*
X127005967Y-102454255D01*
X127006918Y-102525292D01*
X127007240Y-102620476D01*
X127007257Y-102659492D01*
X127007257Y-102976799D01*
X126931057Y-102991839D01*
X126888663Y-102999995D01*
X126825400Y-103011899D01*
X126748962Y-103026116D01*
X126667043Y-103041210D01*
X126644400Y-103045355D01*
X126568806Y-103060053D01*
X126502953Y-103074505D01*
X126452366Y-103087375D01*
X126422574Y-103097322D01*
X126417612Y-103100287D01*
X126405426Y-103121283D01*
X126387953Y-103161967D01*
X126368577Y-103214322D01*
X126364734Y-103225600D01*
X126339339Y-103295523D01*
X126307817Y-103374418D01*
X126276969Y-103445266D01*
X126276817Y-103445595D01*
X126225447Y-103556733D01*
X126394399Y-103805253D01*
X126563352Y-104053772D01*
X126346429Y-104271058D01*
X126280819Y-104335726D01*
X126220979Y-104392733D01*
X126170267Y-104439033D01*
X126132046Y-104471584D01*
X126109675Y-104487343D01*
X126106466Y-104488343D01*
X126087626Y-104480469D01*
X126049180Y-104458578D01*
X125995330Y-104425267D01*
X125930276Y-104383131D01*
X125859940Y-104335943D01*
X125788555Y-104287810D01*
X125724908Y-104245928D01*
X125673041Y-104212871D01*
X125636995Y-104191218D01*
X125620867Y-104183543D01*
X125601189Y-104190037D01*
X125563875Y-104207150D01*
X125516621Y-104231326D01*
X125511612Y-104234013D01*
X125447977Y-104265927D01*
X125404341Y-104281579D01*
X125377202Y-104281745D01*
X125363057Y-104267204D01*
X125362975Y-104267000D01*
X125355905Y-104249779D01*
X125339042Y-104208899D01*
X125313695Y-104147525D01*
X125281171Y-104068819D01*
X125242778Y-103975947D01*
X125199822Y-103872072D01*
X125158222Y-103771502D01*
X125112504Y-103660516D01*
X125070526Y-103557703D01*
X125033548Y-103466215D01*
X125002827Y-103389201D01*
X124979622Y-103329815D01*
X124965190Y-103291209D01*
X124960743Y-103276800D01*
X124971896Y-103260272D01*
X125001069Y-103233930D01*
X125039971Y-103204887D01*
X125150757Y-103113039D01*
X125237351Y-103007759D01*
X125298716Y-102891266D01*
X125333815Y-102765776D01*
X125341608Y-102633507D01*
X125335943Y-102572457D01*
X125305078Y-102445795D01*
X125251920Y-102333941D01*
X125179767Y-102238001D01*
X125091917Y-102159076D01*
X124991665Y-102098270D01*
X124882310Y-102056687D01*
X124767147Y-102035428D01*
X124649475Y-102035599D01*
X124532590Y-102058301D01*
X124419789Y-102104638D01*
X124314369Y-102175713D01*
X124270368Y-102215911D01*
X124185979Y-102319129D01*
X124127222Y-102431925D01*
X124093704Y-102551010D01*
X124085035Y-102673095D01*
X124100823Y-102794893D01*
X124140678Y-102913116D01*
X124204207Y-103024475D01*
X124291021Y-103125684D01*
X124388029Y-103204887D01*
X124428437Y-103235162D01*
X124456982Y-103261219D01*
X124467257Y-103276825D01*
X124461877Y-103293843D01*
X124446575Y-103334500D01*
X124422612Y-103395642D01*
X124391244Y-103474119D01*
X124353732Y-103566780D01*
X124311333Y-103670472D01*
X124269663Y-103771526D01*
X124223690Y-103882607D01*
X124181107Y-103985541D01*
X124143221Y-104077165D01*
X124111340Y-104154316D01*
X124086771Y-104213831D01*
X124070820Y-104252544D01*
X124064910Y-104267000D01*
X124050948Y-104281685D01*
X124023940Y-104281642D01*
X123980413Y-104266099D01*
X123916890Y-104234284D01*
X123916388Y-104234013D01*
X123868560Y-104209323D01*
X123829897Y-104191338D01*
X123808095Y-104183614D01*
X123807133Y-104183543D01*
X123790721Y-104191378D01*
X123754487Y-104213165D01*
X123702474Y-104246328D01*
X123638725Y-104288291D01*
X123568060Y-104335943D01*
X123496116Y-104384191D01*
X123431274Y-104426151D01*
X123377735Y-104459227D01*
X123339697Y-104480821D01*
X123321533Y-104488343D01*
X123304808Y-104478457D01*
X123271180Y-104450826D01*
X123224010Y-104408495D01*
X123166658Y-104354505D01*
X123102484Y-104291899D01*
X123081497Y-104270983D01*
X122864499Y-104053623D01*
X123029668Y-103811220D01*
X123079864Y-103736781D01*
X123123919Y-103669972D01*
X123159362Y-103614665D01*
X123183719Y-103574729D01*
X123194522Y-103554036D01*
X123194838Y-103552563D01*
X123189143Y-103533058D01*
X123173826Y-103493822D01*
X123151537Y-103441430D01*
X123135893Y-103406355D01*
X123106641Y-103339201D01*
X123079094Y-103271358D01*
X123057737Y-103214034D01*
X123051935Y-103196572D01*
X123035452Y-103149938D01*
X123019340Y-103113905D01*
X123010490Y-103100287D01*
X122990960Y-103091952D01*
X122948334Y-103080137D01*
X122888145Y-103066181D01*
X122815922Y-103051422D01*
X122783600Y-103045355D01*
X122701522Y-103030273D01*
X122622795Y-103015669D01*
X122555109Y-103002980D01*
X122506160Y-102993642D01*
X122496943Y-102991839D01*
X122420743Y-102976799D01*
X122420743Y-102659492D01*
X122420914Y-102555154D01*
X122421616Y-102476213D01*
X122423134Y-102419038D01*
X122425749Y-102379999D01*
X122429746Y-102355465D01*
X122435409Y-102341805D01*
X122443020Y-102335389D01*
X122446143Y-102334199D01*
X122464978Y-102329980D01*
X122506588Y-102321562D01*
X122565630Y-102309961D01*
X122636757Y-102296195D01*
X122714625Y-102281280D01*
X122793887Y-102266232D01*
X122869198Y-102252069D01*
X122935213Y-102239806D01*
X122986587Y-102230461D01*
X123017975Y-102225050D01*
X123024959Y-102224114D01*
X123031285Y-102211596D01*
X123045290Y-102178246D01*
X123064355Y-102130377D01*
X123071634Y-102111629D01*
X123100996Y-102039195D01*
X123135571Y-101959170D01*
X123166537Y-101891728D01*
X123189323Y-101840159D01*
X123204482Y-101797785D01*
X123209542Y-101771834D01*
X123208736Y-101768356D01*
X123198041Y-101751936D01*
X123173620Y-101715417D01*
X123138095Y-101662687D01*
X123094087Y-101597635D01*
X123044217Y-101524151D01*
X123034356Y-101509645D01*
X122976492Y-101423704D01*
X122933956Y-101358261D01*
X122905054Y-101310304D01*
X122888090Y-101276820D01*
X122881367Y-101254795D01*
X122883190Y-101241217D01*
X122883236Y-101241131D01*
X122897586Y-101223297D01*
X122929323Y-101188817D01*
X122975010Y-101141268D01*
X123031204Y-101084222D01*
X123094468Y-101021255D01*
X123101602Y-101014227D01*
X123181330Y-100937020D01*
X123242857Y-100880330D01*
X123287421Y-100843110D01*
X123316257Y-100824315D01*
X123328958Y-100821889D01*
X123347494Y-100832471D01*
X123385961Y-100856916D01*
X123440386Y-100892612D01*
X123506798Y-100936947D01*
X123581225Y-100987311D01*
X123598601Y-100999160D01*
X123845297Y-101167626D01*
X123956706Y-101117062D01*
X124024457Y-101087595D01*
X124097183Y-101057959D01*
X124159703Y-101034330D01*
X124162457Y-101033358D01*
X124211360Y-101015457D01*
X124249057Y-101000320D01*
X124267425Y-100991210D01*
X124267456Y-100991184D01*
X124273285Y-100974717D01*
X124283192Y-100934219D01*
X124296195Y-100874242D01*
X124311309Y-100799340D01*
X124327552Y-100714064D01*
X124328881Y-100706875D01*
X124345175Y-100619014D01*
X124360133Y-100539260D01*
X124372791Y-100472681D01*
X124382186Y-100424347D01*
X124387354Y-100399325D01*
X124387444Y-100398943D01*
X124390589Y-100388299D01*
X124396704Y-100380262D01*
X124409453Y-100374467D01*
X124432500Y-100370547D01*
X124469509Y-100368135D01*
X124524144Y-100366865D01*
X124600067Y-100366371D01*
X124700944Y-100366286D01*
X124714000Y-100366286D01*
X124817910Y-100366348D01*
X124817910Y-100366348D01*
G37*
X124817910Y-100366348D02*
X124896454Y-100366778D01*
X124953298Y-100367942D01*
X124992105Y-100370207D01*
X125016538Y-100373940D01*
X125030262Y-100379506D01*
X125036940Y-100387273D01*
X125040236Y-100397605D01*
X125040556Y-100398943D01*
X125045562Y-100423079D01*
X125054829Y-100470701D01*
X125067392Y-100536741D01*
X125082287Y-100616128D01*
X125098551Y-100703796D01*
X125099119Y-100706875D01*
X125115410Y-100792789D01*
X125130652Y-100868696D01*
X125143861Y-100930045D01*
X125154054Y-100972282D01*
X125160248Y-100990855D01*
X125160543Y-100991184D01*
X125178788Y-101000253D01*
X125216405Y-101015367D01*
X125265271Y-101033262D01*
X125265543Y-101033358D01*
X125327093Y-101056493D01*
X125399657Y-101085965D01*
X125468057Y-101115597D01*
X125471294Y-101117062D01*
X125582702Y-101167626D01*
X125829399Y-100999160D01*
X125905077Y-100947803D01*
X125973631Y-100901889D01*
X126031088Y-100864030D01*
X126073476Y-100836837D01*
X126096825Y-100822921D01*
X126099042Y-100821889D01*
X126116010Y-100826484D01*
X126147701Y-100848655D01*
X126195352Y-100889447D01*
X126260198Y-100949905D01*
X126326397Y-101014227D01*
X126390214Y-101077612D01*
X126447329Y-101135451D01*
X126494305Y-101184175D01*
X126527703Y-101220210D01*
X126544085Y-101239984D01*
X126544694Y-101241002D01*
X126546505Y-101254572D01*
X126539683Y-101276733D01*
X126522540Y-101310478D01*
X126493393Y-101358800D01*
X126450555Y-101424692D01*
X126393448Y-101509517D01*
X126342766Y-101584177D01*
X126297461Y-101651140D01*
X126260150Y-101706516D01*
X126233452Y-101746420D01*
X126219985Y-101766962D01*
X126219137Y-101768356D01*
X126220781Y-101788038D01*
X126233245Y-101826293D01*
X126254048Y-101875889D01*
X126261462Y-101891728D01*
X126293814Y-101962290D01*
X126328328Y-102042353D01*
X126356365Y-102111629D01*
X126376568Y-102163045D01*
X126392615Y-102202119D01*
X126401888Y-102222541D01*
X126403041Y-102224114D01*
X126420096Y-102226721D01*
X126460298Y-102233863D01*
X126518302Y-102244523D01*
X126588763Y-102257685D01*
X126666335Y-102272333D01*
X126745672Y-102287449D01*
X126821431Y-102302018D01*
X126888264Y-102315022D01*
X126940828Y-102325445D01*
X126973776Y-102332270D01*
X126981857Y-102334199D01*
X126990205Y-102338962D01*
X126996506Y-102349718D01*
X127001045Y-102370098D01*
X127004104Y-102403734D01*
X127005967Y-102454255D01*
X127006918Y-102525292D01*
X127007240Y-102620476D01*
X127007257Y-102659492D01*
X127007257Y-102976799D01*
X126931057Y-102991839D01*
X126888663Y-102999995D01*
X126825400Y-103011899D01*
X126748962Y-103026116D01*
X126667043Y-103041210D01*
X126644400Y-103045355D01*
X126568806Y-103060053D01*
X126502953Y-103074505D01*
X126452366Y-103087375D01*
X126422574Y-103097322D01*
X126417612Y-103100287D01*
X126405426Y-103121283D01*
X126387953Y-103161967D01*
X126368577Y-103214322D01*
X126364734Y-103225600D01*
X126339339Y-103295523D01*
X126307817Y-103374418D01*
X126276969Y-103445266D01*
X126276817Y-103445595D01*
X126225447Y-103556733D01*
X126394399Y-103805253D01*
X126563352Y-104053772D01*
X126346429Y-104271058D01*
X126280819Y-104335726D01*
X126220979Y-104392733D01*
X126170267Y-104439033D01*
X126132046Y-104471584D01*
X126109675Y-104487343D01*
X126106466Y-104488343D01*
X126087626Y-104480469D01*
X126049180Y-104458578D01*
X125995330Y-104425267D01*
X125930276Y-104383131D01*
X125859940Y-104335943D01*
X125788555Y-104287810D01*
X125724908Y-104245928D01*
X125673041Y-104212871D01*
X125636995Y-104191218D01*
X125620867Y-104183543D01*
X125601189Y-104190037D01*
X125563875Y-104207150D01*
X125516621Y-104231326D01*
X125511612Y-104234013D01*
X125447977Y-104265927D01*
X125404341Y-104281579D01*
X125377202Y-104281745D01*
X125363057Y-104267204D01*
X125362975Y-104267000D01*
X125355905Y-104249779D01*
X125339042Y-104208899D01*
X125313695Y-104147525D01*
X125281171Y-104068819D01*
X125242778Y-103975947D01*
X125199822Y-103872072D01*
X125158222Y-103771502D01*
X125112504Y-103660516D01*
X125070526Y-103557703D01*
X125033548Y-103466215D01*
X125002827Y-103389201D01*
X124979622Y-103329815D01*
X124965190Y-103291209D01*
X124960743Y-103276800D01*
X124971896Y-103260272D01*
X125001069Y-103233930D01*
X125039971Y-103204887D01*
X125150757Y-103113039D01*
X125237351Y-103007759D01*
X125298716Y-102891266D01*
X125333815Y-102765776D01*
X125341608Y-102633507D01*
X125335943Y-102572457D01*
X125305078Y-102445795D01*
X125251920Y-102333941D01*
X125179767Y-102238001D01*
X125091917Y-102159076D01*
X124991665Y-102098270D01*
X124882310Y-102056687D01*
X124767147Y-102035428D01*
X124649475Y-102035599D01*
X124532590Y-102058301D01*
X124419789Y-102104638D01*
X124314369Y-102175713D01*
X124270368Y-102215911D01*
X124185979Y-102319129D01*
X124127222Y-102431925D01*
X124093704Y-102551010D01*
X124085035Y-102673095D01*
X124100823Y-102794893D01*
X124140678Y-102913116D01*
X124204207Y-103024475D01*
X124291021Y-103125684D01*
X124388029Y-103204887D01*
X124428437Y-103235162D01*
X124456982Y-103261219D01*
X124467257Y-103276825D01*
X124461877Y-103293843D01*
X124446575Y-103334500D01*
X124422612Y-103395642D01*
X124391244Y-103474119D01*
X124353732Y-103566780D01*
X124311333Y-103670472D01*
X124269663Y-103771526D01*
X124223690Y-103882607D01*
X124181107Y-103985541D01*
X124143221Y-104077165D01*
X124111340Y-104154316D01*
X124086771Y-104213831D01*
X124070820Y-104252544D01*
X124064910Y-104267000D01*
X124050948Y-104281685D01*
X124023940Y-104281642D01*
X123980413Y-104266099D01*
X123916890Y-104234284D01*
X123916388Y-104234013D01*
X123868560Y-104209323D01*
X123829897Y-104191338D01*
X123808095Y-104183614D01*
X123807133Y-104183543D01*
X123790721Y-104191378D01*
X123754487Y-104213165D01*
X123702474Y-104246328D01*
X123638725Y-104288291D01*
X123568060Y-104335943D01*
X123496116Y-104384191D01*
X123431274Y-104426151D01*
X123377735Y-104459227D01*
X123339697Y-104480821D01*
X123321533Y-104488343D01*
X123304808Y-104478457D01*
X123271180Y-104450826D01*
X123224010Y-104408495D01*
X123166658Y-104354505D01*
X123102484Y-104291899D01*
X123081497Y-104270983D01*
X122864499Y-104053623D01*
X123029668Y-103811220D01*
X123079864Y-103736781D01*
X123123919Y-103669972D01*
X123159362Y-103614665D01*
X123183719Y-103574729D01*
X123194522Y-103554036D01*
X123194838Y-103552563D01*
X123189143Y-103533058D01*
X123173826Y-103493822D01*
X123151537Y-103441430D01*
X123135893Y-103406355D01*
X123106641Y-103339201D01*
X123079094Y-103271358D01*
X123057737Y-103214034D01*
X123051935Y-103196572D01*
X123035452Y-103149938D01*
X123019340Y-103113905D01*
X123010490Y-103100287D01*
X122990960Y-103091952D01*
X122948334Y-103080137D01*
X122888145Y-103066181D01*
X122815922Y-103051422D01*
X122783600Y-103045355D01*
X122701522Y-103030273D01*
X122622795Y-103015669D01*
X122555109Y-103002980D01*
X122506160Y-102993642D01*
X122496943Y-102991839D01*
X122420743Y-102976799D01*
X122420743Y-102659492D01*
X122420914Y-102555154D01*
X122421616Y-102476213D01*
X122423134Y-102419038D01*
X122425749Y-102379999D01*
X122429746Y-102355465D01*
X122435409Y-102341805D01*
X122443020Y-102335389D01*
X122446143Y-102334199D01*
X122464978Y-102329980D01*
X122506588Y-102321562D01*
X122565630Y-102309961D01*
X122636757Y-102296195D01*
X122714625Y-102281280D01*
X122793887Y-102266232D01*
X122869198Y-102252069D01*
X122935213Y-102239806D01*
X122986587Y-102230461D01*
X123017975Y-102225050D01*
X123024959Y-102224114D01*
X123031285Y-102211596D01*
X123045290Y-102178246D01*
X123064355Y-102130377D01*
X123071634Y-102111629D01*
X123100996Y-102039195D01*
X123135571Y-101959170D01*
X123166537Y-101891728D01*
X123189323Y-101840159D01*
X123204482Y-101797785D01*
X123209542Y-101771834D01*
X123208736Y-101768356D01*
X123198041Y-101751936D01*
X123173620Y-101715417D01*
X123138095Y-101662687D01*
X123094087Y-101597635D01*
X123044217Y-101524151D01*
X123034356Y-101509645D01*
X122976492Y-101423704D01*
X122933956Y-101358261D01*
X122905054Y-101310304D01*
X122888090Y-101276820D01*
X122881367Y-101254795D01*
X122883190Y-101241217D01*
X122883236Y-101241131D01*
X122897586Y-101223297D01*
X122929323Y-101188817D01*
X122975010Y-101141268D01*
X123031204Y-101084222D01*
X123094468Y-101021255D01*
X123101602Y-101014227D01*
X123181330Y-100937020D01*
X123242857Y-100880330D01*
X123287421Y-100843110D01*
X123316257Y-100824315D01*
X123328958Y-100821889D01*
X123347494Y-100832471D01*
X123385961Y-100856916D01*
X123440386Y-100892612D01*
X123506798Y-100936947D01*
X123581225Y-100987311D01*
X123598601Y-100999160D01*
X123845297Y-101167626D01*
X123956706Y-101117062D01*
X124024457Y-101087595D01*
X124097183Y-101057959D01*
X124159703Y-101034330D01*
X124162457Y-101033358D01*
X124211360Y-101015457D01*
X124249057Y-101000320D01*
X124267425Y-100991210D01*
X124267456Y-100991184D01*
X124273285Y-100974717D01*
X124283192Y-100934219D01*
X124296195Y-100874242D01*
X124311309Y-100799340D01*
X124327552Y-100714064D01*
X124328881Y-100706875D01*
X124345175Y-100619014D01*
X124360133Y-100539260D01*
X124372791Y-100472681D01*
X124382186Y-100424347D01*
X124387354Y-100399325D01*
X124387444Y-100398943D01*
X124390589Y-100388299D01*
X124396704Y-100380262D01*
X124409453Y-100374467D01*
X124432500Y-100370547D01*
X124469509Y-100368135D01*
X124524144Y-100366865D01*
X124600067Y-100366371D01*
X124700944Y-100366286D01*
X124714000Y-100366286D01*
X124817910Y-100366348D01*
D12*
X107822381Y-115546095D02*
X106822381Y-115546095D01*
X106822381Y-115308000D01*
X106870000Y-115165142D01*
X106965238Y-115069904D01*
X107060476Y-115022285D01*
X107250952Y-114974666D01*
X107393810Y-114974666D01*
X107584286Y-115022285D01*
X107679524Y-115069904D01*
X107774762Y-115165142D01*
X107822381Y-115308000D01*
X107822381Y-115546095D01*
X107822381Y-114022285D02*
X107822381Y-114593714D01*
X107822381Y-114308000D02*
X106822381Y-114308000D01*
X106965238Y-114403238D01*
X107060476Y-114498476D01*
X107108095Y-114593714D01*
X112037905Y-121864381D02*
X112037905Y-120864381D01*
X112276000Y-120864381D01*
X112418858Y-120912000D01*
X112514096Y-121007238D01*
X112561715Y-121102476D01*
X112609334Y-121292952D01*
X112609334Y-121435810D01*
X112561715Y-121626286D01*
X112514096Y-121721524D01*
X112418858Y-121816762D01*
X112276000Y-121864381D01*
X112037905Y-121864381D01*
X112990286Y-120959619D02*
X113037905Y-120912000D01*
X113133143Y-120864381D01*
X113371239Y-120864381D01*
X113466477Y-120912000D01*
X113514096Y-120959619D01*
X113561715Y-121054857D01*
X113561715Y-121150095D01*
X113514096Y-121292952D01*
X112942667Y-121864381D01*
X113561715Y-121864381D01*
X105934381Y-115546095D02*
X104934381Y-115546095D01*
X104934381Y-115308000D01*
X104982000Y-115165142D01*
X105077238Y-115069904D01*
X105172476Y-115022285D01*
X105362952Y-114974666D01*
X105505810Y-114974666D01*
X105696286Y-115022285D01*
X105791524Y-115069904D01*
X105886762Y-115165142D01*
X105934381Y-115308000D01*
X105934381Y-115546095D01*
X104934381Y-114641333D02*
X104934381Y-114022285D01*
X105315333Y-114355619D01*
X105315333Y-114212761D01*
X105362952Y-114117523D01*
X105410571Y-114069904D01*
X105505810Y-114022285D01*
X105743905Y-114022285D01*
X105839143Y-114069904D01*
X105886762Y-114117523D01*
X105934381Y-114212761D01*
X105934381Y-114498476D01*
X105886762Y-114593714D01*
X105839143Y-114641333D01*
X114577905Y-119578381D02*
X114577905Y-118578381D01*
X114816000Y-118578381D01*
X114958858Y-118626000D01*
X115054096Y-118721238D01*
X115101715Y-118816476D01*
X115149334Y-119006952D01*
X115149334Y-119149810D01*
X115101715Y-119340286D01*
X115054096Y-119435524D01*
X114958858Y-119530762D01*
X114816000Y-119578381D01*
X114577905Y-119578381D01*
X116006477Y-118911714D02*
X116006477Y-119578381D01*
X115768381Y-118530762D02*
X115530286Y-119245048D01*
X116149334Y-119245048D01*
X112601619Y-115919238D02*
X112554000Y-116014476D01*
X112458762Y-116109714D01*
X112315905Y-116252571D01*
X112268286Y-116347810D01*
X112268286Y-116443048D01*
X112506381Y-116395429D02*
X112458762Y-116490667D01*
X112363524Y-116585905D01*
X112173048Y-116633524D01*
X111839714Y-116633524D01*
X111649238Y-116585905D01*
X111554000Y-116490667D01*
X111506381Y-116395429D01*
X111506381Y-116204952D01*
X111554000Y-116109714D01*
X111649238Y-116014476D01*
X111839714Y-115966857D01*
X112173048Y-115966857D01*
X112363524Y-116014476D01*
X112458762Y-116109714D01*
X112506381Y-116204952D01*
X112506381Y-116395429D01*
X112506381Y-115014476D02*
X112506381Y-115585905D01*
X112506381Y-115300191D02*
X111506381Y-115300191D01*
X111649238Y-115395429D01*
X111744476Y-115490667D01*
X111792095Y-115585905D01*
X108362762Y-129285619D02*
X108267524Y-129238000D01*
X108172286Y-129142762D01*
X108029429Y-128999905D01*
X107934190Y-128952286D01*
X107838952Y-128952286D01*
X107886571Y-129190381D02*
X107791333Y-129142762D01*
X107696095Y-129047524D01*
X107648476Y-128857048D01*
X107648476Y-128523714D01*
X107696095Y-128333238D01*
X107791333Y-128238000D01*
X107886571Y-128190381D01*
X108077048Y-128190381D01*
X108172286Y-128238000D01*
X108267524Y-128333238D01*
X108315143Y-128523714D01*
X108315143Y-128857048D01*
X108267524Y-129047524D01*
X108172286Y-129142762D01*
X108077048Y-129190381D01*
X107886571Y-129190381D01*
X108696095Y-128285619D02*
X108743714Y-128238000D01*
X108838952Y-128190381D01*
X109077048Y-128190381D01*
X109172286Y-128238000D01*
X109219905Y-128285619D01*
X109267524Y-128380857D01*
X109267524Y-128476095D01*
X109219905Y-128618952D01*
X108648476Y-129190381D01*
X109267524Y-129190381D01*
X114458762Y-135167619D02*
X114363524Y-135120000D01*
X114268286Y-135024762D01*
X114125429Y-134881905D01*
X114030190Y-134834286D01*
X113934952Y-134834286D01*
X113982571Y-135072381D02*
X113887333Y-135024762D01*
X113792095Y-134929524D01*
X113744476Y-134739048D01*
X113744476Y-134405714D01*
X113792095Y-134215238D01*
X113887333Y-134120000D01*
X113982571Y-134072381D01*
X114173048Y-134072381D01*
X114268286Y-134120000D01*
X114363524Y-134215238D01*
X114411143Y-134405714D01*
X114411143Y-134739048D01*
X114363524Y-134929524D01*
X114268286Y-135024762D01*
X114173048Y-135072381D01*
X113982571Y-135072381D01*
X114744476Y-134072381D02*
X115363524Y-134072381D01*
X115030190Y-134453333D01*
X115173048Y-134453333D01*
X115268286Y-134500952D01*
X115315905Y-134548571D01*
X115363524Y-134643810D01*
X115363524Y-134881905D01*
X115315905Y-134977143D01*
X115268286Y-135024762D01*
X115173048Y-135072381D01*
X114887333Y-135072381D01*
X114792095Y-135024762D01*
X114744476Y-134977143D01*
X106838762Y-138905619D02*
X106743524Y-138858000D01*
X106648286Y-138762762D01*
X106505429Y-138619905D01*
X106410190Y-138572286D01*
X106314952Y-138572286D01*
X106362571Y-138810381D02*
X106267333Y-138762762D01*
X106172095Y-138667524D01*
X106124476Y-138477048D01*
X106124476Y-138143714D01*
X106172095Y-137953238D01*
X106267333Y-137858000D01*
X106362571Y-137810381D01*
X106553048Y-137810381D01*
X106648286Y-137858000D01*
X106743524Y-137953238D01*
X106791143Y-138143714D01*
X106791143Y-138477048D01*
X106743524Y-138667524D01*
X106648286Y-138762762D01*
X106553048Y-138810381D01*
X106362571Y-138810381D01*
X107648286Y-138143714D02*
X107648286Y-138810381D01*
X107410190Y-137762762D02*
X107172095Y-138477048D01*
X107791143Y-138477048D01*
X106513334Y-112280381D02*
X106180000Y-111804190D01*
X105941905Y-112280381D02*
X105941905Y-111280381D01*
X106322858Y-111280381D01*
X106418096Y-111328000D01*
X106465715Y-111375619D01*
X106513334Y-111470857D01*
X106513334Y-111613714D01*
X106465715Y-111708952D01*
X106418096Y-111756571D01*
X106322858Y-111804190D01*
X105941905Y-111804190D01*
X107465715Y-112280381D02*
X106894286Y-112280381D01*
X107180000Y-112280381D02*
X107180000Y-111280381D01*
X107084762Y-111423238D01*
X106989524Y-111518476D01*
X106894286Y-111566095D01*
X114133334Y-112212381D02*
X113800000Y-111736190D01*
X113561905Y-112212381D02*
X113561905Y-111212381D01*
X113942858Y-111212381D01*
X114038096Y-111260000D01*
X114085715Y-111307619D01*
X114133334Y-111402857D01*
X114133334Y-111545714D01*
X114085715Y-111640952D01*
X114038096Y-111688571D01*
X113942858Y-111736190D01*
X113561905Y-111736190D01*
X114514286Y-111307619D02*
X114561905Y-111260000D01*
X114657143Y-111212381D01*
X114895239Y-111212381D01*
X114990477Y-111260000D01*
X115038096Y-111307619D01*
X115085715Y-111402857D01*
X115085715Y-111498095D01*
X115038096Y-111640952D01*
X114466667Y-112212381D01*
X115085715Y-112212381D01*
X118122381Y-121832666D02*
X117646190Y-122166000D01*
X118122381Y-122404095D02*
X117122381Y-122404095D01*
X117122381Y-122023142D01*
X117170000Y-121927904D01*
X117217619Y-121880285D01*
X117312857Y-121832666D01*
X117455714Y-121832666D01*
X117550952Y-121880285D01*
X117598571Y-121927904D01*
X117646190Y-122023142D01*
X117646190Y-122404095D01*
X117122381Y-121499333D02*
X117122381Y-120880285D01*
X117503333Y-121213619D01*
X117503333Y-121070761D01*
X117550952Y-120975523D01*
X117598571Y-120927904D01*
X117693810Y-120880285D01*
X117931905Y-120880285D01*
X118027143Y-120927904D01*
X118074762Y-120975523D01*
X118122381Y-121070761D01*
X118122381Y-121356476D01*
X118074762Y-121451714D01*
X118027143Y-121499333D01*
X111085334Y-129484381D02*
X110752000Y-129008190D01*
X110513905Y-129484381D02*
X110513905Y-128484381D01*
X110894858Y-128484381D01*
X110990096Y-128532000D01*
X111037715Y-128579619D01*
X111085334Y-128674857D01*
X111085334Y-128817714D01*
X111037715Y-128912952D01*
X110990096Y-128960571D01*
X110894858Y-129008190D01*
X110513905Y-129008190D01*
X111942477Y-128817714D02*
X111942477Y-129484381D01*
X111704381Y-128436762D02*
X111466286Y-129151048D01*
X112085334Y-129151048D01*
X115149334Y-129484381D02*
X114816000Y-129008190D01*
X114577905Y-129484381D02*
X114577905Y-128484381D01*
X114958858Y-128484381D01*
X115054096Y-128532000D01*
X115101715Y-128579619D01*
X115149334Y-128674857D01*
X115149334Y-128817714D01*
X115101715Y-128912952D01*
X115054096Y-128960571D01*
X114958858Y-129008190D01*
X114577905Y-129008190D01*
X116054096Y-128484381D02*
X115577905Y-128484381D01*
X115530286Y-128960571D01*
X115577905Y-128912952D01*
X115673143Y-128865333D01*
X115911239Y-128865333D01*
X116006477Y-128912952D01*
X116054096Y-128960571D01*
X116101715Y-129055810D01*
X116101715Y-129293905D01*
X116054096Y-129389143D01*
X116006477Y-129436762D01*
X115911239Y-129484381D01*
X115673143Y-129484381D01*
X115577905Y-129436762D01*
X115530286Y-129389143D01*
X108291334Y-120272381D02*
X107958000Y-119796190D01*
X107719905Y-120272381D02*
X107719905Y-119272381D01*
X108100858Y-119272381D01*
X108196096Y-119320000D01*
X108243715Y-119367619D01*
X108291334Y-119462857D01*
X108291334Y-119605714D01*
X108243715Y-119700952D01*
X108196096Y-119748571D01*
X108100858Y-119796190D01*
X107719905Y-119796190D01*
X109148477Y-119272381D02*
X108958000Y-119272381D01*
X108862762Y-119320000D01*
X108815143Y-119367619D01*
X108719905Y-119510476D01*
X108672286Y-119700952D01*
X108672286Y-120081905D01*
X108719905Y-120177143D01*
X108767524Y-120224762D01*
X108862762Y-120272381D01*
X109053239Y-120272381D01*
X109148477Y-120224762D01*
X109196096Y-120177143D01*
X109243715Y-120081905D01*
X109243715Y-119843810D01*
X109196096Y-119748571D01*
X109148477Y-119700952D01*
X109053239Y-119653333D01*
X108862762Y-119653333D01*
X108767524Y-119700952D01*
X108719905Y-119748571D01*
X108672286Y-119843810D01*
X103973334Y-120340381D02*
X103640000Y-119864190D01*
X103401905Y-120340381D02*
X103401905Y-119340381D01*
X103782858Y-119340381D01*
X103878096Y-119388000D01*
X103925715Y-119435619D01*
X103973334Y-119530857D01*
X103973334Y-119673714D01*
X103925715Y-119768952D01*
X103878096Y-119816571D01*
X103782858Y-119864190D01*
X103401905Y-119864190D01*
X104306667Y-119340381D02*
X104973334Y-119340381D01*
X104544762Y-120340381D01*
X103465334Y-129230381D02*
X103132000Y-128754190D01*
X102893905Y-129230381D02*
X102893905Y-128230381D01*
X103274858Y-128230381D01*
X103370096Y-128278000D01*
X103417715Y-128325619D01*
X103465334Y-128420857D01*
X103465334Y-128563714D01*
X103417715Y-128658952D01*
X103370096Y-128706571D01*
X103274858Y-128754190D01*
X102893905Y-128754190D01*
X104036762Y-128658952D02*
X103941524Y-128611333D01*
X103893905Y-128563714D01*
X103846286Y-128468476D01*
X103846286Y-128420857D01*
X103893905Y-128325619D01*
X103941524Y-128278000D01*
X104036762Y-128230381D01*
X104227239Y-128230381D01*
X104322477Y-128278000D01*
X104370096Y-128325619D01*
X104417715Y-128420857D01*
X104417715Y-128468476D01*
X104370096Y-128563714D01*
X104322477Y-128611333D01*
X104227239Y-128658952D01*
X104036762Y-128658952D01*
X103941524Y-128706571D01*
X103893905Y-128754190D01*
X103846286Y-128849429D01*
X103846286Y-129039905D01*
X103893905Y-129135143D01*
X103941524Y-129182762D01*
X104036762Y-129230381D01*
X104227239Y-129230381D01*
X104322477Y-129182762D01*
X104370096Y-129135143D01*
X104417715Y-129039905D01*
X104417715Y-128849429D01*
X104370096Y-128754190D01*
X104322477Y-128706571D01*
X104227239Y-128658952D01*
X114387334Y-139390381D02*
X114054000Y-138914190D01*
X113815905Y-139390381D02*
X113815905Y-138390381D01*
X114196858Y-138390381D01*
X114292096Y-138438000D01*
X114339715Y-138485619D01*
X114387334Y-138580857D01*
X114387334Y-138723714D01*
X114339715Y-138818952D01*
X114292096Y-138866571D01*
X114196858Y-138914190D01*
X113815905Y-138914190D01*
X114863524Y-139390381D02*
X115054000Y-139390381D01*
X115149239Y-139342762D01*
X115196858Y-139295143D01*
X115292096Y-139152286D01*
X115339715Y-138961810D01*
X115339715Y-138580857D01*
X115292096Y-138485619D01*
X115244477Y-138438000D01*
X115149239Y-138390381D01*
X114958762Y-138390381D01*
X114863524Y-138438000D01*
X114815905Y-138485619D01*
X114768286Y-138580857D01*
X114768286Y-138818952D01*
X114815905Y-138914190D01*
X114863524Y-138961810D01*
X114958762Y-139009429D01*
X115149239Y-139009429D01*
X115244477Y-138961810D01*
X115292096Y-138914190D01*
X115339715Y-138818952D01*
X119022762Y-113601333D02*
X119070381Y-113458476D01*
X119070381Y-113220380D01*
X119022762Y-113125142D01*
X118975143Y-113077523D01*
X118879905Y-113029904D01*
X118784667Y-113029904D01*
X118689429Y-113077523D01*
X118641810Y-113125142D01*
X118594190Y-113220380D01*
X118546571Y-113410857D01*
X118498952Y-113506095D01*
X118451333Y-113553714D01*
X118356095Y-113601333D01*
X118260857Y-113601333D01*
X118165619Y-113553714D01*
X118118000Y-113506095D01*
X118070381Y-113410857D01*
X118070381Y-113172761D01*
X118118000Y-113029904D01*
X118070381Y-112696571D02*
X119070381Y-112458476D01*
X118356095Y-112267999D01*
X119070381Y-112077523D01*
X118070381Y-111839428D01*
X119070381Y-110934666D02*
X119070381Y-111506095D01*
X119070381Y-111220381D02*
X118070381Y-111220381D01*
X118213238Y-111315619D01*
X118308476Y-111410857D01*
X118356095Y-111506095D01*
X119022762Y-132651333D02*
X119070381Y-132508476D01*
X119070381Y-132270380D01*
X119022762Y-132175142D01*
X118975143Y-132127523D01*
X118879905Y-132079904D01*
X118784667Y-132079904D01*
X118689429Y-132127523D01*
X118641810Y-132175142D01*
X118594190Y-132270380D01*
X118546571Y-132460857D01*
X118498952Y-132556095D01*
X118451333Y-132603714D01*
X118356095Y-132651333D01*
X118260857Y-132651333D01*
X118165619Y-132603714D01*
X118118000Y-132556095D01*
X118070381Y-132460857D01*
X118070381Y-132222761D01*
X118118000Y-132079904D01*
X118070381Y-131746571D02*
X119070381Y-131508476D01*
X118356095Y-131317999D01*
X119070381Y-131127523D01*
X118070381Y-130889428D01*
X118165619Y-130556095D02*
X118118000Y-130508476D01*
X118070381Y-130413238D01*
X118070381Y-130175142D01*
X118118000Y-130079904D01*
X118165619Y-130032285D01*
X118260857Y-129984666D01*
X118356095Y-129984666D01*
X118498952Y-130032285D01*
X119070381Y-130603714D01*
X119070381Y-129984666D01*
M02*
