G04 #@! TF.FileFunction,Soldermask,Top*
%FSLAX46Y46*%
G04 Gerber Fmt 4.6, Leading zero omitted, Abs format (unit mm)*
G04 Created by KiCad (PCBNEW 4.0.5-e0-6337~49~ubuntu16.04.1) date Sun Jan 22 10:16:39 2017*
%MOMM*%
%LPD*%
G01*
G04 APERTURE LIST*
%ADD10C,0.050000*%
%ADD11C,6.750000*%
%ADD12C,2.686000*%
%ADD13R,1.400000X1.650000*%
%ADD14R,1.650000X1.400000*%
%ADD15R,2.000000X1.400000*%
%ADD16R,1.400000X2.000000*%
%ADD17R,3.150820X2.200860*%
%ADD18R,3.348940X3.100020*%
%ADD19R,0.850000X0.990000*%
%ADD20R,0.990000X0.850000*%
%ADD21R,1.598880X1.598880*%
%ADD22R,1.900000X1.700000*%
%ADD23R,1.700000X1.900000*%
%ADD24R,2.940000X3.580000*%
%ADD25R,2.127200X2.432000*%
%ADD26O,2.127200X2.432000*%
%ADD27R,2.432000X2.127200*%
%ADD28O,2.432000X2.127200*%
%ADD29R,2.051000X3.448000*%
%ADD30R,6.496000X6.496000*%
%ADD31R,0.908000X0.704800*%
%ADD32R,0.704800X0.908000*%
%ADD33R,1.700000X1.100000*%
%ADD34R,1.100000X1.700000*%
%ADD35R,1.300000X2.100000*%
%ADD36R,0.850000X1.850000*%
%ADD37R,1.850000X0.850000*%
%ADD38R,1.950000X1.000000*%
%ADD39R,1.460000X1.050000*%
%ADD40R,1.000000X1.950000*%
%ADD41R,4.057600X2.432000*%
%ADD42R,1.416000X2.432000*%
%ADD43R,0.650000X1.400000*%
%ADD44R,1.400000X0.650000*%
%ADD45R,1.900000X0.850000*%
%ADD46R,2.100000X1.300000*%
%ADD47C,1.900000*%
%ADD48R,2.300000X2.800000*%
%ADD49R,1.310000X1.620000*%
%ADD50R,0.999440X1.400760*%
%ADD51R,1.400760X0.999440*%
%ADD52R,1.300000X0.800000*%
%ADD53C,0.254000*%
G04 APERTURE END LIST*
D10*
D11*
X157480000Y-47625000D03*
X105410000Y-47625000D03*
D12*
X149555200Y-42926000D03*
X149555200Y-46913800D03*
X149555200Y-50901600D03*
X145592800Y-42926000D03*
X141630400Y-42926000D03*
X141630400Y-46913800D03*
X145592800Y-46913800D03*
X141630400Y-50901600D03*
X145592800Y-50901600D03*
X165404800Y-50901600D03*
X169367200Y-50901600D03*
X173329600Y-50901600D03*
X165404800Y-46913800D03*
X169367200Y-46913800D03*
X173329600Y-46913800D03*
X165404800Y-42926000D03*
X169367200Y-42926000D03*
X173329600Y-42926000D03*
X97485200Y-42926000D03*
X93522800Y-42926000D03*
X89560400Y-42926000D03*
X85598000Y-42926000D03*
X81635600Y-42926000D03*
X97485200Y-46913800D03*
X93522800Y-46913800D03*
X89560400Y-46913800D03*
X85598000Y-46913800D03*
X81635600Y-46913800D03*
X97485200Y-50901600D03*
X93522800Y-50901600D03*
X89560400Y-50901600D03*
X85598000Y-50901600D03*
X81635600Y-50901600D03*
X113334800Y-42926000D03*
X117297200Y-42926000D03*
X121259600Y-42926000D03*
X125222000Y-42926000D03*
X129184400Y-42926000D03*
X113334800Y-46913800D03*
X117297200Y-46913800D03*
X121259600Y-46913800D03*
X125222000Y-46913800D03*
X129184400Y-46913800D03*
X113334800Y-50901600D03*
X117297200Y-50901600D03*
X121259600Y-50901600D03*
X125222000Y-50901600D03*
X129184400Y-50901600D03*
D13*
X95012000Y-138684000D03*
X97012000Y-138684000D03*
D14*
X83312000Y-133874000D03*
X83312000Y-135874000D03*
X150114000Y-84344000D03*
X150114000Y-86344000D03*
D13*
X144288000Y-69342000D03*
X146288000Y-69342000D03*
D15*
X156464000Y-76478000D03*
X156464000Y-79478000D03*
D14*
X150114000Y-69580000D03*
X150114000Y-67580000D03*
X150114000Y-117872000D03*
X150114000Y-119872000D03*
D13*
X146574000Y-104140000D03*
X148574000Y-104140000D03*
D15*
X156464000Y-110260000D03*
X156464000Y-113260000D03*
D16*
X145010000Y-54864000D03*
X142010000Y-54864000D03*
D14*
X149720300Y-74012300D03*
X149720300Y-72012300D03*
D15*
X156464000Y-96242000D03*
X156464000Y-93242000D03*
D14*
X150114000Y-102838000D03*
X150114000Y-100838000D03*
X104648000Y-84312000D03*
X104648000Y-82312000D03*
X108458000Y-69358000D03*
X108458000Y-71358000D03*
D16*
X99592000Y-90170000D03*
X102592000Y-90170000D03*
D13*
X83836000Y-87884000D03*
X85836000Y-87884000D03*
D16*
X100608000Y-72390000D03*
X103608000Y-72390000D03*
D14*
X106172000Y-66056000D03*
X106172000Y-68056000D03*
X104648000Y-118348000D03*
X104648000Y-116348000D03*
D16*
X99592000Y-124206000D03*
X102592000Y-124206000D03*
D13*
X81042000Y-123444000D03*
X83042000Y-123444000D03*
D16*
X102592000Y-106934000D03*
X99592000Y-106934000D03*
D14*
X105156000Y-99330000D03*
X105156000Y-101330000D03*
D13*
X132203700Y-87020400D03*
X130203700Y-87020400D03*
D17*
X150715980Y-124206000D03*
X155963620Y-124206000D03*
D18*
X139138660Y-68884800D03*
X132387340Y-68884800D03*
D14*
X135293100Y-124139200D03*
X135293100Y-122139200D03*
X125336300Y-122012200D03*
X125336300Y-124012200D03*
D13*
X141449300Y-143243300D03*
X139449300Y-143243300D03*
X135105900Y-143243300D03*
X137105900Y-143243300D03*
X114493800Y-122008900D03*
X116493800Y-122008900D03*
X112556800Y-122021600D03*
X110556800Y-122021600D03*
D14*
X124485400Y-130622800D03*
X124485400Y-132622800D03*
X121932700Y-130648200D03*
X121932700Y-132648200D03*
X110744000Y-106486200D03*
X110744000Y-104486200D03*
X118745000Y-99888800D03*
X118745000Y-101888800D03*
D13*
X105070400Y-124307600D03*
X107070400Y-124307600D03*
X120132600Y-115074700D03*
X122132600Y-115074700D03*
X120132600Y-112750600D03*
X122132600Y-112750600D03*
D14*
X129997200Y-104962200D03*
X129997200Y-102962200D03*
X118745000Y-104244900D03*
X118745000Y-106244900D03*
D15*
X127241300Y-106275000D03*
X127241300Y-103275000D03*
D16*
X128068200Y-108940600D03*
X125068200Y-108940600D03*
D15*
X109677200Y-90069800D03*
X109677200Y-87069800D03*
X107315000Y-90069800D03*
X107315000Y-87069800D03*
D16*
X116940200Y-85369400D03*
X119940200Y-85369400D03*
D15*
X117525800Y-88339800D03*
X117525800Y-91339800D03*
X120624600Y-91314400D03*
X120624600Y-88314400D03*
D16*
X115165000Y-86639400D03*
X112165000Y-86639400D03*
X115190400Y-89179400D03*
X112190400Y-89179400D03*
D14*
X116967000Y-73364600D03*
X116967000Y-71364600D03*
X123545600Y-73390000D03*
X123545600Y-71390000D03*
X114858800Y-73364600D03*
X114858800Y-71364600D03*
X121412000Y-73390000D03*
X121412000Y-71390000D03*
X119329200Y-73364600D03*
X119329200Y-71364600D03*
X112750600Y-73364600D03*
X112750600Y-71364600D03*
X116230400Y-80425800D03*
X116230400Y-78425800D03*
X114096800Y-80425800D03*
X114096800Y-78425800D03*
D19*
X82296000Y-54317000D03*
X82296000Y-56427000D03*
X171704000Y-54571000D03*
X171704000Y-56681000D03*
D20*
X88353000Y-54356000D03*
X90463000Y-54356000D03*
D21*
X94708980Y-54864000D03*
X96807020Y-54864000D03*
X96807020Y-56896000D03*
X94708980Y-56896000D03*
X161831020Y-54864000D03*
X159732980Y-54864000D03*
X159732980Y-56642000D03*
X161831020Y-56642000D03*
X105376980Y-54610000D03*
X107475020Y-54610000D03*
X107475020Y-56642000D03*
X105376980Y-56642000D03*
D19*
X153162000Y-77685000D03*
X153162000Y-79795000D03*
X153162000Y-60921000D03*
X153162000Y-63031000D03*
X153162000Y-111467000D03*
X153162000Y-113577000D03*
X153162000Y-94449000D03*
X153162000Y-96559000D03*
X104648000Y-90209000D03*
X104648000Y-88099000D03*
X106172000Y-71667000D03*
X106172000Y-69557000D03*
X104648000Y-121959000D03*
X104648000Y-119849000D03*
D20*
X108660300Y-119722900D03*
X110770300Y-119722900D03*
D19*
X127000000Y-63867400D03*
X127000000Y-65977400D03*
X126974600Y-56706400D03*
X126974600Y-54596400D03*
X129057400Y-56706400D03*
X129057400Y-54596400D03*
X133299200Y-56706400D03*
X133299200Y-54596400D03*
X131165600Y-56706400D03*
X131165600Y-54596400D03*
X135801100Y-56323600D03*
X135801100Y-58433600D03*
D22*
X132134600Y-134734300D03*
X129434600Y-134734300D03*
X110791000Y-109677200D03*
X113491000Y-109677200D03*
D23*
X107696000Y-62564000D03*
X107696000Y-59864000D03*
X109982000Y-62564000D03*
X109982000Y-59864000D03*
X112014000Y-59864000D03*
X112014000Y-62564000D03*
X118922800Y-62589400D03*
X118922800Y-59889400D03*
X116484400Y-59864000D03*
X116484400Y-62564000D03*
X114427000Y-59864000D03*
X114427000Y-62564000D03*
D24*
X164326800Y-127355600D03*
X160386800Y-127355600D03*
X130186200Y-74129900D03*
X134126200Y-74129900D03*
D25*
X153784300Y-146519900D03*
D26*
X151244300Y-146519900D03*
X148704300Y-146519900D03*
X146164300Y-146519900D03*
X143624300Y-146519900D03*
X141084300Y-146519900D03*
X138544300Y-146519900D03*
X136004300Y-146519900D03*
D27*
X157924500Y-142227300D03*
D28*
X157924500Y-139687300D03*
X157924500Y-137147300D03*
D29*
X81788000Y-67056000D03*
D30*
X84074000Y-60706000D03*
D29*
X86360000Y-67056000D03*
X164592000Y-86360000D03*
D30*
X166878000Y-80010000D03*
D29*
X169164000Y-86360000D03*
D31*
X151130000Y-62865000D03*
X151130000Y-61595000D03*
X149098000Y-62865000D03*
X151130000Y-62230000D03*
X149098000Y-61595000D03*
X149098000Y-62230000D03*
D29*
X164338000Y-120142000D03*
D30*
X166624000Y-113792000D03*
D29*
X168910000Y-120142000D03*
D31*
X151130000Y-96393000D03*
X151130000Y-95123000D03*
X149098000Y-96393000D03*
X151130000Y-95758000D03*
X149098000Y-95123000D03*
X149098000Y-95758000D03*
D29*
X94996000Y-78486000D03*
D30*
X92710000Y-84836000D03*
D29*
X90424000Y-78486000D03*
X94996000Y-61214000D03*
D30*
X92710000Y-67564000D03*
D29*
X90424000Y-61214000D03*
D32*
X99949000Y-61976000D03*
X101219000Y-61976000D03*
X99949000Y-59944000D03*
X100584000Y-61976000D03*
X101219000Y-59944000D03*
X100584000Y-59944000D03*
D29*
X94742000Y-112268000D03*
D30*
X92456000Y-118618000D03*
D29*
X90170000Y-112268000D03*
X94742000Y-95250000D03*
D30*
X92456000Y-101600000D03*
D29*
X90170000Y-95250000D03*
D33*
X84836000Y-54422000D03*
X84836000Y-56322000D03*
X169418000Y-54676000D03*
X169418000Y-56576000D03*
D34*
X88458000Y-56642000D03*
X90358000Y-56642000D03*
X166558000Y-54864000D03*
X164658000Y-54864000D03*
D33*
X99060000Y-54676000D03*
X99060000Y-56576000D03*
D34*
X157292000Y-72898000D03*
X159192000Y-72898000D03*
X143698000Y-66802000D03*
X141798000Y-66802000D03*
D35*
X172794000Y-74676000D03*
X175694000Y-74676000D03*
X172794000Y-71374000D03*
X175694000Y-71374000D03*
D33*
X147066000Y-61280000D03*
X147066000Y-63180000D03*
D34*
X157292000Y-106426000D03*
X159192000Y-106426000D03*
D35*
X172540000Y-106680000D03*
X175440000Y-106680000D03*
X172540000Y-110490000D03*
X175440000Y-110490000D03*
D34*
X149164000Y-92202000D03*
X151064000Y-92202000D03*
X97724000Y-74930000D03*
X95824000Y-74930000D03*
D33*
X103124000Y-59502000D03*
X103124000Y-61402000D03*
X107442000Y-104582000D03*
X107442000Y-102682000D03*
X107442000Y-99126000D03*
X107442000Y-101026000D03*
X130238500Y-82552500D03*
X130238500Y-84452500D03*
X130187700Y-78844100D03*
X130187700Y-80744100D03*
D34*
X132483900Y-132524500D03*
X130583900Y-132524500D03*
D33*
X109423200Y-127099100D03*
X109423200Y-125199100D03*
X110769400Y-102829400D03*
X110769400Y-100929400D03*
X118745000Y-95976400D03*
X118745000Y-97876400D03*
D34*
X153756400Y-149618700D03*
X151856400Y-149618700D03*
X149565400Y-149656800D03*
X147665400Y-149656800D03*
X153807200Y-143243300D03*
X151907200Y-143243300D03*
X145603000Y-149656800D03*
X143703000Y-149656800D03*
X140891300Y-149682200D03*
X138991300Y-149682200D03*
X136827300Y-149682200D03*
X134927300Y-149682200D03*
D33*
X106959400Y-118137900D03*
X106959400Y-120037900D03*
D34*
X106568200Y-122021600D03*
X108468200Y-122021600D03*
D33*
X133934200Y-61148000D03*
X133934200Y-59248000D03*
X133921500Y-62753200D03*
X133921500Y-64653200D03*
X131800600Y-62765900D03*
X131800600Y-64665900D03*
X112014000Y-66685200D03*
X112014000Y-64785200D03*
X114427000Y-66685200D03*
X114427000Y-64785200D03*
X118618000Y-57007800D03*
X118618000Y-55107800D03*
X120827800Y-57007800D03*
X120827800Y-55107800D03*
D36*
X94824000Y-136046000D03*
X95474000Y-136046000D03*
X96124000Y-136046000D03*
X96774000Y-136046000D03*
X97424000Y-136046000D03*
X98074000Y-136046000D03*
X98724000Y-136046000D03*
X98724000Y-130146000D03*
X98074000Y-130146000D03*
X97424000Y-130146000D03*
X96774000Y-130146000D03*
X96124000Y-130146000D03*
X95474000Y-130146000D03*
X94824000Y-130146000D03*
X85426000Y-136046000D03*
X86076000Y-136046000D03*
X86726000Y-136046000D03*
X87376000Y-136046000D03*
X88026000Y-136046000D03*
X88676000Y-136046000D03*
X89326000Y-136046000D03*
X89326000Y-130146000D03*
X88676000Y-130146000D03*
X88026000Y-130146000D03*
X87376000Y-130146000D03*
X86726000Y-130146000D03*
X86076000Y-130146000D03*
X85426000Y-130146000D03*
D37*
X145698000Y-95422000D03*
X145698000Y-94772000D03*
X145698000Y-94122000D03*
X145698000Y-93472000D03*
X145698000Y-92822000D03*
X145698000Y-92172000D03*
X145698000Y-91522000D03*
X139798000Y-91522000D03*
X139798000Y-92172000D03*
X139798000Y-92822000D03*
X139798000Y-93472000D03*
X139798000Y-94122000D03*
X139798000Y-94772000D03*
X139798000Y-95422000D03*
X145698000Y-87802000D03*
X145698000Y-87152000D03*
X145698000Y-86502000D03*
X145698000Y-85852000D03*
X145698000Y-85202000D03*
X145698000Y-84552000D03*
X145698000Y-83902000D03*
X139798000Y-83902000D03*
X139798000Y-84552000D03*
X139798000Y-85202000D03*
X139798000Y-85852000D03*
X139798000Y-86502000D03*
X139798000Y-87152000D03*
X139798000Y-87802000D03*
D38*
X153510000Y-82423000D03*
X153510000Y-83693000D03*
X153510000Y-84963000D03*
X153510000Y-86233000D03*
X158910000Y-86233000D03*
X158910000Y-84963000D03*
X158910000Y-83693000D03*
X158910000Y-82423000D03*
D39*
X152062000Y-72964000D03*
X152062000Y-73914000D03*
X152062000Y-74864000D03*
X154262000Y-74864000D03*
X154262000Y-72964000D03*
D38*
X153510000Y-65659000D03*
X153510000Y-66929000D03*
X153510000Y-68199000D03*
X153510000Y-69469000D03*
X158910000Y-69469000D03*
X158910000Y-68199000D03*
X158910000Y-66929000D03*
X158910000Y-65659000D03*
X153256000Y-115951000D03*
X153256000Y-117221000D03*
X153256000Y-118491000D03*
X153256000Y-119761000D03*
X158656000Y-119761000D03*
X158656000Y-118491000D03*
X158656000Y-117221000D03*
X158656000Y-115951000D03*
D39*
X152062000Y-107000000D03*
X152062000Y-107950000D03*
X152062000Y-108900000D03*
X154262000Y-108900000D03*
X154262000Y-107000000D03*
D38*
X153350000Y-99060000D03*
X153350000Y-100330000D03*
X153350000Y-101600000D03*
X153350000Y-102870000D03*
X158750000Y-102870000D03*
X158750000Y-101600000D03*
X158750000Y-100330000D03*
X158750000Y-99060000D03*
D36*
X108417000Y-73504000D03*
X107767000Y-73504000D03*
X107117000Y-73504000D03*
X106467000Y-73504000D03*
X106467000Y-79404000D03*
X107117000Y-79404000D03*
X107767000Y-79404000D03*
X108417000Y-79404000D03*
D40*
X102489000Y-82136000D03*
X101219000Y-82136000D03*
X99949000Y-82136000D03*
X98679000Y-82136000D03*
X98679000Y-87536000D03*
X99949000Y-87536000D03*
X101219000Y-87536000D03*
X102489000Y-87536000D03*
D39*
X83736000Y-89474000D03*
X83736000Y-90424000D03*
X83736000Y-91374000D03*
X85936000Y-91374000D03*
X85936000Y-89474000D03*
D40*
X103759000Y-64356000D03*
X102489000Y-64356000D03*
X101219000Y-64356000D03*
X99949000Y-64356000D03*
X99949000Y-69756000D03*
X101219000Y-69756000D03*
X102489000Y-69756000D03*
X103759000Y-69756000D03*
D36*
X105959000Y-112932000D03*
X106609000Y-112932000D03*
X107259000Y-112932000D03*
X107909000Y-112932000D03*
X107909000Y-107032000D03*
X107259000Y-107032000D03*
X106609000Y-107032000D03*
X105959000Y-107032000D03*
D40*
X102489000Y-115918000D03*
X101219000Y-115918000D03*
X99949000Y-115918000D03*
X98679000Y-115918000D03*
X98679000Y-121318000D03*
X99949000Y-121318000D03*
X101219000Y-121318000D03*
X102489000Y-121318000D03*
D39*
X83736000Y-125542000D03*
X83736000Y-126492000D03*
X83736000Y-127442000D03*
X85936000Y-127442000D03*
X85936000Y-125542000D03*
D40*
X102489000Y-98900000D03*
X101219000Y-98900000D03*
X99949000Y-98900000D03*
X98679000Y-98900000D03*
X98679000Y-104300000D03*
X99949000Y-104300000D03*
X101219000Y-104300000D03*
X102489000Y-104300000D03*
X136347200Y-78580000D03*
X135077200Y-78580000D03*
X133807200Y-78580000D03*
X132537200Y-78580000D03*
X132537200Y-83980000D03*
X133807200Y-83980000D03*
X135077200Y-83980000D03*
X136347200Y-83980000D03*
D41*
X130314700Y-116916200D03*
D42*
X130314700Y-123520200D03*
X132600700Y-123520200D03*
X128028700Y-123520200D03*
D37*
X135327600Y-139093300D03*
X135327600Y-139743300D03*
X135327600Y-140393300D03*
X135327600Y-141043300D03*
X141227600Y-141043300D03*
X141227600Y-140393300D03*
X141227600Y-139743300D03*
X141227600Y-139093300D03*
D43*
X117415000Y-130596400D03*
X116915000Y-130596400D03*
X116415000Y-130596400D03*
X115915000Y-130596400D03*
X115415000Y-130596400D03*
X114915000Y-130596400D03*
X114415000Y-130596400D03*
X113915000Y-130596400D03*
X113415000Y-130596400D03*
X112915000Y-130596400D03*
X112415000Y-130596400D03*
X111915000Y-130596400D03*
X111415000Y-130596400D03*
X110915000Y-130596400D03*
X110415000Y-130596400D03*
X109915000Y-130596400D03*
D44*
X107965000Y-132546400D03*
X107965000Y-133046400D03*
X107965000Y-133546400D03*
X107965000Y-134046400D03*
X107965000Y-134546400D03*
X107965000Y-135046400D03*
X107965000Y-135546400D03*
X107965000Y-136046400D03*
X107965000Y-136546400D03*
X107965000Y-137046400D03*
X107965000Y-137546400D03*
X107965000Y-138046400D03*
X107965000Y-138546400D03*
X107965000Y-139046400D03*
X107965000Y-139546400D03*
X107965000Y-140046400D03*
D43*
X109915000Y-141996400D03*
X110415000Y-141996400D03*
X110915000Y-141996400D03*
X111415000Y-141996400D03*
X111915000Y-141996400D03*
X112415000Y-141996400D03*
X112915000Y-141996400D03*
X113415000Y-141996400D03*
X113915000Y-141996400D03*
X114415000Y-141996400D03*
X114915000Y-141996400D03*
X115415000Y-141996400D03*
X115915000Y-141996400D03*
X116415000Y-141996400D03*
X116915000Y-141996400D03*
X117415000Y-141996400D03*
D44*
X119365000Y-140046400D03*
X119365000Y-139546400D03*
X119365000Y-139046400D03*
X119365000Y-138546400D03*
X119365000Y-138046400D03*
X119365000Y-137546400D03*
X119365000Y-137046400D03*
X119365000Y-136546400D03*
X119365000Y-136046400D03*
X119365000Y-135546400D03*
X119365000Y-135046400D03*
X119365000Y-134546400D03*
X119365000Y-134046400D03*
X119365000Y-133546400D03*
X119365000Y-133046400D03*
X119365000Y-132546400D03*
D40*
X112953800Y-106611400D03*
X114223800Y-106611400D03*
X115493800Y-106611400D03*
X116763800Y-106611400D03*
X116763800Y-101211400D03*
X115493800Y-101211400D03*
X114223800Y-101211400D03*
X112953800Y-101211400D03*
D36*
X125025700Y-100123200D03*
X124375700Y-100123200D03*
X123725700Y-100123200D03*
X123075700Y-100123200D03*
X122425700Y-100123200D03*
X121775700Y-100123200D03*
X121125700Y-100123200D03*
X121125700Y-106023200D03*
X121775700Y-106023200D03*
X122425700Y-106023200D03*
X123075700Y-106023200D03*
X123725700Y-106023200D03*
X124375700Y-106023200D03*
X125025700Y-106023200D03*
D45*
X108860800Y-92111400D03*
X108860800Y-92761400D03*
X108860800Y-93411400D03*
X108860800Y-94061400D03*
X108860800Y-94711400D03*
X108860800Y-95361400D03*
X108860800Y-96011400D03*
X108860800Y-96661400D03*
X114760800Y-96661400D03*
X114760800Y-96011400D03*
X114760800Y-95361400D03*
X114760800Y-94711400D03*
X114760800Y-94061400D03*
X114760800Y-93411400D03*
X114760800Y-92761400D03*
X114760800Y-92111400D03*
D46*
X77978000Y-74856000D03*
X77978000Y-71956000D03*
D47*
X123952000Y-117627400D03*
X125831600Y-116154200D03*
D48*
X112275400Y-125679200D03*
X116375400Y-125679200D03*
D33*
X152146000Y-54676000D03*
X152146000Y-56576000D03*
D35*
X79576000Y-80010000D03*
X82476000Y-80010000D03*
X79322000Y-111506000D03*
X82222000Y-111506000D03*
D34*
X102550000Y-94742000D03*
X100650000Y-94742000D03*
X120279200Y-109105700D03*
X118379200Y-109105700D03*
D20*
X157011000Y-54864000D03*
X154901000Y-54864000D03*
D21*
X149893020Y-54864000D03*
X147794980Y-54864000D03*
X147794980Y-56896000D03*
X149893020Y-56896000D03*
D20*
X109106600Y-115011200D03*
X106996600Y-115011200D03*
D19*
X105156000Y-104941000D03*
X105156000Y-102831000D03*
D49*
X149698200Y-127596900D03*
X152968200Y-127596900D03*
X136706100Y-75018900D03*
X139976100Y-75018900D03*
D19*
X127076200Y-101689800D03*
X127076200Y-99579800D03*
D20*
X123673500Y-109131100D03*
X121563500Y-109131100D03*
D50*
X91805760Y-54676040D03*
X93106240Y-54676040D03*
X92456000Y-56575960D03*
D51*
X155006040Y-58308240D03*
X155006040Y-57007760D03*
X156905960Y-57658000D03*
D31*
X151130000Y-79629000D03*
X151130000Y-78359000D03*
X149098000Y-79629000D03*
X151130000Y-78994000D03*
X149098000Y-78359000D03*
X149098000Y-78994000D03*
D29*
X164592000Y-69342000D03*
D30*
X166878000Y-62992000D03*
D29*
X169164000Y-69342000D03*
D31*
X151130000Y-113411000D03*
X151130000Y-112141000D03*
X149098000Y-113411000D03*
X151130000Y-112776000D03*
X149098000Y-112141000D03*
X149098000Y-112776000D03*
D29*
X164592000Y-103124000D03*
D30*
X166878000Y-96774000D03*
D29*
X169164000Y-103124000D03*
D32*
X99949000Y-79248000D03*
X101219000Y-79248000D03*
X99949000Y-77216000D03*
X100584000Y-79248000D03*
X101219000Y-77216000D03*
X100584000Y-77216000D03*
D31*
X97028000Y-111379000D03*
X97028000Y-112649000D03*
X99060000Y-111379000D03*
X97028000Y-112014000D03*
X99060000Y-112649000D03*
X99060000Y-112014000D03*
X97028000Y-94361000D03*
X97028000Y-95631000D03*
X99060000Y-94361000D03*
X97028000Y-94996000D03*
X99060000Y-95631000D03*
X99060000Y-94996000D03*
D50*
X135862060Y-60327540D03*
X137162540Y-60327540D03*
X136512300Y-62227460D03*
D31*
X123113800Y-76530200D03*
X123113800Y-75260200D03*
X121081800Y-76530200D03*
X123113800Y-75895200D03*
X121081800Y-75260200D03*
X121081800Y-75895200D03*
D33*
X103124000Y-54422000D03*
X103124000Y-56322000D03*
D34*
X147894000Y-76454000D03*
X149794000Y-76454000D03*
D33*
X141986000Y-72964000D03*
X141986000Y-74864000D03*
X144272000Y-72964000D03*
X144272000Y-74864000D03*
D34*
X166690000Y-74930000D03*
X168590000Y-74930000D03*
X166690000Y-72644000D03*
X168590000Y-72644000D03*
X147894000Y-110236000D03*
X149794000Y-110236000D03*
D33*
X146304000Y-107000000D03*
X146304000Y-108900000D03*
X144272000Y-107000000D03*
X144272000Y-108900000D03*
D34*
X166690000Y-109220000D03*
X168590000Y-109220000D03*
X166690000Y-106934000D03*
X168590000Y-106934000D03*
D33*
X103124000Y-77028000D03*
X103124000Y-78928000D03*
D34*
X90236000Y-90424000D03*
X92136000Y-90424000D03*
D33*
X81280000Y-91252000D03*
X81280000Y-93152000D03*
X87884000Y-91374000D03*
X87884000Y-89474000D03*
D35*
X79576000Y-77470000D03*
X82476000Y-77470000D03*
D34*
X81722000Y-94996000D03*
X79822000Y-94996000D03*
X102804000Y-111760000D03*
X100904000Y-111760000D03*
X91252000Y-124714000D03*
X93152000Y-124714000D03*
D33*
X81534000Y-125542000D03*
X81534000Y-127442000D03*
X87884000Y-127442000D03*
X87884000Y-125542000D03*
D35*
X79322000Y-114300000D03*
X82222000Y-114300000D03*
D34*
X81976000Y-129540000D03*
X80076000Y-129540000D03*
D46*
X138607800Y-77975800D03*
X138607800Y-80875800D03*
D34*
X125732500Y-96558100D03*
X127632500Y-96558100D03*
X114848600Y-75793600D03*
X116748600Y-75793600D03*
D15*
X156210000Y-59714000D03*
X156210000Y-62714000D03*
D33*
X161798000Y-81346000D03*
X161798000Y-83246000D03*
X161798000Y-85664000D03*
X161798000Y-87564000D03*
X161798000Y-65720000D03*
X161798000Y-63820000D03*
X161798000Y-70546000D03*
X161798000Y-68646000D03*
X161798000Y-115128000D03*
X161798000Y-117028000D03*
X161798000Y-119700000D03*
X161798000Y-121600000D03*
X161798000Y-100010000D03*
X161798000Y-98110000D03*
X161798000Y-104582000D03*
X161798000Y-102682000D03*
X97282000Y-77282000D03*
X97282000Y-79182000D03*
X97536000Y-62418000D03*
X97536000Y-60518000D03*
X97536000Y-68138000D03*
X97536000Y-70038000D03*
D34*
X95316000Y-127508000D03*
X97216000Y-127508000D03*
D33*
X92964000Y-137602000D03*
X92964000Y-135702000D03*
D52*
X128561200Y-60826600D03*
X128561200Y-60026600D03*
X128561200Y-61626600D03*
X128561200Y-59226600D03*
X126861200Y-61626600D03*
X126861200Y-60826600D03*
X126861200Y-60026600D03*
X126861200Y-59226600D03*
D53*
G36*
X87071200Y-66128900D02*
X87081206Y-66178310D01*
X87108397Y-66218703D01*
X87477600Y-66587906D01*
X87477600Y-68286094D01*
X80148797Y-75614897D01*
X80120934Y-75656911D01*
X80111600Y-75704861D01*
X80162307Y-115712780D01*
X79376368Y-116168397D01*
X78582919Y-116203402D01*
X77914435Y-115791170D01*
X77876449Y-74703286D01*
X85179647Y-67425358D01*
X85207583Y-67383393D01*
X85216677Y-67344448D01*
X85264720Y-66671840D01*
X85647316Y-66181639D01*
X85669829Y-66136532D01*
X85674056Y-66109541D01*
X85694906Y-65671700D01*
X87071200Y-65671700D01*
X87071200Y-66128900D01*
X87071200Y-66128900D01*
G37*
X87071200Y-66128900D02*
X87081206Y-66178310D01*
X87108397Y-66218703D01*
X87477600Y-66587906D01*
X87477600Y-68286094D01*
X80148797Y-75614897D01*
X80120934Y-75656911D01*
X80111600Y-75704861D01*
X80162307Y-115712780D01*
X79376368Y-116168397D01*
X78582919Y-116203402D01*
X77914435Y-115791170D01*
X77876449Y-74703286D01*
X85179647Y-67425358D01*
X85207583Y-67383393D01*
X85216677Y-67344448D01*
X85264720Y-66671840D01*
X85647316Y-66181639D01*
X85669829Y-66136532D01*
X85674056Y-66109541D01*
X85694906Y-65671700D01*
X87071200Y-65671700D01*
X87071200Y-66128900D01*
G36*
X90030300Y-70559394D02*
X84225497Y-76364197D01*
X84197634Y-76406211D01*
X84188300Y-76454000D01*
X84188300Y-81534000D01*
X84198306Y-81583410D01*
X84225497Y-81623803D01*
X86257497Y-83655803D01*
X86299511Y-83683666D01*
X86347300Y-83693000D01*
X89827100Y-83693000D01*
X89827100Y-85953600D01*
X85320406Y-85953600D01*
X81927700Y-82560894D01*
X81927700Y-75490606D01*
X89714606Y-67703700D01*
X90030300Y-67703700D01*
X90030300Y-70559394D01*
X90030300Y-70559394D01*
G37*
X90030300Y-70559394D02*
X84225497Y-76364197D01*
X84197634Y-76406211D01*
X84188300Y-76454000D01*
X84188300Y-81534000D01*
X84198306Y-81583410D01*
X84225497Y-81623803D01*
X86257497Y-83655803D01*
X86299511Y-83683666D01*
X86347300Y-83693000D01*
X89827100Y-83693000D01*
X89827100Y-85953600D01*
X85320406Y-85953600D01*
X81927700Y-82560894D01*
X81927700Y-75490606D01*
X89714606Y-67703700D01*
X90030300Y-67703700D01*
X90030300Y-70559394D01*
G36*
X89890600Y-103998494D02*
X83717497Y-110171597D01*
X83689634Y-110213611D01*
X83680300Y-110261400D01*
X83680300Y-115049300D01*
X83690306Y-115098710D01*
X83717252Y-115138856D01*
X86028652Y-117462956D01*
X86070589Y-117490934D01*
X86118700Y-117500400D01*
X89941400Y-117500400D01*
X89941400Y-119748300D01*
X85091806Y-119748300D01*
X81407000Y-116063494D01*
X81407000Y-109285306D01*
X89460606Y-101231700D01*
X89890600Y-101231700D01*
X89890600Y-103998494D01*
X89890600Y-103998494D01*
G37*
X89890600Y-103998494D02*
X83717497Y-110171597D01*
X83689634Y-110213611D01*
X83680300Y-110261400D01*
X83680300Y-115049300D01*
X83690306Y-115098710D01*
X83717252Y-115138856D01*
X86028652Y-117462956D01*
X86070589Y-117490934D01*
X86118700Y-117500400D01*
X89941400Y-117500400D01*
X89941400Y-119748300D01*
X85091806Y-119748300D01*
X81407000Y-116063494D01*
X81407000Y-109285306D01*
X89460606Y-101231700D01*
X89890600Y-101231700D01*
X89890600Y-103998494D01*
G36*
X174498000Y-50306506D02*
X174498000Y-50849202D01*
X174493985Y-50855441D01*
X174486281Y-50885848D01*
X174460881Y-51089048D01*
X174459900Y-51104800D01*
X174459900Y-51917600D01*
X174469906Y-51967010D01*
X174497097Y-52007403D01*
X177165000Y-54675306D01*
X177165000Y-111643894D01*
X176629794Y-112179100D01*
X175707758Y-112179100D01*
X174904385Y-111593786D01*
X174891700Y-55638671D01*
X174881683Y-55589263D01*
X174855338Y-55549741D01*
X172199300Y-52843589D01*
X172199300Y-50255520D01*
X172926006Y-49733200D01*
X173924694Y-49733200D01*
X174498000Y-50306506D01*
X174498000Y-50306506D01*
G37*
X174498000Y-50306506D02*
X174498000Y-50849202D01*
X174493985Y-50855441D01*
X174486281Y-50885848D01*
X174460881Y-51089048D01*
X174459900Y-51104800D01*
X174459900Y-51917600D01*
X174469906Y-51967010D01*
X174497097Y-52007403D01*
X177165000Y-54675306D01*
X177165000Y-111643894D01*
X176629794Y-112179100D01*
X175707758Y-112179100D01*
X174904385Y-111593786D01*
X174891700Y-55638671D01*
X174881683Y-55589263D01*
X174855338Y-55549741D01*
X172199300Y-52843589D01*
X172199300Y-50255520D01*
X172926006Y-49733200D01*
X173924694Y-49733200D01*
X174498000Y-50306506D01*
G36*
X168527667Y-67944767D02*
X168535350Y-67945000D01*
X169867117Y-67945000D01*
X169875287Y-68165600D01*
X169887115Y-68214606D01*
X169912397Y-68250703D01*
X173596129Y-71934435D01*
X173558373Y-83550807D01*
X169913023Y-87145876D01*
X169884869Y-87187695D01*
X169875200Y-87236300D01*
X169875200Y-87782400D01*
X168465500Y-87782400D01*
X168465500Y-87439500D01*
X168446867Y-87373276D01*
X168046400Y-86717966D01*
X168046400Y-86021333D01*
X168440100Y-85496400D01*
X168461741Y-85450868D01*
X168465470Y-85422960D01*
X168475469Y-84963000D01*
X168922700Y-84963000D01*
X168972110Y-84952994D01*
X169017098Y-84920959D01*
X171303098Y-82380959D01*
X171328715Y-82337539D01*
X171335700Y-82296000D01*
X171335700Y-72948800D01*
X171325694Y-72899390D01*
X171298503Y-72858997D01*
X169279203Y-70839697D01*
X169237189Y-70811834D01*
X169187636Y-70802512D01*
X168404102Y-70813394D01*
X168450633Y-67940098D01*
X168527667Y-67944767D01*
X168527667Y-67944767D01*
G37*
X168527667Y-67944767D02*
X168535350Y-67945000D01*
X169867117Y-67945000D01*
X169875287Y-68165600D01*
X169887115Y-68214606D01*
X169912397Y-68250703D01*
X173596129Y-71934435D01*
X173558373Y-83550807D01*
X169913023Y-87145876D01*
X169884869Y-87187695D01*
X169875200Y-87236300D01*
X169875200Y-87782400D01*
X168465500Y-87782400D01*
X168465500Y-87439500D01*
X168446867Y-87373276D01*
X168046400Y-86717966D01*
X168046400Y-86021333D01*
X168440100Y-85496400D01*
X168461741Y-85450868D01*
X168465470Y-85422960D01*
X168475469Y-84963000D01*
X168922700Y-84963000D01*
X168972110Y-84952994D01*
X169017098Y-84920959D01*
X171303098Y-82380959D01*
X171328715Y-82337539D01*
X171335700Y-82296000D01*
X171335700Y-72948800D01*
X171325694Y-72899390D01*
X171298503Y-72858997D01*
X169279203Y-70839697D01*
X169237189Y-70811834D01*
X169187636Y-70802512D01*
X168404102Y-70813394D01*
X168450633Y-67940098D01*
X168527667Y-67944767D01*
G36*
X169875200Y-102222300D02*
X169885206Y-102271710D01*
X169912397Y-102312103D01*
X173088300Y-105488006D01*
X173088300Y-119036967D01*
X170963150Y-121260391D01*
X169405300Y-121283133D01*
X169405300Y-119059935D01*
X169903191Y-119049774D01*
X169952387Y-119038762D01*
X169992466Y-119010490D01*
X170792566Y-118172290D01*
X170819445Y-118129641D01*
X170827700Y-118084739D01*
X170840400Y-106451539D01*
X170830448Y-106402118D01*
X170803203Y-106361597D01*
X168351200Y-103909594D01*
X168351200Y-101790500D01*
X168376600Y-101790500D01*
X168426010Y-101780494D01*
X168467635Y-101752053D01*
X168483756Y-101727000D01*
X169875200Y-101727000D01*
X169875200Y-102222300D01*
X169875200Y-102222300D01*
G37*
X169875200Y-102222300D02*
X169885206Y-102271710D01*
X169912397Y-102312103D01*
X173088300Y-105488006D01*
X173088300Y-119036967D01*
X170963150Y-121260391D01*
X169405300Y-121283133D01*
X169405300Y-119059935D01*
X169903191Y-119049774D01*
X169952387Y-119038762D01*
X169992466Y-119010490D01*
X170792566Y-118172290D01*
X170819445Y-118129641D01*
X170827700Y-118084739D01*
X170840400Y-106451539D01*
X170830448Y-106402118D01*
X170803203Y-106361597D01*
X168351200Y-103909594D01*
X168351200Y-101790500D01*
X168376600Y-101790500D01*
X168426010Y-101780494D01*
X168467635Y-101752053D01*
X168483756Y-101727000D01*
X169875200Y-101727000D01*
X169875200Y-102222300D01*
G36*
X162824708Y-74621004D02*
X163029157Y-74782411D01*
X163194215Y-75136106D01*
X163224177Y-75176650D01*
X163250953Y-75195204D01*
X163612856Y-75382395D01*
X164686367Y-76102279D01*
X164686653Y-76102470D01*
X165258153Y-76483470D01*
X165283819Y-76496643D01*
X166841198Y-77083481D01*
X164176795Y-79483844D01*
X164146782Y-79524350D01*
X164135516Y-79564730D01*
X164047010Y-80394470D01*
X163391237Y-80343238D01*
X162215500Y-79535660D01*
X162191663Y-78546441D01*
X162180470Y-78497286D01*
X162152941Y-78458163D01*
X161443441Y-77772714D01*
X161454122Y-77217313D01*
X162029316Y-76618152D01*
X162056316Y-76575578D01*
X162064161Y-76518510D01*
X161928840Y-75054580D01*
X162258841Y-74596836D01*
X162718785Y-74575608D01*
X162824708Y-74621004D01*
X162824708Y-74621004D01*
G37*
X162824708Y-74621004D02*
X163029157Y-74782411D01*
X163194215Y-75136106D01*
X163224177Y-75176650D01*
X163250953Y-75195204D01*
X163612856Y-75382395D01*
X164686367Y-76102279D01*
X164686653Y-76102470D01*
X165258153Y-76483470D01*
X165283819Y-76496643D01*
X166841198Y-77083481D01*
X164176795Y-79483844D01*
X164146782Y-79524350D01*
X164135516Y-79564730D01*
X164047010Y-80394470D01*
X163391237Y-80343238D01*
X162215500Y-79535660D01*
X162191663Y-78546441D01*
X162180470Y-78497286D01*
X162152941Y-78458163D01*
X161443441Y-77772714D01*
X161454122Y-77217313D01*
X162029316Y-76618152D01*
X162056316Y-76575578D01*
X162064161Y-76518510D01*
X161928840Y-75054580D01*
X162258841Y-74596836D01*
X162718785Y-74575608D01*
X162824708Y-74621004D01*
G36*
X165376024Y-58951943D02*
X166865787Y-59973151D01*
X166877615Y-61593579D01*
X165212182Y-63259012D01*
X163183792Y-63271086D01*
X162661840Y-62749134D01*
X162674117Y-60048097D01*
X163476524Y-58912383D01*
X163490071Y-58881659D01*
X165376024Y-58951943D01*
X165376024Y-58951943D01*
G37*
X165376024Y-58951943D02*
X166865787Y-59973151D01*
X166877615Y-61593579D01*
X165212182Y-63259012D01*
X163183792Y-63271086D01*
X162661840Y-62749134D01*
X162674117Y-60048097D01*
X163476524Y-58912383D01*
X163490071Y-58881659D01*
X165376024Y-58951943D01*
G36*
X166836580Y-91746169D02*
X166998033Y-92265127D01*
X167015956Y-92301217D01*
X167246300Y-92623699D01*
X167246300Y-94131818D01*
X164719729Y-94120282D01*
X164731698Y-92037630D01*
X164725331Y-92005235D01*
X164929870Y-91718881D01*
X165229644Y-91579700D01*
X166493236Y-91579700D01*
X166836580Y-91746169D01*
X166836580Y-91746169D01*
G37*
X166836580Y-91746169D02*
X166998033Y-92265127D01*
X167015956Y-92301217D01*
X167246300Y-92623699D01*
X167246300Y-94131818D01*
X164719729Y-94120282D01*
X164731698Y-92037630D01*
X164725331Y-92005235D01*
X164929870Y-91718881D01*
X165229644Y-91579700D01*
X166493236Y-91579700D01*
X166836580Y-91746169D01*
G36*
X164831721Y-108950401D02*
X164858700Y-108953300D01*
X164907694Y-108953300D01*
X164999742Y-109045348D01*
X165011142Y-109489955D01*
X165022411Y-109539093D01*
X165051909Y-109579975D01*
X165096378Y-109606651D01*
X165348524Y-109694354D01*
X166090337Y-110795109D01*
X166066049Y-114377507D01*
X163806102Y-114401048D01*
X161949747Y-112532481D01*
X161924990Y-110551913D01*
X161914367Y-110502631D01*
X161890075Y-110466029D01*
X161198765Y-109738334D01*
X161177776Y-109287078D01*
X161460500Y-108931056D01*
X161918720Y-108856462D01*
X162200243Y-108991593D01*
X162255200Y-109004100D01*
X163880800Y-109004100D01*
X163933072Y-108992844D01*
X164288528Y-108832316D01*
X164831721Y-108950401D01*
X164831721Y-108950401D01*
G37*
X164831721Y-108950401D02*
X164858700Y-108953300D01*
X164907694Y-108953300D01*
X164999742Y-109045348D01*
X165011142Y-109489955D01*
X165022411Y-109539093D01*
X165051909Y-109579975D01*
X165096378Y-109606651D01*
X165348524Y-109694354D01*
X166090337Y-110795109D01*
X166066049Y-114377507D01*
X163806102Y-114401048D01*
X161949747Y-112532481D01*
X161924990Y-110551913D01*
X161914367Y-110502631D01*
X161890075Y-110466029D01*
X161198765Y-109738334D01*
X161177776Y-109287078D01*
X161460500Y-108931056D01*
X161918720Y-108856462D01*
X162200243Y-108991593D01*
X162255200Y-109004100D01*
X163880800Y-109004100D01*
X163933072Y-108992844D01*
X164288528Y-108832316D01*
X164831721Y-108950401D01*
G36*
X90788822Y-109537452D02*
X90792300Y-109537500D01*
X91109654Y-109537500D01*
X91872327Y-110558308D01*
X91909711Y-113549074D01*
X91836835Y-113850988D01*
X91585534Y-114005635D01*
X91260548Y-113985324D01*
X90924071Y-113706860D01*
X90879626Y-113683066D01*
X90844141Y-113677704D01*
X89294741Y-113665004D01*
X89245250Y-113674605D01*
X89220870Y-113687958D01*
X88755387Y-114013796D01*
X88394173Y-113953594D01*
X88189271Y-113719420D01*
X88213485Y-111261746D01*
X88230915Y-111234659D01*
X88238271Y-111206827D01*
X88409992Y-110029314D01*
X88732596Y-109706710D01*
X89874203Y-109512394D01*
X90788822Y-109537452D01*
X90788822Y-109537452D01*
G37*
X90788822Y-109537452D02*
X90792300Y-109537500D01*
X91109654Y-109537500D01*
X91872327Y-110558308D01*
X91909711Y-113549074D01*
X91836835Y-113850988D01*
X91585534Y-114005635D01*
X91260548Y-113985324D01*
X90924071Y-113706860D01*
X90879626Y-113683066D01*
X90844141Y-113677704D01*
X89294741Y-113665004D01*
X89245250Y-113674605D01*
X89220870Y-113687958D01*
X88755387Y-114013796D01*
X88394173Y-113953594D01*
X88189271Y-113719420D01*
X88213485Y-111261746D01*
X88230915Y-111234659D01*
X88238271Y-111206827D01*
X88409992Y-110029314D01*
X88732596Y-109706710D01*
X89874203Y-109512394D01*
X90788822Y-109537452D01*
G36*
X91650514Y-92974065D02*
X91897329Y-93392578D01*
X91909694Y-96706211D01*
X91618631Y-96977200D01*
X91259995Y-96977200D01*
X90927878Y-96679440D01*
X90884410Y-96653906D01*
X90843100Y-96647000D01*
X89750900Y-96647000D01*
X89701490Y-96657006D01*
X89661097Y-96684197D01*
X89127943Y-97217351D01*
X88652176Y-97207009D01*
X88442800Y-96978599D01*
X88442800Y-93573600D01*
X88434549Y-93532857D01*
X88749406Y-93218000D01*
X88963500Y-93218000D01*
X89012910Y-93207994D01*
X89053303Y-93180803D01*
X89461111Y-92772995D01*
X90715119Y-92760937D01*
X91650514Y-92974065D01*
X91650514Y-92974065D01*
G37*
X91650514Y-92974065D02*
X91897329Y-93392578D01*
X91909694Y-96706211D01*
X91618631Y-96977200D01*
X91259995Y-96977200D01*
X90927878Y-96679440D01*
X90884410Y-96653906D01*
X90843100Y-96647000D01*
X89750900Y-96647000D01*
X89701490Y-96657006D01*
X89661097Y-96684197D01*
X89127943Y-97217351D01*
X88652176Y-97207009D01*
X88442800Y-96978599D01*
X88442800Y-93573600D01*
X88434549Y-93532857D01*
X88749406Y-93218000D01*
X88963500Y-93218000D01*
X89012910Y-93207994D01*
X89053303Y-93180803D01*
X89461111Y-92772995D01*
X90715119Y-92760937D01*
X91650514Y-92974065D01*
G36*
X90320339Y-75583883D02*
X90323325Y-75584837D01*
X90921156Y-75767846D01*
X91130097Y-75941964D01*
X91174460Y-75965909D01*
X91211400Y-75971400D01*
X91895394Y-75971400D01*
X92163900Y-76239906D01*
X92163900Y-79477867D01*
X91942173Y-79718874D01*
X91272672Y-79730620D01*
X91223445Y-79741491D01*
X91182326Y-79770657D01*
X91155794Y-79813523D01*
X91148339Y-79847053D01*
X91145343Y-79883000D01*
X89763600Y-79883000D01*
X89714190Y-79893006D01*
X89678641Y-79915602D01*
X89335377Y-80224539D01*
X88974286Y-80214509D01*
X88671400Y-79952008D01*
X88671400Y-76598745D01*
X88770642Y-76422315D01*
X89015943Y-76217897D01*
X89305075Y-76250023D01*
X89355288Y-76245535D01*
X89399799Y-76221865D01*
X89431594Y-76182742D01*
X89445990Y-76118513D01*
X89434844Y-75851017D01*
X89608813Y-75554246D01*
X89905297Y-75445536D01*
X90320339Y-75583883D01*
X90320339Y-75583883D01*
G37*
X90320339Y-75583883D02*
X90323325Y-75584837D01*
X90921156Y-75767846D01*
X91130097Y-75941964D01*
X91174460Y-75965909D01*
X91211400Y-75971400D01*
X91895394Y-75971400D01*
X92163900Y-76239906D01*
X92163900Y-79477867D01*
X91942173Y-79718874D01*
X91272672Y-79730620D01*
X91223445Y-79741491D01*
X91182326Y-79770657D01*
X91155794Y-79813523D01*
X91148339Y-79847053D01*
X91145343Y-79883000D01*
X89763600Y-79883000D01*
X89714190Y-79893006D01*
X89678641Y-79915602D01*
X89335377Y-80224539D01*
X88974286Y-80214509D01*
X88671400Y-79952008D01*
X88671400Y-76598745D01*
X88770642Y-76422315D01*
X89015943Y-76217897D01*
X89305075Y-76250023D01*
X89355288Y-76245535D01*
X89399799Y-76221865D01*
X89431594Y-76182742D01*
X89445990Y-76118513D01*
X89434844Y-75851017D01*
X89608813Y-75554246D01*
X89905297Y-75445536D01*
X90320339Y-75583883D01*
G36*
X89559497Y-59678203D02*
X89601511Y-59706066D01*
X89649300Y-59715400D01*
X89916000Y-59715400D01*
X89916000Y-62710794D01*
X89228394Y-63398400D01*
X88216006Y-63398400D01*
X88036400Y-63218794D01*
X88036400Y-60584767D01*
X88063935Y-60565953D01*
X88091215Y-60523559D01*
X88099900Y-60477400D01*
X88099900Y-59768006D01*
X88355706Y-59512200D01*
X89393494Y-59512200D01*
X89559497Y-59678203D01*
X89559497Y-59678203D01*
G37*
X89559497Y-59678203D02*
X89601511Y-59706066D01*
X89649300Y-59715400D01*
X89916000Y-59715400D01*
X89916000Y-62710794D01*
X89228394Y-63398400D01*
X88216006Y-63398400D01*
X88036400Y-63218794D01*
X88036400Y-60584767D01*
X88063935Y-60565953D01*
X88091215Y-60523559D01*
X88099900Y-60477400D01*
X88099900Y-59768006D01*
X88355706Y-59512200D01*
X89393494Y-59512200D01*
X89559497Y-59678203D01*
G36*
X87233248Y-57555419D02*
X87249000Y-57556400D01*
X87263831Y-57556400D01*
X87477439Y-57825732D01*
X87355369Y-58258525D01*
X87351586Y-58308795D01*
X87366321Y-58354204D01*
X87490300Y-58579620D01*
X87490300Y-58837294D01*
X87128643Y-59198951D01*
X87052873Y-59111524D01*
X87012951Y-59080738D01*
X86961277Y-59067775D01*
X86592977Y-59055075D01*
X86582833Y-59055131D01*
X86306863Y-59067675D01*
X84849804Y-59055005D01*
X84848700Y-59055000D01*
X83898006Y-59055000D01*
X83718400Y-58875394D01*
X83718400Y-57799506D01*
X83974206Y-57543700D01*
X87139496Y-57543700D01*
X87233248Y-57555419D01*
X87233248Y-57555419D01*
G37*
X87233248Y-57555419D02*
X87249000Y-57556400D01*
X87263831Y-57556400D01*
X87477439Y-57825732D01*
X87355369Y-58258525D01*
X87351586Y-58308795D01*
X87366321Y-58354204D01*
X87490300Y-58579620D01*
X87490300Y-58837294D01*
X87128643Y-59198951D01*
X87052873Y-59111524D01*
X87012951Y-59080738D01*
X86961277Y-59067775D01*
X86592977Y-59055075D01*
X86582833Y-59055131D01*
X86306863Y-59067675D01*
X84849804Y-59055005D01*
X84848700Y-59055000D01*
X83898006Y-59055000D01*
X83718400Y-58875394D01*
X83718400Y-57799506D01*
X83974206Y-57543700D01*
X87139496Y-57543700D01*
X87233248Y-57555419D01*
M02*
