M48
METRIC,TZ
T1C0.400
T2C0.600
T3C1.016
T4C1.270
T5C2.540
%
G90
G05
T1
X81.026Y-92.71
X81.28Y-122.174
X81.28Y-126.746
X82.804Y-120.65
X82.804Y-132.842
X83.312Y-136.652
X86.868Y-134.62
X87.376Y-129.032
X88.646Y-131.318
X88.646Y-134.874
X88.9Y-72.898
X88.9Y-106.934
X89.662Y-127.508
X89.916Y-130.048
X89.916Y-136.144
X92.964Y-135.128
X93.218Y-138.43
X93.472Y-97.028
X93.726Y-114.046
X96.266Y-102.87
X96.52Y-100.33
X96.52Y-101.854
X96.52Y-117.094
X96.52Y-118.618
X96.52Y-121.158
X96.774Y-131.318
X97.79Y-127.254
X99.123Y-139.446
X99.568Y-126.746
X99.568Y-136.144
X99.822Y-131.064
X100.076Y-135.128
X100.533Y-131.978
X101.854Y-62.738
X101.854Y-67.056
X101.854Y-74.93
X101.854Y-80.264
X101.854Y-84.582
X101.854Y-92.964
X101.854Y-102.108
X101.854Y-109.728
X101.854Y-118.348
X102.591Y-126.581
X102.87Y-66.056
X102.87Y-83.566
X102.87Y-96.52
X102.87Y-100.584
X102.87Y-113.538
X102.87Y-117.348
X102.921Y-135.458
X103.149Y-74.041
X103.353Y-140.005
X103.721Y-114.109
X103.861Y-135.814
X103.886Y-59.182
X103.886Y-76.962
X103.886Y-94.742
X103.886Y-112.268
X104.216Y-137.96
X104.28Y-114.884
X104.508Y-132.969
X104.508Y-139.979
X104.572Y-134.15
X104.648Y-62.23
X104.648Y-72.644
X104.648Y-78.994
X104.648Y-80.01
X104.648Y-90.932
X104.648Y-98.044
X105.41Y-62.992
X105.41Y-64.262
X105.41Y-97.282
X105.435Y-125.92
X105.766Y-138.544
X105.918Y-81.534
X105.918Y-110.998
X105.918Y-112.014
X105.994Y-144.386
X106.299Y-93.574
X106.477Y-77.495
X106.629Y-80.645
X107.188Y-74.93
X107.442Y-108.966
X107.594Y-82.398
X107.772Y-80.67
X107.823Y-63.602
X107.861Y-140.576
X107.95Y-74.676
X107.95Y-131.394
X108.382Y-82.779
X108.382Y-128.422
X108.585Y-116.332
X108.712Y-56.642
X108.712Y-129.527
X109.144Y-76.378
X109.195Y-82.601
X109.22Y-113.284
X109.474Y-52.07
X109.55Y-136.601
X109.766Y-118.402
X109.779Y-142.926
X110.033Y-82.626
X110.363Y-96.393
X110.388Y-140.995
X110.49Y-56.388
X110.49Y-94.132
X110.49Y-94.996
X110.515Y-98.704
X111.074Y-133.198
X111.112Y-132.309
X111.138Y-140.678
X111.265Y-129.502
X111.595Y-98.514
X111.608Y-94.361
X111.773Y-118.681
X111.785Y-117.589
X111.785Y-119.621
X112.014Y-55.118
X112.065Y-93.015
X112.319Y-138.493
X112.382Y-139.382
X112.433Y-91.173
X112.471Y-67.259
X112.56Y-116.802
X112.776Y-54.356
X112.827Y-94.005
X112.865Y-129.146
X112.954Y-73.838
X112.954Y-77.927
X113.135Y-103.492
X113.983Y-105.334
X114.275Y-91.211
X114.694Y-135.039
X114.91Y-67.285
X115.24Y-104.877
X115.252Y-133.109
X115.265Y-90.17
X115.608Y-135.039
X115.735Y-119.685
X115.786Y-109.017
X116.002Y-87.3
X116.002Y-146.52
X116.103Y-110.846
X116.307Y-85.09
X116.37Y-118.948
X116.51Y-81.153
X116.637Y-132.677
X116.675Y-138.773
X116.713Y-113.513
X116.751Y-145.974
X116.891Y-123.469
X117.246Y-103.873
X117.342Y-120.415
X117.462Y-137.414
X117.551Y-92.786
X117.564Y-134.404
X117.589Y-139.814
X117.742Y-119.418
X117.742Y-143.129
X117.881Y-70.688
X117.881Y-87.605
X118.072Y-135.928
X118.288Y-86.716
X118.313Y-129.756
X118.745Y-57.582
X118.745Y-74.828
X118.847Y-64.211
X119.05Y-87.808
X119.113Y-113.932
X119.355Y-140.792
X119.951Y-122.352
X119.99Y-125.298
X120.142Y-116.954
X120.32Y-87.655
X120.485Y-140.017
X120.625Y-137.909
X120.675Y-78.029
X120.688Y-102.197
X120.688Y-124.6
X120.802Y-57.734
X121.107Y-137.224
X121.437Y-102.705
X121.437Y-134.417
X121.514Y-59.461
X121.666Y-89.687
X121.679Y-103.873
X121.831Y-124.396
X122.085Y-133.858
X122.364Y-97.371
X122.377Y-54.
X122.39Y-129.07
X122.441Y-126.213
X122.606Y-79.388
X122.949Y-124.333
X123.063Y-96.329
X123.253Y-107.759
X123.355Y-119.24
X123.495Y-70.663
X123.507Y-78.092
X123.673Y-74.701
X124.028Y-98.742
X124.193Y-134.531
X124.46Y-112.243
X124.562Y-133.502
X124.65Y-119.38
X124.739Y-129.743
X125.273Y-137.033
X125.311Y-94.907
X125.336Y-136.03
X125.501Y-62.7
X125.857Y-60.833
X125.882Y-59.969
X125.895Y-103.276
X126.06Y-135.255
X126.149Y-64.694
X126.314Y-93.599
X126.416Y-113.754
X126.517Y-66.484
X126.619Y-58.547
X126.848Y-67.437
X127.572Y-105.575
X128.118Y-133.845
X128.308Y-98.006
X128.321Y-94.005
X128.689Y-131.381
X128.727Y-70.485
X128.981Y-125.019
X128.994Y-121.107
X129.794Y-66.497
X130.073Y-96.799
X130.099Y-98.628
X130.162Y-70.244
X130.289Y-125.006
X130.632Y-76.644
X130.67Y-77.254
X130.797Y-139.192
X130.823Y-85.649
X131.496Y-89.103
X131.724Y-101.829
X131.902Y-109.487
X131.953Y-108.28
X131.991Y-99.238
X132.004Y-103.073
X132.232Y-95.936
X132.486Y-81.852
X132.588Y-149.923
X132.893Y-90.31
X132.969Y-139.967
X133.464Y-137.643
X133.502Y-120.32
X133.528Y-132.004
X133.807Y-135.268
X133.858Y-124.054
X133.972Y-79.68
X134.112Y-94.082
X134.353Y-113.538
X134.633Y-135.788
X134.988Y-67.589
X135.306Y-63.729
X135.7Y-136.055
X136.106Y-63.729
X136.22Y-85.738
X136.462Y-118.796
X137.096Y-47.269
X137.211Y-66.103
X137.731Y-61.747
X137.82Y-84.43
X137.858Y-82.588
X137.986Y-81.839
X138.849Y-62.89
X138.862Y-63.703
X139.052Y-131.293
X140.119Y-89.078
X140.462Y-72.136
X140.665Y-65.735
X140.97Y-96.012
X141.173Y-88.125
X141.465Y-64.211
X141.478Y-84.074
X141.478Y-86.106
X141.491Y-127.635
X141.732Y-77.216
X141.859Y-61.265
X142.367Y-88.125
X142.494Y-67.056
X142.494Y-93.472
X142.57Y-129.222
X142.634Y-71.12
X142.659Y-86.195
X142.926Y-68.402
X143.256Y-65.532
X144.018Y-109.728
X144.767Y-125.717
X144.78Y-64.262
X144.78Y-65.278
X144.78Y-114.262
X144.907Y-82.398
X145.034Y-90.678
X145.034Y-105.41
X145.123Y-88.811
X145.542Y-96.012
X145.796Y-61.976
X146.05Y-111.252
X146.368Y-115.811
X146.507Y-102.667
X146.55Y-68.588
X146.558Y-64.516
X146.558Y-73.914
X146.558Y-100.076
X146.812Y-97.536
X147.066Y-96.774
X147.32Y-113.03
X147.46Y-125.857
X147.574Y-67.564
X147.574Y-72.136
X147.574Y-79.248
X147.574Y-80.518
X147.574Y-85.598
X147.574Y-94.234
X148.082Y-115.062
X148.844Y-94.488
X148.844Y-108.712
X149.352Y-80.518
X149.352Y-85.598
X149.377Y-129.654
X149.86Y-97.028
X149.86Y-103.632
X149.86Y-107.95
X149.86Y-114.3
X149.86Y-120.65
X149.936Y-123.114
X150.038Y-125.438
X150.876Y-83.312
X150.876Y-99.822
X150.876Y-106.172
X150.876Y-117.094
X150.889Y-104.28
X154.407Y-126.124
X155.181Y-122.771
X157.683Y-124.384
X157.797Y-129.286
X158.242Y-56.388
X160.782Y-62.484
X160.782Y-114.046
X161.036Y-97.028
X161.798Y-53.848
X167.894Y-74.93
X168.148Y-109.22
X168.91Y-88.9
X168.91Y-122.936
X169.418Y-106.934
X169.672Y-72.644
X170.942Y-54.102
T2
X80.01Y-70.612
X82.55Y-86.868
X82.55Y-90.424
X84.074Y-57.912
X84.074Y-58.674
X84.836Y-57.912
X84.836Y-58.674
X85.598Y-57.912
X85.598Y-58.674
X86.36Y-57.912
X86.36Y-58.674
X87.122Y-57.912
X87.122Y-58.674
X88.392Y-59.944
X88.392Y-60.706
X88.392Y-61.468
X88.392Y-62.23
X88.392Y-62.992
X88.646Y-111.252
X88.646Y-112.268
X88.646Y-113.538
X88.9Y-93.726
X88.9Y-94.742
X88.9Y-95.758
X88.9Y-96.774
X88.9Y-110.236
X89.154Y-59.944
X89.154Y-60.706
X89.154Y-61.468
X89.154Y-62.23
X89.154Y-62.992
X89.154Y-76.708
X89.154Y-77.724
X89.154Y-78.74
X89.154Y-79.756
X89.662Y-93.218
X89.916Y-75.946
X89.916Y-109.982
X90.424Y-71.374
X90.678Y-76.2
X90.678Y-93.218
X90.932Y-109.982
X91.44Y-93.472
X91.44Y-94.488
X91.44Y-95.504
X91.44Y-96.52
X91.44Y-110.744
X91.44Y-111.506
X91.44Y-112.522
X91.44Y-113.538
X91.694Y-76.454
X91.694Y-77.47
X91.694Y-78.232
X91.694Y-79.248
X92.202Y-88.646
X160.782Y-79.756
X161.798Y-109.474
X162.052Y-77.47
X162.56Y-75.184
X162.56Y-110.236
X162.56Y-111.252
X162.56Y-112.268
X162.814Y-78.232
X162.814Y-79.248
X162.916Y-61.887
X162.941Y-61.049
X162.941Y-62.636
X162.954Y-60.261
X163.322Y-75.946
X163.563Y-59.271
X164.084Y-76.454
X164.338Y-59.144
X164.338Y-109.474
X164.846Y-76.962
X165.1Y-109.982
X165.163Y-59.157
X165.354Y-77.724
X165.354Y-78.74
X165.354Y-79.756
X165.354Y-92.202
X165.354Y-93.218
X165.354Y-94.234
X165.354Y-95.25
X165.354Y-96.266
X165.354Y-110.744
X165.354Y-111.76
X165.354Y-112.776
X165.354Y-113.792
X165.608Y-60.77
X165.608Y-61.468
X165.621Y-59.88
X166.37Y-92.202
X166.37Y-93.218
X166.37Y-94.234
X166.37Y-95.25
X166.37Y-96.266
X171.196Y-66.294
X174.244Y-69.85
T3
X136.004Y-146.52
X138.544Y-146.52
X141.084Y-146.52
X143.624Y-146.52
X146.164Y-146.52
X148.704Y-146.52
X151.244Y-146.52
X153.784Y-146.52
X157.924Y-137.147
X157.924Y-139.687
X157.924Y-142.227
T4
X81.636Y-42.926
X81.636Y-46.914
X81.636Y-50.902
X85.598Y-42.926
X85.598Y-46.914
X85.598Y-50.902
X89.56Y-42.926
X89.56Y-46.914
X89.56Y-50.902
X93.523Y-42.926
X93.523Y-46.914
X93.523Y-50.902
X97.485Y-42.926
X97.485Y-46.914
X97.485Y-50.902
X113.335Y-42.926
X113.335Y-46.914
X113.335Y-50.902
X117.297Y-42.926
X117.297Y-46.914
X117.297Y-50.902
X121.26Y-42.926
X121.26Y-46.914
X121.26Y-50.902
X125.222Y-42.926
X125.222Y-46.914
X125.222Y-50.902
X129.184Y-42.926
X129.184Y-46.914
X129.184Y-50.902
X141.63Y-42.926
X141.63Y-46.914
X141.63Y-50.902
X145.593Y-42.926
X145.593Y-46.914
X145.593Y-50.902
X149.555Y-42.926
X149.555Y-46.914
X149.555Y-50.902
X165.405Y-42.926
X165.405Y-46.914
X165.405Y-50.902
X169.367Y-42.926
X169.367Y-46.914
X169.367Y-50.902
X173.33Y-42.926
X173.33Y-46.914
X173.33Y-50.902
T5
X105.41Y-47.625
X157.48Y-47.625
T0
M30
