M48
INCH,TZ
T1C0.016
T2C0.030
T3C0.050
T4C0.100
%
G90
G05
T1
X33430Y-57170
X33768Y-57068
X33860Y-31540
X33890Y-43890
X33895Y-58400
X33925Y-51150
X33975Y-38900
X34090Y-46170
X34180Y-31540
X34200Y-36470
X34250Y-38900
X34263Y-53486
X34280Y-58380
X34300Y-51160
X34370Y-46170
X34510Y-29300
X34520Y-53229
X34530Y-43930
X34690Y-51170
X34716Y-24590
X34760Y-31560
X34875Y-38875
X34943Y-36432
X35070Y-46370
X35080Y-31560
X35150Y-38875
X35160Y-53500
X35360Y-46350
X35370Y-53310
X35480Y-24120
X36050Y-38280
X36642Y-44075
X36650Y-44460
X36900Y-23351
X39884Y-22510
X40200Y-39380
X40350Y-21120
X40500Y-42075
X40525Y-41700
X40540Y-44750
X40540Y-47480
X40550Y-44120
X40550Y-51390
X40553Y-44435
X41670Y-54890
X42470Y-32480
X42470Y-32800
X42470Y-33140
X42470Y-33890
X42470Y-34220
X42470Y-34610
X42480Y-32110
X42480Y-33520
X42730Y-34830
X43070Y-34830
X43410Y-34830
X43510Y-48900
X43730Y-34820
X43760Y-31660
X44100Y-31550
X44130Y-34820
X44360Y-51710
X44440Y-31550
X44500Y-34830
X44620Y-44820
X44825Y-31560
X44930Y-34820
X45040Y-35760
X45060Y-48170
X45220Y-31590
X45300Y-34820
X46200Y-28940
X47200Y-42140
X47280Y-41600
X47320Y-26810
X47920Y-27900
X48530Y-21150
X48540Y-21540
X48540Y-21540
X48620Y-26500
X48620Y-26820
X48620Y-27120
X48620Y-27420
X48630Y-25150
X48630Y-25490
X48630Y-25820
X48630Y-26170
X48740Y-24740
X51700Y-25050
X51700Y-25440
X51700Y-25820
X51710Y-26150
X51710Y-26510
X51720Y-26850
X51720Y-27160
X51730Y-27500
X52030Y-32960
X52030Y-35030
X52040Y-33250
X52040Y-33650
X52040Y-33980
X52040Y-34300
X52040Y-34680
X52040Y-35360
X52270Y-35590
X52350Y-42890
X52630Y-35610
X52650Y-47949
X52670Y-32760
X52940Y-52380
X53010Y-35600
X53080Y-32760
X53400Y-35590
X53510Y-32750
X53730Y-52630
X53780Y-35610
X53900Y-32750
X54170Y-35580
X54330Y-52290
X54340Y-32740
X54560Y-35590
X54790Y-32740
X54940Y-35580
X55060Y-44940
X55060Y-45320
X55200Y-32730
X55320Y-35580
X55550Y-32720
X55700Y-35580
X55830Y-32860
X55870Y-53920
X55900Y-39760
X56040Y-33740
X56040Y-34070
X56040Y-34410
X56040Y-34780
X56040Y-35140
X56050Y-33060
X56050Y-33400
X56240Y-39420
X57120Y-44950
X57630Y-32110
X57890Y-53696
X58160Y-53910
X59010Y-43600
X59474Y-32120
X60810Y-53880
X60900Y-33240
X61330Y-44960
X62460Y-41750
X63370Y-27970
X63390Y-37950
X63750Y-54220
X65260Y-33030
X66160Y-47410
X66270Y-28090
X66480Y-51180
X66510Y-41040
X66520Y-37940
X67710Y-28490
X67710Y-41490
X68200Y-47650
X68420Y-35620
T2
X44320Y-49760
X44320Y-50760
X44320Y-54760
X44320Y-55760
X45320Y-49760
X45320Y-50760
X45320Y-54760
X45320Y-55760
X46320Y-49760
X46320Y-50760
X46320Y-54760
X46320Y-55760
X47320Y-49760
X47320Y-50760
X47320Y-54760
X47320Y-55760
X48320Y-49760
X48320Y-50760
X48320Y-54760
X48320Y-55760
X49320Y-49760
X49320Y-50760
X49320Y-54760
X49320Y-55760
X50320Y-49760
X50320Y-50760
X50320Y-54760
X50320Y-55760
X51320Y-49760
X51320Y-50760
X51320Y-54760
X51320Y-55760
X52320Y-49760
X52320Y-54760
X52320Y-55760
X53320Y-49760
X53320Y-54760
X53320Y-55760
X54320Y-49760
X54320Y-54760
X54320Y-55760
X55320Y-49760
X55320Y-55760
X56320Y-49760
X56320Y-54760
X56320Y-55760
X57320Y-49760
X57320Y-55760
T3
X32140Y-16900
X32140Y-18470
X32140Y-20040
X33700Y-16900
X33700Y-18470
X33700Y-20040
X35260Y-16900
X35260Y-18470
X35260Y-20040
X36820Y-16900
X36820Y-18470
X36820Y-20040
X38380Y-16900
X38380Y-18470
X38380Y-20040
X44620Y-16900
X44620Y-18470
X44620Y-20040
X46180Y-16900
X46180Y-18470
X46180Y-20040
X47740Y-16900
X47740Y-18470
X47740Y-20040
X49300Y-16900
X49300Y-18470
X49300Y-20040
X50860Y-16900
X50860Y-18470
X50860Y-20040
X55760Y-16900
X55760Y-18470
X55760Y-20040
X57320Y-16900
X57320Y-18470
X57320Y-20040
X58880Y-16900
X58880Y-18470
X58880Y-20040
X65120Y-16900
X65120Y-18470
X65120Y-20040
X66680Y-16900
X66680Y-18470
X66680Y-20040
X68240Y-16900
X68240Y-18470
X68240Y-20040
T4
X41500Y-18750
X62000Y-18750
T0
M30
